<svg width="125" height="165" viewBox="0 0 125 165" fill="none" xmlns="http://www.w3.org/2000/svg">
<g clip-path="url(#clip0_1590_224)">
<path d="M108.547 69.2684H103.606L100.216 67.1444C100.022 67.0478 99.8281 66.9513 99.6343 66.8547V64.9238C99.6343 64.1514 98.9562 63.4756 98.1812 63.4756C97.4062 63.4756 96.7281 64.1514 96.7281 64.9238V66.7582C96.5344 66.8547 96.3406 66.9513 96.1468 67.0478L92.3687 69.2684H87.9125C87.1375 69.2684 86.4594 69.9442 86.4594 70.7166C86.4594 71.489 87.1375 72.1648 87.9125 72.1648H92.7562H96.7281V106.535L91.6906 112.039C91.1093 112.618 91.2062 113.583 91.7875 114.066C92.0781 114.356 92.4656 114.452 92.7562 114.452C93.1437 114.452 93.5312 114.259 93.8219 113.969L98.1812 109.239L102.541 113.969C103.122 114.549 103.994 114.549 104.575 114.066C105.156 113.487 105.156 112.618 104.672 112.039L99.6343 106.535V72.1648H108.547C109.322 72.1648 110 71.489 110 70.7166C110 69.9442 109.322 69.2684 108.547 69.2684Z" fill="black"/>
<path d="M93.3371 90.9915V83.7505C93.3371 81.6264 91.5933 79.7921 89.3652 79.7921H88.1058C87.8152 79.4059 87.4277 79.1162 86.9433 79.1162C86.4589 79.1162 85.9746 79.4059 85.7808 79.7921H76.3839C76.2871 79.7921 76.1902 79.7921 76.1902 79.7921C75.4152 79.2128 74.6402 78.73 73.8652 78.2473V74.1924H76.9652C77.1589 74.7716 77.7402 75.1578 78.3214 75.1578C78.9027 75.1578 79.4839 74.7716 79.6777 74.1924H80.2589C82.0996 74.1924 83.6496 72.6476 83.6496 70.8132V64.3446C83.6496 62.5102 82.0996 60.9655 80.2589 60.9655H79.6777C79.4839 60.3862 78.9027 60 78.3214 60C77.7402 60 77.1589 60.3862 76.9652 60.9655H71.8308C69.9902 60.9655 68.4402 62.5102 68.4402 64.3446V70.8132C68.4402 72.358 69.5058 73.6131 70.9589 74.0958V77.0888C69.2152 76.5095 67.4714 76.2198 65.5339 76.2198C63.5964 76.2198 61.7558 76.5095 60.0121 77.1853V74.1924C61.5621 73.8062 62.6277 72.5511 62.6277 70.9098V64.4411C62.6277 62.6068 61.0777 61.062 59.2371 61.062H54.1027C53.9089 60.4827 53.3277 60.0965 52.7465 60.0965C52.1652 60.0965 51.584 60.4827 51.3902 61.062H50.809C48.9683 61.062 47.4183 62.6068 47.4183 64.4411V70.8132C47.4183 72.6476 48.9683 74.1924 50.809 74.1924H51.3902C51.584 74.7716 52.1652 75.1578 52.7465 75.1578C53.3277 75.1578 53.9089 74.7716 54.1027 74.1924H57.1058V78.3439C55.1683 79.4059 53.5214 80.8541 52.0683 82.4954H43.1558C42.9621 81.9161 42.3808 81.5299 41.7996 81.5299C41.2183 81.5299 40.6371 81.9161 40.4433 82.4954H39.2808C37.1496 82.4954 35.309 84.2332 35.309 86.4538V100.55C35.309 102.674 37.0527 104.508 39.2808 104.508H40.6371L37.7308 112.521C37.4402 113.294 37.8277 114.066 38.6027 114.356C38.7965 114.452 38.8933 114.452 39.0871 114.452C39.6683 114.452 40.2496 114.066 40.4433 113.487L43.6402 104.508H45.8683V113.004C45.8683 113.776 46.5465 114.452 47.3215 114.452C48.0965 114.452 48.7746 113.776 48.7746 113.004V104.508H51.4871C51.5839 104.508 51.6808 104.508 51.7777 104.508C52.7465 105.667 53.8121 106.729 54.9746 107.597L53.2308 112.521C52.9402 113.294 53.3277 114.066 54.1027 114.356C54.2964 114.452 54.3933 114.452 54.5871 114.452C55.1683 114.452 55.7496 114.066 55.9433 113.487L57.4933 109.142C59.9152 110.397 62.5308 111.073 65.4371 111.073C68.3433 111.073 70.9589 110.397 73.3808 109.142L74.9308 113.487C75.1246 114.066 75.7058 114.452 76.2871 114.452C76.4808 114.452 76.5777 114.452 76.7714 114.356C77.5464 114.066 77.9339 113.294 77.6433 112.521L75.8996 107.501C79.7746 104.605 82.4871 100.067 82.8746 94.8533H85.7808C86.0714 95.2395 86.4589 95.5292 86.9433 95.5292C87.4277 95.5292 87.9121 95.2395 88.1058 94.8533H89.3652C91.5933 94.9499 93.3371 93.212 93.3371 90.9915ZM80.6464 64.3446V70.8132C80.6464 71.1029 80.4527 71.296 80.1621 71.296H79.6777V63.8619H80.1621C80.4527 63.8619 80.6464 64.055 80.6464 64.3446ZM71.2496 64.3446C71.2496 64.055 71.4433 63.8619 71.7339 63.8619H76.7714V71.296H71.7339C71.4433 71.296 71.2496 71.1029 71.2496 70.8132V64.3446ZM59.6246 64.3446V70.8132C59.6246 71.1029 59.4308 71.296 59.1402 71.296H54.1027V63.8619H59.1402C59.4308 63.8619 59.6246 64.055 59.6246 64.3446ZM50.3246 70.8132V64.3446C50.3246 64.055 50.5183 63.8619 50.809 63.8619H51.2933V71.296H50.809C50.5183 71.296 50.3246 71.1029 50.3246 70.8132ZM90.4308 83.7505V90.9915C90.4308 91.5707 89.9464 92.0535 89.3652 92.0535H88.2995V82.6885H89.3652C90.0433 82.6885 90.4308 83.1712 90.4308 83.7505ZM79.0964 82.6885H85.4902V92.0535H82.8746C82.5839 88.4813 81.2277 85.2952 79.0964 82.6885ZM38.2152 100.55V86.4538C38.2152 85.8745 38.6996 85.3918 39.2808 85.3918H40.3465V101.612H39.2808C38.6996 101.612 38.2152 101.129 38.2152 100.55ZM43.2527 101.612V85.3918H50.0339C48.6777 87.8054 47.9996 90.6053 47.9996 93.5982C47.9996 96.4946 48.6777 99.1979 49.9371 101.612H43.2527ZM65.4371 108.177C57.3964 108.177 50.809 101.612 50.809 93.5982C50.809 85.5849 57.3964 79.1162 65.4371 79.1162C73.4777 79.1162 80.0652 85.6814 80.0652 93.6948C80.0652 101.708 73.4777 108.177 65.4371 108.177Z" fill="black"/>
<path d="M30.175 106.535V72.1648H39.0875C39.8625 72.1648 40.5406 71.489 40.5406 70.7166C40.5406 69.9442 39.8625 69.2684 39.0875 69.2684H34.1469L30.7562 67.1444C30.5625 67.0478 30.3687 66.9513 30.175 66.8547V64.9238C30.175 64.1514 29.4969 63.4756 28.7219 63.4756C27.9469 63.4756 27.2687 64.1514 27.2687 64.9238V66.7582C27.075 66.8547 26.8812 66.9513 26.6875 67.0478L22.9094 69.2684H18.4531C17.6781 69.2684 17 69.9442 17 70.7166C17 71.489 17.6781 72.1648 18.4531 72.1648H23.2969H27.2687V106.535L22.2312 112.039C21.65 112.618 21.7469 113.583 22.3281 114.066C22.6187 114.356 23.0062 114.452 23.2969 114.452C23.6844 114.452 24.0719 114.259 24.3625 113.969L28.7219 109.239L33.0812 113.969C33.6625 114.549 34.5344 114.549 35.1156 114.066C35.6969 113.487 35.6969 112.618 35.2125 112.039L30.175 106.535Z" fill="black"/>
<path d="M70.7654 85.5849C69.9904 85.3918 69.2154 85.778 68.9248 86.5504L67.0842 92.4398H61.6592L59.2373 99.7773C58.9467 100.55 59.431 101.322 60.1092 101.612C60.3029 101.708 60.3998 101.708 60.5935 101.708C61.1748 101.708 61.756 101.322 61.9498 100.743L63.6935 95.4327H69.3123L71.7342 87.5159C71.9279 86.647 71.5404 85.8746 70.7654 85.5849Z" fill="black"/>
<path d="M67.1913 21.1789C67.0868 21.0296 66.9822 20.8729 66.8777 20.7161V20.7186C66.492 20.1288 65.7728 19.8551 65.0935 20.0417C62.5926 20.726 60.9876 22.3311 60.3058 24.8145H60.3083C60.1192 25.5013 60.4028 26.2305 61.0051 26.6112C61.1618 26.7107 61.3136 26.8102 61.4605 26.9098L60.4502 27.9225C60.271 28.1191 60.2785 28.4202 60.4651 28.6068C60.6542 28.796 60.9553 28.8034 61.1519 28.6243L62.2816 27.497C62.7146 27.823 63.1202 28.1615 63.501 28.5123L62.2717 29.7416H62.2692C62.0751 29.9382 62.0776 30.2542 62.2717 30.4484C62.4683 30.6425 62.7843 30.64 62.9784 30.4434L64.2152 29.2066H64.2176C64.6133 29.6222 64.9841 30.0627 65.325 30.523L64.1903 31.6577C64.0037 31.8543 64.0087 32.1628 64.2003 32.3519C64.3919 32.5435 64.6979 32.546 64.8945 32.3594L65.8899 31.364C65.9396 31.4437 65.9894 31.5183 66.0342 31.598L66.0367 31.6004C66.3826 32.1778 67.052 32.4813 67.7164 32.3594L68.5973 32.1952L82.6019 46.1998L81.3577 47.444C79.6531 49.1486 78.6951 51.4628 78.6951 53.8742C78.6951 56.2856 79.6531 58.5998 81.3577 60.3045L81.5617 60.5085C82.5272 61.474 84.3413 62.447 86.5386 63.1811C89.027 64.0122 90.8336 66.1872 91.1422 68.7253C91.6399 72.9208 92.4039 75.9691 94.626 78.1885C97.0348 80.5898 100.297 81.9385 103.699 81.9385C107.1 81.9385 110.363 80.5898 112.771 78.1885L118.445 72.5149C120.535 70.4196 121.842 67.6625 122.135 64.7163C122.429 61.7675 121.697 58.8088 120.062 56.3405C119.908 56.1166 119.602 56.0593 119.376 56.2087C119.149 56.3604 119.087 56.664 119.234 56.893C120.739 59.1699 121.414 61.8972 121.142 64.6145C120.871 67.3318 119.669 69.8725 117.741 71.8085L112.067 77.4796H112.065C109.845 79.6944 106.837 80.9386 103.699 80.9386C100.561 80.9386 97.5522 79.6944 95.3298 77.4796C93.3092 75.4615 92.6075 72.5874 92.1297 68.6006C91.7788 65.6842 89.7109 63.1833 86.8543 62.2327C84.8262 61.5559 83.1092 60.6451 82.2631 59.7991L82.0591 59.595H82.0616C78.9013 56.4347 78.9013 51.3084 82.0616 48.1481L83.3058 46.9039L83.8408 47.4389C81.7804 49.3849 80.8149 50.9775 80.6407 52.7243H80.6432C80.6158 53.0005 80.8174 53.2444 81.0911 53.2718C81.3673 53.2992 81.6112 53.0976 81.6385 52.8239C81.7879 51.3308 82.6638 49.9224 84.55 48.1431L86.909 50.5071C85.5628 53.6848 86.6577 57.3725 89.5194 59.3039C92.3811 61.2324 96.2083 60.8667 98.652 58.428C101.096 55.9894 101.469 52.1622 99.5453 49.2955C97.6217 46.4313 93.9364 45.3289 90.7561 46.6677L87.1529 43.0645L88.3971 41.8203V41.8228C91.5624 38.665 96.6862 38.665 99.851 41.8228L100.055 42.0193C100.901 42.8654 101.812 44.5824 102.489 46.6105C103.442 49.4622 105.943 51.5326 108.859 51.8834C112.549 52.3264 115.24 52.9385 117.245 54.6207C117.454 54.7924 117.763 54.7625 117.937 54.5535C118.113 54.347 118.089 54.0384 117.885 53.8593C115.69 52.0129 112.848 51.3534 108.976 50.8881C106.438 50.5845 104.263 48.7779 103.432 46.2845C102.698 44.0822 101.725 42.2681 100.759 41.3076L100.555 41.1036C97.002 37.5575 91.2489 37.5575 87.693 41.1036L86.4488 42.3478L72.4537 28.368L72.6279 27.4323H72.6254C72.6429 27.3352 72.6528 27.2382 72.6528 27.1411V27.1387C72.6528 26.5837 72.3691 26.0686 71.8988 25.77C71.8142 25.7153 71.7271 25.6606 71.6425 25.6058L72.603 24.6453V24.6478C72.7971 24.4537 72.7971 24.1376 72.603 23.9435C72.4089 23.7494 72.0929 23.7494 71.8988 23.9435L70.8163 25.0285C70.3585 24.6826 69.9205 24.3068 69.5049 23.9087L70.6869 22.7291C70.8835 22.5351 70.8835 22.219 70.6869 22.0249C70.4928 21.8308 70.1793 21.8308 69.9852 22.0249L68.8106 23.1995C68.4598 22.8212 68.1189 22.4181 67.7879 21.9901L68.8678 20.9102L68.8653 20.9077C68.9649 20.8156 69.0196 20.6887 69.0221 20.5543C69.0246 20.4199 68.9723 20.2905 68.8753 20.196C68.7807 20.1014 68.6513 20.0492 68.517 20.0492C68.3851 20.0516 68.2557 20.1064 68.1636 20.2034L67.1913 21.1789ZM76.1697 33.4967L74.9255 34.7409L73.7335 33.5464V33.5489C73.5394 33.3523 73.2259 33.3523 73.0317 33.5489C72.8352 33.743 72.8352 34.0566 73.0317 34.2507L74.2262 35.4426L73.7434 35.9254L71.3695 33.5514L73.8031 31.1202L76.1697 33.4967ZM79.0438 36.3708L77.7996 37.615L75.6297 35.4451L76.8739 34.2009L79.0438 36.3708ZM81.9204 39.2449L80.6762 40.4891L78.5063 38.3192L79.7505 37.075L81.9204 39.2449ZM84.7945 42.119L83.5503 43.3632L81.3804 41.1934L82.6246 39.9492L84.7945 42.119ZM87.6686 44.9907L85.235 47.4244L83.0651 45.2545L83.5478 44.7717L84.6228 45.8467H84.6203C84.8144 46.0408 85.1305 46.0408 85.3246 45.8467C85.5187 45.6526 85.5187 45.3366 85.3246 45.1425L84.2496 44.0675L85.4938 42.8233L87.6686 44.9907ZM80.1885 42.3778L80.6713 41.8951L82.8412 44.0649L82.3584 44.5477L80.1885 42.3778ZM77.3144 39.5037L77.7972 39.0184L79.967 41.1883L79.4843 41.6711L77.3144 39.5037ZM74.4378 36.6296L74.9206 36.1468L77.0904 38.3167L76.6077 38.7994L74.4378 36.6296ZM97.9413 48.9123C99.7181 50.6866 100.251 53.3591 99.2876 55.6808C98.327 58 96.0626 59.5154 93.5492 59.5154C91.0384 59.5154 88.7715 58 87.8109 55.6808C86.8504 53.3591 87.3829 50.6866 89.1572 48.9123C90.3168 47.7352 91.8994 47.0758 93.5492 47.0758C95.2016 47.0758 96.7817 47.7353 97.9413 48.9123ZM88.4552 48.208C88.0446 48.6186 87.6838 49.074 87.3827 49.5692L85.9394 48.1259L88.3731 45.6922L89.8188 47.138C89.3211 47.4391 88.8633 47.7975 88.4552 48.208ZM73.0943 30.4181L70.6581 32.8493L69.618 31.8116L72.0517 29.3779L73.0943 30.4181ZM66.0474 21.2683C67.5703 23.5726 69.362 25.3742 71.3776 26.6184L71.3751 26.6159C71.5866 26.7528 71.6936 27.0016 71.6489 27.248L71.3926 28.6316L68.9042 31.1199L67.5355 31.3688C67.2817 31.4136 67.0254 31.2966 66.8911 31.0752C65.6742 29.0372 63.8751 27.248 61.541 25.7598L61.5435 25.7623C61.3095 25.6155 61.1976 25.3318 61.2697 25.0681C61.8595 22.928 63.1908 21.5992 65.3582 21.002C65.6195 20.9323 65.8982 21.0369 66.0475 21.2658L66.0474 21.2683Z" fill="black"/>
<path d="M63.75 23.6646C63.4216 23.9906 63.2374 24.4335 63.2374 24.8939C63.2374 25.3568 63.4216 25.7997 63.75 26.1282L66.5868 28.965C66.9128 29.2935 67.3557 29.4776 67.8186 29.4776C68.2815 29.4776 68.7244 29.2935 69.0504 28.965L69.2072 28.8082V28.8107C69.5331 28.4822 69.7173 28.0393 69.7173 27.5764C69.7173 27.1161 69.5331 26.6731 69.2072 26.3472L66.3679 23.5079V23.5054C66.0419 23.1794 65.599 22.9953 65.1361 22.9953C64.6733 22.9953 64.2303 23.1794 63.9043 23.5054L63.75 23.6646ZM65.6661 24.2121L68.5029 27.0489C68.7941 27.3425 68.7941 27.8128 68.5029 28.1039L68.3461 28.2607V28.2632C68.055 28.5519 67.5847 28.5519 67.2911 28.2632L64.4493 25.4239L64.4518 25.4214C64.1607 25.1303 64.1607 24.66 64.4518 24.3664L64.6086 24.2121C64.7479 24.0727 64.9395 23.9931 65.1361 23.9931C65.3352 23.9931 65.5243 24.0727 65.6661 24.2121Z" fill="black"/>
<path d="M88.1715 53.3022C88.1715 55.8677 89.9831 58.0775 92.4989 58.5776C95.0172 59.0778 97.5354 57.7316 98.5184 55.3625C99.5013 52.991 98.6702 50.2588 96.5376 48.8329C94.405 47.407 91.5632 47.6857 89.7493 49.4998C88.7366 50.5076 88.169 51.8763 88.1715 53.3022ZM96.6473 50.2066C97.8989 51.4582 98.2747 53.342 97.5954 54.9794C96.9185 56.6167 95.321 57.6843 93.5492 57.6843C91.7774 57.6843 90.1798 56.6167 89.503 54.9794C88.8236 53.342 89.1994 51.4583 90.4511 50.2066C91.2698 49.3779 92.3846 48.9101 93.5492 48.9101C94.7138 48.9101 95.8286 49.3779 96.6473 50.2066Z" fill="black"/>
<path d="M105.817 71.7265L111.978 65.5652V65.5677C112.747 64.7988 112.747 63.5545 111.978 62.7831L111.451 62.2556H111.448C111.973 61.6434 111.938 60.7327 111.368 60.1628L110.836 59.6303V59.6278C110.231 59.028 109.256 59.028 108.651 59.6278L107.474 60.8048L101.051 67.2249L99.8744 68.4019C99.5833 68.6906 99.4215 69.0837 99.4215 69.4918C99.4215 69.9024 99.5833 70.2956 99.8744 70.5842L100.412 71.1192C100.982 71.6866 101.893 71.7214 102.505 71.1989L103.032 71.7264V71.7289C103.804 72.4978 105.048 72.4978 105.817 71.7289V71.7265ZM103.415 68.8798L102.107 67.5708L107.825 61.8574L109.139 63.1713L108.529 63.7834L103.415 68.8798ZM109.741 60.1702C109.885 60.1702 110.025 60.2274 110.127 60.3294L110.662 60.8644C110.764 60.9665 110.821 61.1058 110.821 61.2502C110.821 61.397 110.764 61.5363 110.662 61.6383L110.398 61.9121L109.841 62.4695L108.532 61.1606L109.358 60.3344V60.3369C109.457 60.2324 109.597 60.1726 109.744 60.1702L109.741 60.1702ZM101.116 70.4125L100.584 69.8799H100.581C100.479 69.7779 100.419 69.6386 100.419 69.4917C100.419 69.3474 100.479 69.2081 100.581 69.106L101.407 68.2799L102.714 69.5888L101.888 70.415L101.89 70.4125C101.676 70.6265 101.33 70.6265 101.116 70.4125ZM103.739 71.0221L103.211 70.4971L110.757 62.9622L111.279 63.4873C111.463 63.6714 111.565 63.9177 111.565 64.1765C111.565 64.4353 111.463 64.6817 111.279 64.8633L105.118 71.0222H105.12C104.939 71.2063 104.69 71.3108 104.428 71.3108C104.17 71.3108 103.921 71.2063 103.739 71.0247L103.739 71.0221Z" fill="black"/>
<path d="M94.1386 71.5673C94.0117 71.6071 93.9072 71.6942 93.845 71.8112C93.7828 71.9256 93.7703 72.0625 93.8101 72.1894C95.2484 76.8626 98.0778 79.2662 102.213 79.3312C102.345 79.3337 102.472 79.2814 102.567 79.1919C102.661 79.0998 102.716 78.9729 102.718 78.841V78.8335C102.718 78.5623 102.502 78.3408 102.231 78.3358C98.523 78.2761 96.0793 76.1709 94.7653 71.896H94.7628C94.7254 71.7691 94.6359 71.6621 94.5189 71.6024C94.402 71.5402 94.2655 71.5275 94.1386 71.5673Z" fill="black"/>
<path d="M94.1137 69.1536C94.1162 69.1237 94.1137 69.0963 94.1088 69.069C93.9843 68.305 93.8798 67.4813 93.8052 66.6229V66.6254C93.7803 66.3491 93.5389 66.1451 93.2652 66.17C92.989 66.1924 92.7849 66.4362 92.8098 66.71C92.8869 67.5958 92.9939 68.4419 93.1233 69.2332C93.1681 69.487 93.3971 69.6637 93.6534 69.6438C93.9097 69.6214 94.1088 69.4099 94.1112 69.1536L94.1137 69.1536Z" fill="black"/>
<path d="M78.9044 74.7072C78.9044 74.5704 78.892 74.4335 78.8646 74.2991C78.7825 73.8239 78.5362 73.3909 78.1678 73.0798C77.8468 72.8036 77.4313 72.6642 77.0082 72.6941C76.9784 72.6941 76.9485 72.6966 76.9187 72.7015L76.8589 72.7115L71.7875 73.6671L70.6404 67.5505L74.271 66.8687H74.2735C74.1889 67.1822 74.1789 67.5082 74.2386 67.8242C74.3207 68.302 74.5671 68.7325 74.9354 69.0485C75.2913 69.3646 75.7765 69.4989 76.2443 69.4118C76.7146 69.3223 77.1153 69.0236 77.3318 68.5957C77.4985 68.2971 77.5831 67.9611 77.5806 67.6177C77.5831 67.4783 77.5682 67.3415 77.5433 67.2046C77.4612 66.7293 77.2148 66.2988 76.8465 65.9853C76.5255 65.709 76.1099 65.5722 75.6869 65.602C75.657 65.602 75.6272 65.6045 75.5998 65.6095L75.5401 65.6195L68.555 66.9284C67.8507 67.0628 67.3879 67.7396 67.5173 68.4463L68.5525 73.9657C68.6868 74.6699 69.3662 75.1327 70.0704 75.0009L71.4839 74.7371L75.6047 73.9657V73.9632C75.5201 74.2743 75.5102 74.6027 75.5699 74.9188C75.6545 75.394 75.9008 75.8246 76.2692 76.1406C76.6275 76.4517 77.1078 76.5835 77.5781 76.5039C78.3669 76.3546 78.9044 75.5881 78.9044 74.7072ZM76.202 66.7443V66.7418C76.5802 67.0902 76.6848 67.6501 76.4583 68.1104C76.3837 68.2771 76.2344 68.3966 76.0552 68.4289C75.8785 68.4638 75.6944 68.4065 75.5675 68.2771C75.3783 68.1129 75.2539 67.8864 75.2116 67.6376C75.1967 67.5654 75.1917 67.4883 75.1917 67.4137C75.1892 67.2395 75.2315 67.0678 75.3161 66.916C75.3958 66.7567 75.5426 66.6398 75.7143 66.5974C75.8934 66.5726 76.0726 66.6298 76.207 66.7492L76.202 66.7443ZM69.5329 73.7816L68.4952 68.2573C68.4803 68.1777 68.4977 68.098 68.5425 68.0309C68.5898 67.9637 68.6594 67.9189 68.7366 67.904L69.6623 67.7298L70.8169 73.8488L69.8912 74.023C69.8116 74.0404 69.7295 74.023 69.6598 73.9782C69.5926 73.9334 69.5478 73.8613 69.5329 73.7816ZM76.9034 75.3742C76.7143 75.2075 76.5898 74.9835 76.5475 74.7347C76.5326 74.66 76.5251 74.5854 76.5251 74.5107C76.5251 74.3366 76.5674 74.1649 76.6496 74.0131C76.7317 73.8538 76.8785 73.7368 77.0502 73.697C77.2269 73.6721 77.4036 73.7244 77.5354 73.8414C77.7221 74.0081 77.849 74.232 77.8938 74.4784C77.9883 74.9761 77.7569 75.4538 77.3961 75.5235C77.2169 75.5484 77.0378 75.4937 76.9034 75.3742Z" fill="black"/>
<path d="M84.5034 22.1224L82.3087 27.2934V27.2909C82.03 27.9503 82.3385 28.7118 82.9979 28.993L84.3218 29.5553L88.1788 31.1927L88.1813 31.1902C87.9375 31.4042 87.7458 31.6705 87.6214 31.9667C87.4298 32.4096 87.395 32.9048 87.5244 33.3701C87.6463 33.833 87.9748 34.2112 88.4152 34.3978C88.8532 34.5845 89.3559 34.5571 89.7714 34.3232C90.1969 34.0942 90.5304 33.726 90.7145 33.2805C90.8265 33.0143 90.8862 32.7281 90.8887 32.4395C90.8887 31.7775 90.5702 31.1753 90.0178 30.8941C90.0053 30.8867 89.9904 30.8792 89.9779 30.8717L85.1678 28.8313L87.5965 23.1079L90.9957 24.5511H90.9982C90.7543 24.7651 90.5652 25.0314 90.4408 25.3276C90.0252 26.308 90.381 27.3979 91.2321 27.7587C91.6725 27.9379 92.1703 27.9105 92.5908 27.6841C93.0138 27.4551 93.3472 27.0869 93.5314 26.6414C93.6459 26.3752 93.7056 26.089 93.7056 25.8004C93.7056 25.1559 93.402 24.5661 92.8745 24.2775V24.275C92.8496 24.2576 92.8222 24.2451 92.7948 24.2327L87.5269 21.9931L86.203 21.4307C85.887 21.2963 85.5287 21.2939 85.2101 21.4233C84.8916 21.5527 84.6378 21.8038 84.5034 22.1224ZM89.7988 32.8921C89.7043 33.1236 89.535 33.3177 89.3161 33.4396C89.1618 33.5366 88.9727 33.5541 88.8059 33.4819C88.6392 33.4122 88.5173 33.2654 88.4824 33.0862V33.0887C88.4576 32.9992 88.4451 32.9071 88.4451 32.8175C88.4451 32.6582 88.4775 32.5015 88.5397 32.3571C88.7388 31.8918 89.1916 31.6206 89.535 31.7649C89.876 31.9117 89.9979 32.4243 89.8013 32.8921L89.7988 32.8921ZM84.2546 28.4428L83.3837 28.0696C83.2294 28.0049 83.1597 27.8282 83.2244 27.6739L85.4192 22.5029H85.4167C85.4839 22.3487 85.6606 22.279 85.8124 22.3412L86.6833 22.7145L84.2546 28.4428ZM92.6208 26.248C92.5263 26.4795 92.3546 26.6736 92.1331 26.7955L92.1356 26.798C91.9788 26.8851 91.7922 26.9 91.6255 26.8403C91.3965 26.7432 91.2646 26.477 91.2646 26.1709V26.1684C91.2646 26.0116 91.297 25.8573 91.3617 25.713C91.4538 25.4791 91.6255 25.285 91.8444 25.1631C91.9987 25.076 92.1854 25.0586 92.3546 25.1208C92.6955 25.2676 92.8174 25.7827 92.6208 26.248Z" fill="black"/>
<path d="M109.998 27.8009L109.938 27.8631L102.966 34.9553L102.963 34.9578C102.662 35.2614 102.495 35.6769 102.498 36.1049C102.503 36.5354 102.677 36.946 102.983 37.2472L108.594 42.7615C108.9 43.0626 109.314 43.2293 109.744 43.2268C110.172 43.2218 110.583 43.0476 110.884 42.7416L116.654 36.8688C116.774 37.3914 117.04 37.8667 117.421 38.2375C118.406 39.203 119.884 39.3025 120.716 38.4564C121.079 38.0782 121.278 37.5731 121.268 37.0505C121.256 36.3363 120.957 35.6595 120.442 35.1668C119.511 34.251 118.14 34.1167 117.289 34.8184C117.259 34.8383 117.232 34.8607 117.209 34.8856L117.15 34.9478L111.939 40.2481L105.439 33.858L109.446 29.782L109.443 29.7845C109.56 30.3046 109.829 30.7799 110.212 31.1531C111.197 32.1211 112.675 32.2182 113.507 31.3721C113.87 30.9938 114.067 30.4887 114.059 29.9661C114.044 29.252 113.748 28.5751 113.233 28.0824C112.787 27.6345 112.203 27.3558 111.576 27.2936C111.038 27.2363 110.501 27.3956 110.082 27.734C110.05 27.7539 110.023 27.7761 109.998 27.8009ZM119.742 35.8786C120.335 36.4609 120.454 37.3069 120.006 37.7598C119.558 38.2152 118.712 38.1132 118.12 37.5309C117.794 37.2273 117.602 36.8067 117.585 36.3613C117.577 36.0976 117.677 35.8412 117.856 35.6496C118.307 35.1942 119.153 35.2963 119.745 35.8786L119.742 35.8786ZM111.237 40.9624L110.172 42.0449V42.0474C110.057 42.1643 109.9 42.2315 109.734 42.234C109.569 42.234 109.41 42.1718 109.291 42.0548L103.679 36.538C103.562 36.421 103.495 36.2643 103.495 36.1C103.493 35.9333 103.557 35.774 103.672 35.6571L104.737 34.5721L111.237 40.9624ZM111.485 28.2867C111.884 28.329 112.252 28.5081 112.531 28.7943C113.123 29.3766 113.242 30.2227 112.794 30.6756C112.346 31.1309 111.5 31.0289 110.908 30.4466V30.4441C110.62 30.1704 110.433 29.8046 110.383 29.4089C110.378 29.3641 110.376 29.3169 110.376 29.2721V29.2696C110.368 29.0083 110.465 28.7545 110.644 28.5629C110.871 28.3489 111.179 28.2468 111.488 28.2867L111.485 28.2867Z" fill="black"/>
</g>
<path d="M27 33.2C27.8 33.3 28.3 33.4 28.8 33.4C30.7 33.7 32.4 33.2 34 32.2C36.4 30.7 38.9 29.4 41.8 29.7C43.3 29.9 45 30.2 46 31.6C46.4 32.2 46.9 32.3 47.6 31.8C50.3 30.1 53.1 28.5 55.9 26.8C57.4 25.9 58.9 24.9 60.4 23.9C61.1 23.5 61.7 23 62.4 22.5C62.4 22.4 62.4 22.4 62.4 22.3C62.1 22.2 61.8 22.2 61.5 22.1C61.3 22.1 61.1 22.1 61.1 22C61 21.6 60.9 21.2 61 20.9C61.3 20.3 61.9 19.9 62.5 20.1C62.8 20.2 63.2 20.6 63.2 20.9C63.2 22.1 63.2 22.1 64.4 22.1C64.8 22.1 65.1 22 65.5 21.9C65.1 21.1 65.3 20.4 66 20.1C66.4 19.9 66.9 20 67.3 20.2C67.5 20.3 67.4 20.9 67.4 21.4C67.7 21.6 68.9 21.5 69.2 21.2C69.3 21.1 69.3 20.8 69.3 20.6C69.2 18.9 71.3 17.3 72.9 18.1C73.2 18.2 73.5 18.6 73.6 18.9C73.8 19.6 74.4 19.9 74.8 20.3C75.3 20.9 75.8 21.5 76.2 22.2C76.7 23.1 76.3 23.8 75.7 24.4C75.4 24.7 75.1 25.1 74.9 25.4C75.2 25.7 75.7 25.9 75.8 26.3C76.1 26.9 75.6 27.4 74.7 27.6C74.1 27.7 73.5 27.4 73.5 26.7C73.5 25.7 73 25.6 72.2 25.7C71.3 25.8 70.5 26 69.5 26.1C69.7 26.2 69.8 26.4 69.9 26.4C70.3 26.5 70.7 26.6 70.6 27.1C70.5 27.6 70.4 28.1 69.7 28.2C69.1 28.3 68.5 28.7 68.2 27.8C68.1 27.6 68.2 27.3 68.2 27.1C68.2 26.9 68.3 26.6 68.2 26.5C68.1 26.4 67.8 26.2 67.6 26.3C66.8 26.5 66 26.8 65.3 27.2C63.7 28.1 62.1 29.2 60.5 30.2C58.4 31.5 56.3 32.8 54.2 34.2C53.2 34.9 52.2 35.6 51.1 36.3C50.6 36.6 50.6 37 50.8 37.6C51.5 39.5 52.2 41.4 51.7 43.5C51.5 44.2 51.2 44.8 50.9 45.5C50.1 47.7 48.6 49.1 46.5 50C45.4 50.5 44.3 50.9 43.2 51.4C42.5 51.7 41.8 52 41.2 52.5C40.8 52.8 40.6 53.5 40.5 54C40.4 54.5 40.1 54.8 39.7 54.8C39.4 54.8 39.1 54.6 38.9 54.4C38.4 53.9 38.1 53.3 37.5 53C37.2 52.8 36.6 52.7 36.3 52.9C34.7 53.9 33 55 31.5 56.1C30.8 56.6 30.2 57.5 30.9 58.5C31 58.6 31 58.8 31 59C30.9 59.8 30.7 60.6 30.6 61.4C28.3 61.2 26.8 62.8 25.3 64.1C23.4 65.8 21.3 66.9 18.8 67.5C16.4 68 14.1 67.7 12 66.9C10.4 66.3 9.00001 65.1 7.60001 64.1C5.30001 62.3 4.40001 59.6 3.60001 56.9C3.20001 55.6 3.30001 54.3 3.60001 53C4.00001 51.2 4.30001 49.3 5.40001 47.8C6.00001 47 6.70001 46.1 7.50001 45.6C9.70001 44.2 12.1 43 14.4 41.6C15.3 41.1 15.9 40.2 16.7 39.4C17 39.1 17.3 38.7 17.6 38.7C18 38.8 18.4 39.1 18.7 39.5C20.1 41.4 20.7 41.9 22.8 41.3C24.1 41 25.2 40.6 26.2 39.7C26.5 39.4 27 39.2 27.4 38.9C27.8 38.6 27.9 38.3 27.6 37.9C27.2 37.3 26.9 36.6 27.2 35.8C27.3 35.6 27.2 35.4 27.2 35.2C27.2 34.6 27.1 34 27 33.2ZM42.9 36.9C42.6 37 42.3 37.1 42 37.3C39.1 38.9 36.2 40.6 33.4 42.2C33.1 42.4 32.8 42.6 32.5 42.7C32.5 42.8 32.6 42.8 32.6 42.9C32.9 42.7 33.3 42.6 33.6 42.4C35.8 41.2 38 39.9 40.2 38.7C41.1 38.2 42 37.6 42.9 36.9C43.1 36.9 43.3 36.9 43.5 36.8C45.3 35.8 47.1 34.7 48.9 33.7C49.5 33.3 50.1 33 50.7 32.6C50.3 32.6 50 32.6 49.8 32.8C49.1 33.2 48.3 33.6 47.6 34.1C46 35 44.4 36 42.9 36.9ZM28.4 34.7C28.6 35.2 28.9 35.8 29.2 36.3C29.7 37.3 29.3 39 28.3 39.7C26.5 41 24.6 42 22.4 42.6C20.8 43 19 42.2 18.3 40.5C18.3 40.3 18.1 40 18 40C17.8 40 17.6 40.2 17.5 40.4C17 40.8 16.7 41.4 16.2 41.7C14.4 42.8 12.5 43.8 10.7 45C9.30001 45.9 8.00001 46.8 6.90001 47.9C5.70001 49.2 5.40001 50.9 5.30001 52.7C4.80001 57 6.90001 60 10.3 62.2C11.8 63.2 13.6 63.5 15.4 63.6C16.6 63.7 17.8 63.6 19 63.4C21.2 62.9 22.9 61.5 24.6 60.1C26 59 27.3 57.7 29.4 58.2C29.5 58.2 29.7 58.1 29.9 58C29.5 57.6 29.2 57.2 28.8 56.9C27.9 56.1 27.7 55 28.4 54.1C28.9 53.5 29.4 52.9 30.1 52.5C31.8 51.4 33.4 50.2 35.2 49.3C37.1 48.3 38 48.7 39.2 50.6C39.3 50.8 39.5 51.1 39.7 51.4C39.9 50.7 40 50.2 40.3 49.7C41.1 48.5 42.3 47.8 43.7 47.4C44.3 47.2 45 47.1 45.5 46.8C46.4 46.3 47.1 45.6 47.9 45C49.9 43.7 50.6 41.8 50.3 39.5C50.2 38.5 50.1 37.5 49.2 36.7C46.7 38.2 44.2 39.6 41.8 41C39.2 42.5 36.5 44 33.9 45.6C33.2 46 32.7 45.8 32.1 45.5C31.9 45.4 31.5 45.3 31.3 45.4C29.5 46.4 27.8 47.5 26.1 48.6C25.6 48.9 25.3 49.1 25.4 49.8C25.5 50.3 25.4 51 24.7 51.2C24.4 51.3 24 50.9 23.7 50.6C23.3 50.1 22.9 50.2 22.5 50.5C21.6 51.2 20.7 51.9 19.9 52.7C19.5 53.1 18.7 53.3 19 54.2C19 54.3 18.8 54.4 18.6 54.5C17.5 55.1 16.3 55.6 15.2 56.2C13.5 57.1 11.9 58.1 10.3 59.1C9.60001 59.6 9.00001 59.7 8.30001 59.1C7.50001 58.6 7.30001 58 8.00001 57.3C8.30001 57 8.60001 56.6 8.90001 56.3C10.2 55 11.5 53.6 12.8 52.3C13.6 51.5 14.4 50.8 15.2 50C15.6 49.6 16 49.6 16.3 50.1C16.5 50.5 16.8 50.5 17.1 50.2C18.7 49 20.2 47.9 21.8 46.7C21.9 46.7 21.9 46.5 21.9 46.3C21.5 46.4 21.2 46.5 21 46.6C19.9 47.2 18.7 47.5 17.4 47.2C16.3 46.9 15.1 45.4 15.3 44.3C15.3 44.1 15.5 43.7 15.7 43.6C16 43.5 16.5 43.3 16.7 43.5C16.9 43.7 16.9 44.2 16.9 44.5C16.9 44.9 16.8 45.4 17 45.6C17.3 46.1 17.9 46.2 18.5 46C19.9 45.4 21.3 44.8 22.8 44.1C24.3 43.4 25.7 42.8 27.4 43.4C27.6 43.5 27.9 43.5 28 43.4C28.7 42.9 29.5 42.8 30 42C30.1 41.8 30.4 41.5 30.6 41.4C31.8 40.7 33 40.1 34.1 39.4C36.9 37.8 39.7 36.1 42.5 34.5C43.6 33.8 44.8 33.1 45.9 32.5C45.9 32.4 45.9 32.3 45.9 32.2C45.4 32 44.8 31.9 44.4 31.5C43.3 30.6 42 30.6 40.8 30.6C39 30.5 37.3 31.1 35.6 32C34.3 32.7 33 33.5 31.6 34C30.7 34.6 29.6 34.6 28.4 34.7ZM15.4 51C13 53.4 10.6 55.7 8.20001 58.2C8.60001 58.3 8.80001 58.4 8.90001 58.3C11.7 56.9 14.5 55.4 17.2 54C17.1 53.6 17 53.2 16.9 52.9C16.2 52.9 15.8 52.2 15.4 51ZM62.5 25.1C62.1 24.3 61.7 24.5 61.3 24.8C60.3 25.4 59.3 26 58.3 26.6C55.2 28.4 52.2 30.2 49.1 32.1C48 32.7 47 33.5 45.9 34.1C44.4 34.9 42.9 35.7 41.5 36.6C39.7 37.7 37.9 38.8 36.1 39.9C35.1 40.5 34 41.1 33 41.8C33 41.9 33.1 41.9 33.1 42C42.8 36.3 52.6 30.7 62.5 25.1ZM63.8 23.1C64.5 23.6 65.1 23.8 65.4 24.3C65.8 25 66.3 24.8 66.8 24.6C67.9 24.3 69 23.9 70.1 23.6C71 23.3 71.2 23 70.5 22.3C70.3 22.1 70 22.2 69.7 22.2C69.5 22.2 69.3 22.3 69.1 22.4C67.4 22.6 65.7 22.9 63.8 23.1ZM51 33.2C51 33.1 50.9 33.1 50.9 33C44.9 36.4 39 39.9 33 43.3C33.1 43.4 33.1 43.5 33.2 43.6C39.2 40.3 45.1 36.8 51 33.2ZM72.9 20.9C73 21 73 21.1 73.1 21.2C72.8 21.4 72.5 21.6 72.3 21.8C72.1 22.1 72 22.4 71.8 22.7C71.9 22.8 71.9 22.8 72 22.9C72.7 21.8 73.7 21.5 75 21.8C74.6 21.2 74 20.7 73.5 20.2C73.3 19.9 73.1 19.6 72.9 19.3C72.8 19.1 72.5 18.7 72.4 18.8C71.7 19.1 70.8 19 70.4 19.9C70.3 20.1 70.5 20.4 70.5 20.6C70.7 20.5 70.9 20.5 71 20.4C71.2 20.2 71.3 19.9 71.6 19.8C71.8 19.7 72.2 19.8 72.4 19.8C72.3 20 72.2 20.3 72 20.5C71.8 20.8 71.6 21 71.4 21.3C71.5 21.3 71.5 21.4 71.6 21.4C72.2 21.1 72.5 21 72.9 20.9ZM31.4 44.6C31.4 44.5 31.3 44.5 31.3 44.4C31 44.5 30.7 44.6 30.5 44.7C29.8 45 29.2 45.4 28.6 45.8C27.4 46.5 26.2 47.1 25 47.8C24.9 47.9 24.8 48.1 24.7 48.2C24.9 48.2 25 48.3 25.2 48.3C25.3 48.3 25.4 48.2 25.6 48.1C27.3 47.2 28.9 46.2 30.6 45.3C30.8 45.1 31.1 44.8 31.4 44.6ZM17.9 52.3C18 52.3 18.1 52.4 18.1 52.4C19.4 51.3 21 50.4 22.1 48.9C20.7 49.8 19.4 50.7 18.1 51.8C18 51.8 18 52.1 17.9 52.3ZM24.3 47.3C24.3 47.4 24.4 47.5 24.4 47.6C26.5 46.4 28.5 45.3 30.6 44.1C30.5 44 30.5 43.9 30.4 43.8C28.4 45 26.4 46.2 24.3 47.3ZM22.5 45.8C23.2 46.3 24.6 45.6 25.1 44.5C24.2 45 23.4 45.4 22.5 45.8ZM25.5 45.9C25.5 45.8 25.4 45.7 25.4 45.6C24.9 45.8 24.4 46.1 23.9 46.3C23.9 46.4 24 46.5 24 46.6C24.6 46.4 25 46.2 25.5 45.9Z" fill="black"/>
<path d="M28.7 47.4C29.3 47.2 29.8 47 30.3 46.8C30.3 47.3 30.4 47.8 30.3 48.2C29.8 50.2 28.3 51.3 26.6 52.2C25.7 52.7 24.7 53.2 23.9 53.8C23 54.5 23.2 55 24.1 55.6C24.3 55.7 24.4 56.1 24.4 56.1C24.1 56.4 23.8 56.6 23.4 56.8C23.3 56.8 23.2 56.7 23.1 56.7C22.2 56.2 21.7 54.5 22.3 53.6C23.1 52.3 24.4 51.6 25.8 51C26.8 50.6 27.6 49.9 28.5 49.3C29.1 49 29.2 48.3 28.7 47.4Z" fill="black"/>
<defs>
<clipPath id="clip0_1590_224">
<rect width="118" height="147" fill="white" transform="translate(7 18)"/>
</clipPath>
</defs>
</svg>
