<svg width="95" height="124" viewBox="0 0 95 124" fill="none" xmlns="http://www.w3.org/2000/svg">
<g clip-path="url(#clip0_1438_199)">
<path d="M21.85 49.719V8.23359C21.8099 7.14026 21.9867 6.05008 22.3694 5.03152C22.7521 4.01296 23.3323 3.08803 24.0737 2.31483C24.815 1.54162 25.7015 0.93685 26.6774 0.538491C27.6533 0.140131 28.6975 -0.0432062 29.7445 -6.56024e-06H65.322C66.3594 -0.0330639 67.3922 0.156095 68.3569 0.555809C69.3216 0.955523 70.1977 1.55732 70.9311 2.32411C71.6645 3.09089 72.2398 4.00641 72.6214 5.01423C73.003 6.02204 73.1829 7.1008 73.15 8.18399V91.0259C73.1817 92.1092 73.0005 93.1877 72.6177 94.195C72.2349 95.2023 71.6586 96.1171 70.9243 96.883C70.19 97.6488 69.3132 98.2495 68.3481 98.648C67.3829 99.0465 66.3498 99.2344 65.3125 99.2H29.621C28.5933 99.2245 27.5715 99.031 26.6175 98.6312C25.6634 98.2314 24.797 97.6337 24.0705 96.8742C23.3441 96.1147 22.7727 95.2092 22.3911 94.2125C22.0094 93.2158 21.8253 92.1486 21.85 91.0755V49.719ZM26.695 83.1296H68.2765V17.0723H26.6855L26.695 83.1296ZM50.9105 90.5002C50.9284 89.9866 50.847 89.4745 50.6713 88.9944C50.4957 88.5144 50.2292 88.0762 49.8879 87.7059C49.5466 87.3356 49.1375 87.0409 48.6848 86.8392C48.2321 86.6376 47.7452 86.5332 47.253 86.5322C46.7462 86.5055 46.2396 86.5867 45.7638 86.7708C45.288 86.9549 44.853 87.2381 44.4853 87.6032C44.1176 87.9683 43.8248 88.4077 43.6247 88.8946C43.4247 89.3815 43.3215 89.9058 43.3215 90.4357C43.3215 90.9655 43.4247 91.4898 43.6247 91.9768C43.8248 92.4637 44.1176 92.903 44.4853 93.2681C44.853 93.6332 45.288 93.9165 45.7638 94.1006C46.2396 94.2847 46.7462 94.3659 47.253 94.3392C47.7345 94.3392 48.2112 94.2397 48.6556 94.0464C49.1001 93.8531 49.5035 93.5699 49.8427 93.213C50.1818 92.8561 50.4499 92.4326 50.6315 91.967C50.8132 91.5014 50.9048 91.0029 50.901 90.5002H50.9105ZM47.5855 9.04703C46.436 9.04703 45.2865 9.04703 44.137 9.04703C43.491 9.04703 42.845 9.17599 42.921 9.91999C43.0115 10.1713 43.162 10.3943 43.3582 10.5679C43.5544 10.7415 43.7897 10.86 44.042 10.912C46.3695 11.0112 48.716 11.0112 51.0435 10.912C51.4425 10.912 51.8225 10.2771 52.212 9.91999C51.8225 9.63231 51.4425 9.14623 51.0245 9.10655C49.8845 8.97759 48.735 9.04703 47.5855 9.04703Z" fill="black"/>
</g>
<defs>
<clipPath id="clip0_1438_199">
<rect width="95" height="124" fill="white"/>
</clipPath>
</defs>
</svg>
