<svg width="112" height="192" viewBox="0 0 112 192" fill="none" xmlns="http://www.w3.org/2000/svg">
<path fill-rule="evenodd" clip-rule="evenodd" d="M41.5225 122.392H40.3636V120.367H41.4805C41.3373 120.714 41.2939 121.096 41.3609 121.474L41.5225 122.392ZM69.5194 120.367H70.6362V122.392H69.4774L69.639 121.474C69.706 121.096 69.6626 120.712 69.5194 120.367ZM52.8627 119.81C53.2661 119.81 53.6471 119.992 53.8994 120.303C54.1516 120.616 54.2476 121.025 54.1582 121.414L53.2766 125.331C52.8995 127.001 51.4029 128.19 49.6751 128.19H46.2418C44.5167 128.19 43.0425 126.962 42.7453 125.279L42.0516 121.353C41.9846 120.972 42.091 120.578 42.3433 120.279C42.5956 119.982 42.9687 119.809 43.3603 119.809H52.8625L52.8627 119.81ZM46.7991 126.582C45.5994 126.582 44.5746 125.875 44.3591 124.465C44.3302 124.275 44.1502 124.144 43.9597 124.173C43.7678 124.202 43.6378 124.379 43.6654 124.569C43.9426 126.378 45.2631 127.276 46.7991 127.276C46.9922 127.276 47.1499 127.121 47.1499 126.928C47.1499 126.737 46.9935 126.581 46.7991 126.581V126.582ZM54.8916 121.031H56.1109C56.1031 121.21 56.1175 121.388 56.1582 121.566L56.3002 122.197H54.7024L54.8443 121.566C54.8851 121.388 54.9008 121.21 54.8916 121.031ZM58.1383 119.81H67.6406C68.0335 119.81 68.4053 119.982 68.6575 120.28C68.9098 120.578 69.0162 120.971 68.9492 121.354L68.2555 125.28C67.9585 126.963 66.4843 128.191 64.759 128.191H61.3257C59.5979 128.191 58.1014 127.003 57.7243 125.332L56.8426 121.415C56.7546 121.025 56.8492 120.617 57.1015 120.305C57.3538 119.993 57.7348 119.811 58.1382 119.811L58.1383 119.81Z" fill="black"/>
<g clip-path="url(#clip0_1590_194)">
<path d="M72.2031 93.2386V83.1386C72.1952 72.0608 65.7679 63.0824 57.8376 63.0725H52.2694C44.3267 63.0669 37.8835 72.0447 37.8641 83.1386V93.2386C26.2864 94.8054 14 98.572 14 104.494C14 112.233 34.8564 116.855 55.0215 116.855C75.1866 116.855 96.043 112.233 96.043 104.494C96.0669 98.5775 83.8012 94.8054 72.2031 93.2386ZM38.6663 98.822C44.0754 100.105 49.5598 100.7 55.0447 100.6C60.5254 100.694 66.0024 100.1 71.4069 98.822V106.578C66.0058 107.872 60.5246 108.466 55.0447 108.355C49.5601 108.466 44.0759 107.872 38.6663 106.578V98.822ZM52.2682 64.1881H57.8364C65.3296 64.1992 71.4026 72.677 71.4067 83.1434V97.6928C66.0056 98.9872 60.5244 99.5816 55.0445 99.4705C49.5599 99.5817 44.0757 98.9872 38.6661 97.6928V83.1377C38.686 72.6655 44.7714 64.1881 52.2682 64.1881ZM55.0443 115.744C30.9816 115.744 14.818 109.927 14.818 104.494C14.818 100.288 24.0691 96.2324 37.8747 94.3491V106.994H37.8708C37.8827 107.182 37.9622 107.355 38.0895 107.438C38.1293 107.499 38.185 107.549 38.2406 107.582C43.7889 108.955 49.4132 109.588 55.0447 109.466C60.6527 109.588 66.2569 108.966 71.7816 107.61H71.8054C71.9128 107.61 72.0123 107.549 72.0878 107.449C72.1634 107.343 72.2032 107.205 72.2032 107.055V94.3546C86.0158 96.2379 95.2711 100.299 95.2711 104.499C95.2711 109.932 79.107 115.744 55.0443 115.744Z" fill="black"/>
<path d="M42.676 90.789C42.8908 91.8168 43.555 92.5335 44.3226 92.5667H44.3863C45.134 92.5612 45.8021 91.9056 46.0567 90.9224C46.8283 90.9613 47.5322 90.3002 47.7947 89.2836C48.0612 88.2724 47.8226 87.1336 47.2101 86.4779C47.4805 85.4613 47.2538 84.3169 46.6413 83.6501C46.0288 82.9779 45.1777 82.9446 44.5373 83.5612C43.9288 82.8946 43.0816 82.8501 42.4373 83.4557C41.797 84.0557 41.5106 85.1723 41.7334 86.2112C41.0851 86.8112 40.7947 87.9334 41.0135 88.9779C41.2322 90.0168 41.9084 90.739 42.6879 90.7668L42.676 90.789ZM42.3817 87.0056V87.0111C42.4851 86.95 42.5686 86.8334 42.6124 86.6834C42.6442 86.5389 42.6362 86.3778 42.5845 86.2389C42.33 85.6167 42.4612 84.8222 42.8828 84.4111C43.3164 84.0166 43.8891 84.1444 44.2152 84.7C44.2868 84.8277 44.3942 84.9 44.5056 84.9C44.6289 84.9333 44.7522 84.8666 44.8238 84.7277C45.1738 84.2055 45.7505 84.1389 46.1561 84.5777C46.5579 85.0222 46.6533 85.8166 46.3749 86.4167C46.3152 86.55 46.2993 86.7111 46.3311 86.8611C46.359 87.0167 46.4346 87.1389 46.538 87.2111C47.0033 87.5111 47.23 88.2556 47.063 88.9333C46.884 89.6111 46.3669 89.9833 45.8697 89.7888C45.7624 89.7555 45.647 89.7777 45.5555 89.8611C45.4601 89.9499 45.3965 90.0833 45.3805 90.2333C45.3249 90.9555 44.8834 91.4888 44.3663 91.4666C43.8533 91.4444 43.4357 90.8722 43.4118 90.15C43.3959 90 43.3362 89.8611 43.2447 89.7777C43.1732 89.7055 43.0896 89.6611 43.0021 89.6611H42.9305C42.4016 89.8722 41.8527 89.45 41.7016 88.7111C41.5505 87.9722 41.8527 87.2055 42.3817 86.9944L42.3817 87.0056Z" fill="black"/>
<path d="M44.4222 89.3667C44.8677 89.3667 45.2694 88.989 45.4404 88.4112C45.6114 87.8334 45.516 87.1723 45.2018 86.7278C44.8836 86.289 44.4103 86.1612 43.9966 86.4001C43.583 86.639 43.3165 87.2001 43.3165 87.8278C43.3205 88.6778 43.8137 89.3667 44.4222 89.3667ZM44.4222 87.389C44.5057 87.389 44.5853 87.439 44.645 87.5223C44.7046 87.6057 44.7404 87.7168 44.7404 87.8334C44.7404 88.0168 44.6609 88.1779 44.5415 88.2445C44.4262 88.3168 44.287 88.2779 44.1955 88.1501C44.104 88.0223 44.0802 87.8334 44.1279 87.6668C44.1756 87.5001 44.291 87.389 44.4222 87.389Z" fill="black"/>
<path d="M49.3543 92.1827C49.5373 92.8439 49.9827 93.2939 50.4918 93.3216H50.5356C51.0288 93.3216 51.4782 92.9161 51.685 92.2827C52.1901 92.2327 52.6237 91.7772 52.7946 91.1161C52.9657 90.455 52.8424 89.7105 52.4765 89.2272C52.6037 88.5383 52.4287 87.8161 52.031 87.3772C51.6293 86.9439 51.0844 86.8772 50.6389 87.2161C50.2134 86.8216 49.6566 86.8216 49.231 87.2161C48.8054 87.6216 48.5986 88.3383 48.702 89.0382C48.3122 89.4938 48.1492 90.2271 48.2924 90.9049C48.4316 91.5882 48.8492 92.0827 49.3543 92.1716V92.1827ZM49.3305 89.8105C49.4379 89.7494 49.5174 89.6327 49.5611 89.4827C49.5969 89.3383 49.585 89.1771 49.5333 89.0383C49.3941 88.7383 49.4538 88.3383 49.6646 88.1383C49.8793 87.9383 50.1657 88.0105 50.3129 88.2994C50.3884 88.4216 50.4918 88.4994 50.6072 88.4994C50.7225 88.516 50.8339 88.4494 50.9055 88.3271C51.0725 88.0827 51.3469 88.0549 51.5418 88.266C51.7327 88.4716 51.7805 88.8494 51.6492 89.1383C51.5896 89.2716 51.5737 89.4327 51.6015 89.5883C51.6333 89.7383 51.7089 89.866 51.8123 89.9327C52.031 90.0771 52.1345 90.4327 52.0549 90.7549C51.9714 91.0716 51.7288 91.2549 51.4941 91.1716C51.3867 91.1327 51.2714 91.1605 51.1799 91.2438C51.0845 91.3271 51.0208 91.466 51.0049 91.616C50.9771 91.9494 50.7782 92.1994 50.5356 92.2105H50.5197C50.2771 92.1883 50.0782 91.916 50.0663 91.5716C50.0583 91.416 50.0026 91.266 49.9151 91.166C49.8435 91.0938 49.756 91.0549 49.6685 91.0549H49.5969C49.3583 91.116 49.1237 90.916 49.056 90.5882C48.9884 90.266 49.1077 89.9216 49.3344 89.7938L49.3305 89.8105Z" fill="black"/>
<path d="M54.5603 92.4999C54.7154 93.0221 55.0734 93.3666 55.4751 93.3888H55.5149C55.9007 93.3888 56.2547 93.0888 56.4376 92.611C56.8353 92.5555 57.1734 92.1833 57.3086 91.6555C57.4478 91.1277 57.3524 90.5388 57.074 90.1444C57.1615 89.5944 57.0143 89.0277 56.6961 88.6833C56.3819 88.3389 55.9524 88.2777 55.5945 88.5277C55.2445 88.2444 54.8149 88.2666 54.4808 88.5777C54.1507 88.8944 53.9757 89.4444 54.0353 90C53.7331 90.3722 53.6137 90.95 53.7251 91.4889C53.8365 92.0278 54.1586 92.4278 54.5564 92.5222L54.5603 92.4999ZM54.6518 90.7221C54.7552 90.6666 54.8387 90.5499 54.8785 90.3999C54.9143 90.2555 54.9064 90.0944 54.8547 89.9555C54.7751 89.7944 54.8069 89.5777 54.9223 89.4666C55.0376 89.3555 55.1927 89.3999 55.2723 89.561C55.3319 89.7221 55.4632 89.8055 55.5905 89.7666C55.6978 89.761 55.8052 89.6999 55.8808 89.5888C55.9683 89.4499 56.1155 89.4277 56.2228 89.5444C56.3263 89.661 56.3461 89.8666 56.2746 90.0221C56.2109 90.1555 56.195 90.3166 56.2268 90.4666C56.2586 90.6222 56.3342 90.7444 56.4376 90.811C56.5569 90.8944 56.6126 91.0833 56.5728 91.2555C56.5331 91.4333 56.3978 91.5333 56.2706 91.4777C56.1632 91.4333 56.0478 91.461 55.9524 91.5444C55.8569 91.6277 55.7933 91.7666 55.7734 91.9221C55.7615 92.0999 55.6541 92.2388 55.5268 92.2444C55.3995 92.1888 55.2842 92.0944 55.2763 91.8999C55.2683 91.7388 55.2126 91.5944 55.1211 91.4999C55.0535 91.4221 54.97 91.3777 54.8785 91.3777H54.8069C54.7433 91.4055 54.6717 91.3944 54.612 91.3499C54.5524 91.3055 54.5086 91.2277 54.4888 91.1388C54.4649 90.9666 54.5325 90.7943 54.6518 90.7388L54.6518 90.7221Z" fill="black"/>
<g clip-path="url(#clip1_1590_194)">
<path d="M51.0306 159.46C51.2754 159.98 51.6613 160.337 52.099 160.458C52.2078 160.485 52.3167 160.503 52.428 160.503C53.0265 160.51 53.578 160.056 53.8624 159.322C55.1436 159.838 56.5039 159.838 57.785 159.322C57.9062 159.63 58.0793 159.897 58.2871 160.101C58.9524 160.724 59.8403 160.603 60.4092 159.814C60.9756 159.021 61.0646 157.778 60.6219 156.843C60.1767 155.911 59.3234 155.544 58.5839 155.974C57.8419 156.399 57.419 157.501 57.5748 158.602C57.5748 158.626 57.5896 158.647 57.5946 158.671C56.4346 159.1 55.2128 159.1 54.0528 158.671C54.0528 158.647 54.0677 158.629 54.0726 158.605C54.1814 157.833 54.0083 157.037 53.6101 156.483C53.2144 155.929 52.6455 155.686 52.094 155.842C51.5449 155.994 51.0849 156.524 50.8722 157.251C50.657 157.975 50.7164 158.806 51.0305 159.457L51.0306 159.46ZM58.2378 157.224C58.4134 156.86 58.6854 156.607 58.9946 156.521C59.0688 156.5 59.1479 156.49 59.2246 156.49C59.791 156.493 60.2758 157.05 60.387 157.83C60.4637 158.373 60.3425 158.938 60.0605 159.329C59.7811 159.72 59.3779 159.893 58.9896 159.783C58.5989 159.672 58.2749 159.298 58.124 158.785C57.9731 158.269 58.0152 157.684 58.2378 157.224ZM51.2604 157.826V157.83C51.3717 157.05 51.8565 156.493 52.4228 156.49C52.4995 156.49 52.5786 156.5 52.6528 156.521C53.2934 156.701 53.7089 157.563 53.5878 158.46C53.568 158.557 53.5408 158.647 53.5061 158.737C53.4938 158.761 53.4715 158.771 53.4666 158.803C53.4616 158.834 53.4666 158.837 53.4666 158.855C53.2514 159.547 52.7172 159.931 52.1904 159.769C51.5523 159.589 51.1367 158.723 51.2579 157.83L51.2604 157.826Z" fill="black"/>
<path d="M48.5252 159.008C48.7131 159.108 48.916 159.163 49.1188 159.163C49.9869 159.174 50.7165 158.253 50.8005 157.041C50.8871 155.829 50.296 154.728 49.4427 154.503C48.5894 154.274 47.7535 154.998 47.5136 156.168C47.2762 157.335 47.7139 158.568 48.5252 159.008ZM48.0256 156.21C48.1987 155.583 48.6266 155.164 49.1064 155.15C49.5862 155.136 50.0264 155.528 50.2193 156.14C50.4122 156.757 50.3232 157.474 49.9918 157.962C49.6579 158.447 49.1509 158.606 48.7032 158.36C48.0923 158.028 47.7881 157.065 48.0256 156.21Z" fill="black"/>
<path d="M47.6818 154.132C47.5285 153.259 47.0314 152.584 46.4032 152.397C45.775 152.207 45.127 152.536 44.7288 153.246C44.3331 153.952 44.2589 154.915 44.5408 155.721C44.8203 156.532 45.4065 157.044 46.0471 157.048C46.1831 157.048 46.3191 157.023 46.4527 156.982C47.3529 156.667 47.9045 155.392 47.6818 154.132ZM47.0635 155.555C46.7222 156.334 45.9951 156.584 45.4361 156.109C45.028 155.76 44.8104 155.102 44.8821 154.44C44.9538 153.779 45.3026 153.242 45.7675 153.079C45.859 153.048 45.9555 153.031 46.0519 153.031C46.4774 153.034 46.8706 153.356 47.0808 153.876C47.2911 154.399 47.2836 155.036 47.0635 155.548L47.0635 155.555Z" fill="black"/>
<path d="M44.956 151.7C44.9091 150.752 44.4589 149.938 43.8159 149.633C43.1728 149.332 42.4605 149.599 42.0153 150.315C41.6443 150.908 41.5107 151.718 41.6567 152.476C41.8051 153.234 42.2107 153.84 42.7424 154.093C43.2766 154.343 43.8628 154.204 44.3055 153.726C44.7507 153.245 44.9931 152.483 44.956 151.7ZM44.1646 152.951C43.9643 153.318 43.665 153.553 43.3385 153.602C43.0096 153.647 42.6831 153.501 42.4333 153.196C42.186 152.892 42.0401 152.459 42.0302 151.995C42.0203 151.534 42.1489 151.088 42.3838 150.766C42.5817 150.395 42.881 150.16 43.2099 150.115C43.5364 150.066 43.8654 150.212 44.1127 150.516C44.36 150.821 44.5059 151.257 44.5158 151.718C44.5257 152.178 44.3971 152.625 44.1646 152.951Z" fill="black"/>
<path d="M42.2133 146.915C41.6296 145.908 40.5735 145.748 39.8513 146.559C39.322 147.154 39.1019 148.141 39.2923 149.052C39.4828 149.966 40.0491 150.627 40.7243 150.728C41.3995 150.832 42.0525 150.354 42.3789 149.519C42.7029 148.685 42.6387 147.656 42.2133 146.915ZM39.9799 149.436C39.6782 148.913 39.6312 148.186 39.8612 147.594C40.0912 147.002 40.5512 146.663 41.0286 146.735C41.5084 146.808 41.9066 147.275 42.0427 147.92C42.1787 148.567 42.0204 149.263 41.647 149.686C41.1375 150.257 40.3929 150.146 39.9799 149.436Z" fill="black"/>
<path d="M40.4644 143.262C40.0143 142.127 38.9929 141.714 38.1791 142.338C37.5856 142.798 37.2467 143.712 37.3234 144.658C37.3976 145.603 37.8724 146.393 38.5253 146.656C39.1783 146.919 39.8782 146.607 40.3036 145.866C40.7266 145.122 40.7909 144.097 40.4644 143.262ZM37.9516 145.201C37.7192 144.613 37.7637 143.886 38.0629 143.359C38.3622 142.833 38.8593 142.615 39.3194 142.798C39.7819 142.985 40.1182 143.543 40.1702 144.211C40.2246 144.883 39.9847 145.53 39.5643 145.853C38.9905 146.296 38.2707 146.005 37.9516 145.201Z" fill="black"/>
<path d="M38.1446 142.23C38.575 142.04 38.9336 141.614 39.1389 141.05C39.3441 140.485 39.3763 139.827 39.2304 139.228C39.0844 138.629 38.7728 138.138 38.3647 137.864C37.9566 137.59 37.4867 137.559 37.0613 137.777C36.4183 138.086 35.9706 138.906 35.9285 139.855C35.884 140.804 36.255 141.697 36.8634 142.116C37.0935 142.276 37.3482 142.359 37.6054 142.359C37.7885 142.359 37.9715 142.314 38.1446 142.23ZM37.0811 141.493C36.6508 141.195 36.3936 140.565 36.4232 139.897C36.4553 139.225 36.7719 138.65 37.2245 138.432C37.3482 138.373 37.4768 138.345 37.6054 138.342C37.969 138.342 38.3152 138.57 38.5403 138.969C38.7679 139.363 38.8519 139.886 38.7703 140.381C38.6887 140.877 38.4488 141.292 38.1199 141.51C37.7909 141.725 37.4101 141.721 37.0836 141.493L37.0811 141.493Z" fill="black"/>
<path d="M37.039 137.663C37.9319 137.47 38.5576 136.323 38.4537 135.066C38.3499 133.809 37.5559 132.888 36.6532 132.985C35.7529 133.079 35.0654 134.156 35.0975 135.423C35.1321 136.687 35.8741 137.691 36.7768 137.691C36.8659 137.695 36.9525 137.684 37.039 137.663ZM35.6095 135.596C35.5477 134.717 35.9854 133.924 36.6087 133.789C37.2319 133.654 37.8231 134.222 37.9517 135.087C38.0036 135.52 37.9269 135.963 37.739 136.32C37.5535 136.673 37.274 136.912 36.9623 136.981C36.6532 137.051 36.3341 136.943 36.0819 136.68C35.8271 136.42 35.659 136.029 35.6095 135.596Z" fill="black"/>
<path d="M36.5199 132.895H36.557C37.4845 132.906 38.2438 131.863 38.2537 130.561C38.2636 129.263 37.5166 128.196 36.5867 128.186H36.5546C35.6246 128.172 34.8653 129.214 34.8554 130.516C34.8456 131.818 35.5925 132.881 36.5199 132.895ZM36.5546 128.875H36.5793H36.5768C37.2323 128.882 37.7591 129.633 37.7541 130.551C37.7492 131.469 37.2125 132.206 36.5571 132.199H36.5299C35.8744 132.189 35.3476 131.437 35.355 130.52C35.3625 129.602 35.8992 128.865 36.5546 128.875Z" fill="black"/>
<path d="M36.5966 128.071C36.7054 128.102 36.8142 128.12 36.9255 128.12C37.7887 128.109 38.5059 127.192 38.5875 125.99C38.6716 124.789 38.0929 123.694 37.2495 123.455C36.5817 123.275 35.9016 123.67 35.5256 124.463C35.1497 125.256 35.1521 126.288 35.5281 127.077C35.7754 127.593 36.1588 127.953 36.5966 128.071ZM36.923 124.103C36.9997 124.103 37.0764 124.117 37.1506 124.137C37.7911 124.318 38.2067 125.18 38.0855 126.077C37.9915 126.735 37.623 127.247 37.153 127.379C36.6831 127.51 36.2033 127.233 35.9362 126.679C35.6938 126.167 35.6715 125.512 35.8768 124.969C36.0846 124.428 36.4877 124.093 36.9254 124.093L36.923 124.103Z" fill="black"/>
<path d="M37.274 123.348C38.1397 123.816 39.1116 123.213 39.4456 122.001C39.7819 120.789 39.3516 119.428 38.486 118.961C37.6203 118.493 36.6459 119.096 36.312 120.308C35.9781 121.52 36.4084 122.881 37.274 123.348ZM36.7744 120.564C36.9525 119.924 37.3903 119.501 37.88 119.501C38.2337 119.498 38.57 119.716 38.7976 120.097C39.0251 120.478 39.1191 120.98 39.0523 121.468C38.988 121.956 38.7703 122.379 38.4612 122.618C38.1496 122.857 37.7786 122.891 37.4496 122.708C36.8437 122.375 36.5419 121.416 36.7744 120.564Z" fill="black"/>
<path d="M63.1966 154.658C62.6822 154.343 62.0911 154.405 61.6187 154.827C61.1438 155.246 60.852 155.97 60.8396 156.756C60.8247 157.542 61.0943 158.283 61.5519 158.733C62.0094 159.187 62.6005 159.287 63.1224 159.007C63.9881 158.533 64.4184 157.172 64.0845 155.96C63.9237 155.378 63.6047 154.907 63.1966 154.658ZM62.9468 158.359C62.4992 158.605 61.9897 158.446 61.6582 157.961C61.3268 157.473 61.2353 156.756 61.4307 156.14C61.6236 155.527 62.0638 155.136 62.5436 155.149C63.0235 155.163 63.4489 155.582 63.6244 156.209C63.8594 157.064 63.5577 158.027 62.9468 158.359Z" fill="black"/>
<path d="M66.0008 152.421C65.1005 152.11 64.1904 152.878 63.9654 154.139C63.7428 155.403 64.2943 156.677 65.1946 156.988C65.3232 157.033 65.4567 157.054 65.5903 157.054C66.4361 157.051 67.1484 156.161 67.2499 154.984C67.3488 153.806 66.8071 152.709 65.986 152.421L66.0008 152.421ZM66.7478 155.101C66.6736 155.531 66.4806 155.898 66.2111 156.123C65.6521 156.597 64.925 156.348 64.5837 155.569C64.3635 155.056 64.3561 154.416 64.5664 153.896C64.7766 153.377 65.1698 153.051 65.5952 153.051C65.6917 153.051 65.7881 153.065 65.8797 153.096C66.5153 153.318 66.9036 154.218 66.7478 155.108L66.7478 155.101Z" fill="black"/>
<path d="M69.632 150.309C69.1843 149.592 68.4745 149.325 67.8314 149.63C67.1884 149.938 66.7382 150.755 66.6937 151.704C66.6492 152.649 67.0152 153.543 67.6237 153.965C68.2321 154.388 68.9617 154.256 69.4737 153.633C69.8101 153.221 70.0154 152.639 70.045 152.016C70.0747 151.393 69.9263 150.776 69.632 150.309ZM69.1497 153.107C68.6551 153.709 67.9057 153.64 67.4753 152.947C67.1711 152.456 67.0994 151.763 67.2923 151.171C67.4828 150.582 67.9032 150.201 68.3657 150.198H68.4473C68.7614 150.222 69.0533 150.42 69.261 150.752C69.4713 151.084 69.5776 151.517 69.5554 151.96C69.5356 152.404 69.3896 152.816 69.1497 153.107Z" fill="black"/>
<path d="M71.7961 146.559C71.2668 145.963 70.5347 145.873 69.9387 146.33C69.3426 146.788 69.0013 147.702 69.0755 148.647C69.1497 149.592 69.6221 150.385 70.275 150.652C70.9254 150.919 71.6279 150.607 72.0533 149.866C72.632 148.855 72.5183 147.376 71.7961 146.559ZM71.6675 149.433C71.3682 149.959 70.8711 150.178 70.4111 149.991C69.9486 149.804 69.6147 149.243 69.5602 148.574C69.5083 147.906 69.7507 147.258 70.1711 146.936C70.594 146.614 71.1134 146.677 71.4869 147.099C71.9964 147.674 72.078 148.716 71.6675 149.433Z" fill="black"/>
<path d="M73.4677 142.338C72.8716 141.881 72.137 141.967 71.6078 142.563C71.076 143.155 70.8534 144.138 71.0439 145.053C71.2318 145.967 71.7957 146.631 72.4709 146.735C73.1461 146.843 73.7991 146.368 74.128 145.534C74.5757 144.395 74.2789 142.965 73.4677 142.338ZM73.6952 145.198C73.4627 145.79 73.0002 146.126 72.5229 146.053C72.0455 145.977 71.6473 145.51 71.5137 144.862C71.3802 144.218 71.536 143.522 71.9119 143.1C72.2879 142.681 72.8073 142.618 73.2277 142.944C73.799 143.387 74.0093 144.395 73.6952 145.198Z" fill="black"/>
<path d="M74.5859 137.777C74.1605 137.559 73.6905 137.59 73.2825 137.863C72.8744 138.137 72.5627 138.629 72.4168 139.228C72.2709 139.827 72.303 140.485 72.5083 141.049C72.7136 141.614 73.0722 142.04 73.5026 142.23C73.6757 142.313 73.8612 142.358 74.0442 142.358C74.6254 142.355 75.1621 141.936 75.4688 141.247C75.7755 140.558 75.8076 139.695 75.5529 138.965C75.3575 138.404 75.0088 137.974 74.5859 137.777ZM75.1671 140.547C75.0236 141.139 74.6576 141.569 74.2174 141.659C73.7771 141.752 73.3369 141.489 73.0772 140.983C72.8175 140.478 72.7829 139.81 72.9857 139.256C73.1909 138.701 73.599 138.352 74.0442 138.355C74.1753 138.355 74.3039 138.386 74.4276 138.442C75.0459 138.74 75.3773 139.681 75.1671 140.547Z" fill="black"/>
<path d="M75.1221 133.016C74.207 132.818 73.3463 133.698 73.2053 134.979C73.0643 136.264 73.6925 137.465 74.6076 137.663C75.0479 137.76 75.498 137.607 75.8567 137.24C76.4057 136.679 76.6604 135.71 76.4997 134.785C76.3389 133.861 75.7948 133.161 75.1221 133.016ZM75.5648 136.679C75.3125 136.942 74.9935 137.05 74.6843 136.981C74.3727 136.911 74.0932 136.672 73.9077 136.319C73.7197 135.963 73.643 135.519 73.695 135.087C73.784 134.276 74.2811 133.681 74.8649 133.677C74.9267 133.677 74.9861 133.688 75.0479 133.701C75.6934 133.843 76.1362 134.688 76.0372 135.596C75.9877 136.028 75.8195 136.42 75.5648 136.679Z" fill="black"/>
<path d="M75.0606 128.189C74.613 128.196 74.1876 128.449 73.8759 128.895C73.5618 129.342 73.3887 129.941 73.3937 130.568C73.4036 131.866 74.1628 132.912 75.0903 132.898H75.1274C76.0549 132.874 76.7944 131.797 76.7746 130.499C76.7573 129.197 75.9881 128.165 75.0606 128.189ZM75.1175 132.199H75.0903C74.4349 132.206 73.8982 131.468 73.8933 130.551C73.8883 129.633 74.4151 128.882 75.0706 128.875H75.0953H75.0928C75.7483 128.864 76.2849 129.602 76.2923 130.519C76.2998 131.437 75.773 132.188 75.1175 132.199Z" fill="black"/>
<path d="M74.3978 123.455C73.5544 123.694 72.9757 124.789 73.0597 125.99C73.1414 127.192 73.8586 128.109 74.7218 128.12C74.8306 128.12 74.9419 128.102 75.0507 128.071C75.4885 127.95 75.8743 127.593 76.1241 127.07C76.3714 126.551 76.4629 125.914 76.3739 125.301C76.1934 124.023 75.3055 123.196 74.3953 123.448L74.3978 123.455ZM75.8892 125.446C75.9807 126.104 75.7779 126.773 75.3797 127.143C74.9815 127.517 74.4621 127.514 74.0639 127.143C73.8018 126.901 73.6212 126.52 73.5619 126.087C73.4852 125.647 73.5396 125.18 73.7127 124.796C73.8883 124.415 74.1653 124.148 74.4844 124.058C74.8035 123.971 75.1324 124.068 75.3995 124.332C75.6642 124.595 75.8397 124.996 75.8892 125.446Z" fill="black"/>
<path d="M73.7696 123.508C73.9724 123.504 74.1728 123.449 74.3632 123.348C75.1744 122.909 75.6147 121.676 75.3748 120.506C75.1349 119.335 74.2989 118.611 73.4432 118.84C72.5899 119.065 71.9988 120.17 72.0829 121.382C72.1695 122.594 72.899 123.515 73.7696 123.508ZM73.3393 119.605C73.4753 119.533 73.6212 119.494 73.7672 119.491C74.336 119.498 74.8233 120.066 74.9271 120.848C75.0334 121.631 74.7268 122.407 74.1975 122.701C73.9007 122.891 73.5594 122.898 73.2577 122.729C72.9534 122.555 72.716 122.216 72.5973 121.79C72.4786 121.361 72.4934 120.886 72.6319 120.474C72.7729 120.059 73.0301 119.747 73.3393 119.605Z" fill="black"/>
<path d="M62.8326 171.972L61.6306 170.289L62.2093 169.479H62.2118C62.2588 169.413 62.286 169.323 62.286 169.233C62.286 169.139 62.2588 169.053 62.2118 168.987L55.999 160.285C55.9025 160.154 55.7492 160.154 55.6503 160.285L49.4374 168.987C49.3904 169.053 49.3632 169.139 49.3632 169.233C49.3632 169.323 49.3904 169.413 49.4374 169.479L50.031 170.31L48.8215 171.986C48.1513 172.921 47.7803 174.195 47.7853 175.521C47.7778 176.847 48.1513 178.122 48.8191 179.06C49.4893 179.999 50.3995 180.521 51.3468 180.508C52.294 180.518 53.2042 179.998 53.8769 179.064L55.8407 176.338L57.7872 179.067V179.064C58.4648 179.988 59.37 180.508 60.3148 180.508C61.2621 180.518 62.1723 179.995 62.8425 179.057C64.2152 177.09 64.2152 173.949 62.8425 171.982L62.8326 171.972ZM55.8236 161.009L61.6852 169.219L61.1064 170.033L60.5252 170.847L56.0091 164.524H56.0066C55.9621 164.458 55.9002 164.42 55.8334 164.423C55.7667 164.42 55.7048 164.458 55.6578 164.524L51.1219 170.847L50.5431 170.04L49.9495 169.209L55.8236 161.009ZM51.2876 171.598H51.3024L52.0518 170.559L55.831 165.268L60.3496 171.591L61.7223 173.513V173.516C62.4965 174.628 62.4965 176.401 61.7223 177.512C60.9136 178.551 59.6695 178.541 58.8731 177.484L56.0214 173.475C55.9745 173.409 55.9126 173.371 55.8458 173.371C55.7815 173.374 55.7172 173.409 55.6702 173.471L52.7741 177.488C51.9703 178.544 50.7188 178.544 49.915 177.488C49.5539 176.955 49.3511 176.248 49.3486 175.511C49.3461 174.766 49.5514 174.053 49.9249 173.523L51.2876 171.598ZM62.4843 178.551C61.9055 179.354 61.1215 179.805 60.3078 179.798C59.4941 179.794 58.7126 179.347 58.1313 178.551L56.0117 175.583V175.587C55.9647 175.518 55.9029 175.483 55.8361 175.483C55.7718 175.483 55.7075 175.521 55.6605 175.583L53.5187 178.554L53.5212 178.551C52.9424 179.358 52.1584 179.805 51.3447 179.798C50.5285 179.808 49.7421 179.358 49.1658 178.551C48.5895 177.741 48.2679 176.643 48.2779 175.5C48.2705 174.358 48.5895 173.26 49.1658 172.453L50.3777 170.774L50.7734 171.328L49.569 173.007H49.5665C49.099 173.669 48.8394 174.565 48.8443 175.5C48.8369 176.428 49.0966 177.325 49.5665 177.983C50.0364 178.641 50.6745 179.005 51.3373 178.994C52.0051 179.001 52.6482 178.638 53.1181 177.976L55.8412 174.202L58.5271 177.966L58.5296 177.969C59.0045 178.62 59.6426 178.987 60.3104 178.994C60.9707 179.001 61.6064 178.641 62.0763 177.987C63.0408 176.605 63.0408 174.399 62.0763 173.018L60.8743 171.335L61.2799 170.767L62.4819 172.45C63.6691 174.15 63.6691 176.861 62.4869 178.565L62.4843 178.551Z" fill="black"/>
</g>
<path fill-rule="evenodd" clip-rule="evenodd" d="M22.8822 115.601C22.8967 115.674 22.9045 115.751 22.9045 115.831C22.9045 115.891 22.9 115.949 22.8919 116.005C23.4685 115.824 24.0972 116.051 24.5454 116.686C25.1077 117.482 25.2167 118.678 24.8727 119.629H25.845C26.8314 119.629 27.6322 120.764 27.6322 122.161C27.6322 123.197 27.1921 124.088 26.5623 124.48V125.403C26.8228 125.514 27.0132 125.856 27.0132 126.261C27.0132 126.644 26.8433 126.97 26.605 127.098C26.7319 127.879 27.0941 130.136 27.0941 130.482C27.0941 131.04 26.7746 131.492 26.3809 131.492C25.9871 131.492 25.6676 131.04 25.6676 130.482C25.6676 130.136 26.0302 127.879 26.1571 127.098C25.9185 126.97 25.7489 126.644 25.7489 126.261C25.7489 125.861 25.9348 125.522 26.1912 125.407V124.644C26.0792 124.676 25.9634 124.692 25.845 124.692H24.8727C25.2167 125.643 25.1077 126.84 24.5454 127.636C24.1001 128.266 23.4778 128.494 22.9045 128.32C22.9045 128.324 22.9045 128.327 22.9045 128.331C22.9045 128.714 22.7263 129.039 22.481 129.148V130.04C22.7419 130.15 22.9319 130.493 22.9319 130.897C22.9319 131.28 22.7623 131.606 22.5237 131.735C22.6506 132.515 23.0132 134.773 23.0132 135.119C23.0132 135.676 22.6933 136.129 22.3 136.129C21.9062 136.129 21.5867 135.676 21.5867 135.119C21.5867 134.773 21.9489 132.515 22.0758 131.735C21.8376 131.606 21.6676 131.28 21.6676 130.897C21.6676 130.497 21.8539 130.158 22.11 130.043V129.144C21.8691 129.032 21.6951 128.71 21.6951 128.331C21.6951 128.327 21.6951 128.324 21.6954 128.32C21.1217 128.494 20.4994 128.266 20.0541 127.636C19.4919 126.84 19.3828 125.643 19.7268 124.692H18.7872C18.6514 124.692 18.5189 124.671 18.3916 124.63V125.403C18.6521 125.514 18.8421 125.856 18.8421 126.261C18.8421 126.644 18.6725 126.97 18.4343 127.098C18.5612 127.879 18.9234 130.136 18.9234 130.482C18.9234 131.04 18.6039 131.492 18.2101 131.492C17.8164 131.492 17.4969 131.04 17.4969 130.482C17.4969 130.136 17.8591 127.879 17.9864 127.098C17.7478 126.97 17.5782 126.644 17.5782 126.261C17.5782 125.861 17.7641 125.522 18.0205 125.407V124.447C17.4171 124.041 17 123.169 17 122.161C17 120.764 17.8008 119.629 18.7872 119.629H19.7268C19.3828 118.678 19.4919 117.482 20.0541 116.686C20.5028 116.051 21.131 115.824 21.7077 116.005C21.6995 115.949 21.6951 115.891 21.6951 115.831C21.6951 115.751 21.7029 115.674 21.7173 115.601C21.6509 115.507 21.5878 115.394 21.5296 115.262C21.3214 114.79 21.1715 114.035 21.1715 113.175C21.1715 112.316 21.3214 111.56 21.5296 111.088C21.7407 110.61 22.0183 110.377 22.3 110.377C22.5812 110.377 22.8588 110.61 23.07 111.088C23.2785 111.56 23.4281 112.316 23.4281 113.175C23.4281 114.035 23.2785 114.79 23.07 115.262C23.0121 115.394 22.949 115.507 22.8822 115.601ZM22.3 132.694C22.1486 133.635 21.9578 134.873 21.9578 135.119C21.9578 135.386 22.1111 135.603 22.3 135.603C22.4885 135.603 22.6421 135.386 22.6421 135.119C22.6421 134.873 22.451 133.635 22.3 132.694ZM22.3 130.528C22.156 130.528 22.0387 130.693 22.0387 130.897C22.0387 131.101 22.156 131.267 22.3 131.267C22.4439 131.267 22.5608 131.101 22.5608 130.897C22.5608 130.693 22.4439 130.528 22.3 130.528ZM26.3809 128.058C26.2298 128.999 26.0387 130.237 26.0387 130.482C26.0387 130.75 26.192 130.967 26.3809 130.967C26.5698 130.967 26.723 130.75 26.723 130.482C26.723 130.237 26.5319 128.999 26.3809 128.058ZM18.2101 128.058C18.0591 128.999 17.868 130.237 17.868 130.482C17.868 130.75 18.0212 130.967 18.2101 130.967C18.399 130.967 18.5523 130.75 18.5523 130.482C18.5523 130.237 18.3612 128.999 18.2101 128.058ZM22.2465 128.009C22.2636 128.004 22.2814 128.001 22.3 128.001C22.3181 128.001 22.336 128.004 22.353 128.009C22.3901 128.041 22.4272 128.07 22.4655 128.098C22.5074 128.158 22.5334 128.24 22.5334 128.331C22.5334 128.514 22.4287 128.662 22.3 128.662C22.1708 128.662 22.0662 128.514 22.0662 128.331C22.0662 128.24 22.0921 128.158 22.1341 128.098C22.1723 128.07 22.2098 128.041 22.2465 128.009ZM21.9274 127.657C21.4015 128.012 20.7517 127.881 20.3165 127.264C19.8092 126.545 19.7672 125.415 20.1918 124.629C20.2482 124.525 20.2415 124.377 20.1758 124.283L20.1472 124.243C20.1124 124.194 20.0652 124.167 20.0162 124.167H18.7872C18.0057 124.167 17.3711 123.267 17.3711 122.161C17.3711 121.054 18.0057 120.155 18.7872 120.155H20.0162C20.0652 120.155 20.1124 120.127 20.1472 120.078L20.1758 120.038C20.2415 119.944 20.2482 119.797 20.1918 119.692C19.7672 118.906 19.8092 117.776 20.3165 117.058C20.8267 116.335 21.6305 116.279 22.186 116.89C22.2528 116.964 22.3467 116.964 22.4135 116.89C22.969 116.279 23.7728 116.335 24.2831 117.058C24.7907 117.776 24.8323 118.906 24.4078 119.692C24.3514 119.797 24.3584 119.944 24.4241 120.038L24.4523 120.078C24.4872 120.127 24.5343 120.155 24.5837 120.155H25.845C26.6265 120.155 27.2611 121.054 27.2611 122.161C27.2611 123.267 26.6265 124.167 25.845 124.167H24.5837C24.5343 124.167 24.4872 124.194 24.4523 124.243L24.4241 124.283C24.3584 124.377 24.3514 124.525 24.4078 124.629C24.8323 125.415 24.7907 126.545 24.2831 127.264C23.8478 127.881 23.1984 128.012 22.6722 127.657C22.6235 127.603 22.569 127.56 22.5104 127.529C22.4773 127.498 22.445 127.466 22.4135 127.431C22.3467 127.357 22.2528 127.357 22.186 127.431C22.1545 127.466 22.1222 127.498 22.0892 127.529C22.0305 127.56 21.976 127.603 21.9274 127.657ZM23.765 125.217C23.807 125.157 23.8667 125.13 23.9253 125.143C23.984 125.156 24.0344 125.208 24.0615 125.283C24.2289 125.749 24.1751 126.333 23.9005 126.722C23.6259 127.111 23.2132 127.187 22.8848 126.951C22.8317 126.912 22.795 126.84 22.7853 126.757C22.7761 126.674 22.7957 126.59 22.8377 126.53L23.765 125.217ZM20.538 125.283C20.5651 125.208 20.6156 125.156 20.6746 125.143C20.7332 125.13 20.7926 125.157 20.8345 125.217L21.7622 126.53C21.8042 126.59 21.8235 126.674 21.8142 126.757C21.8049 126.84 21.7678 126.912 21.7151 126.951C21.3863 127.187 20.974 127.111 20.6994 126.722C20.4244 126.333 20.3706 125.749 20.538 125.283ZM26.3809 125.892C26.2369 125.892 26.12 126.057 26.12 126.261C26.12 126.465 26.2369 126.631 26.3809 126.631C26.5249 126.631 26.6421 126.465 26.6421 126.261C26.6421 126.057 26.5249 125.892 26.3809 125.892ZM18.2101 125.892C18.0661 125.892 17.9493 126.057 17.9493 126.261C17.9493 126.465 18.0661 126.631 18.2101 126.631C18.3541 126.631 18.471 126.465 18.471 126.261C18.471 126.057 18.3541 125.892 18.2101 125.892ZM20.8182 125.937C20.8319 126.088 20.8798 126.234 20.9618 126.35C21.0434 126.466 21.147 126.534 21.2538 126.554C21.2535 126.554 20.8182 125.937 20.8182 125.937ZM23.7814 125.937L23.3461 126.554C23.4526 126.534 23.5561 126.466 23.6381 126.35C23.7201 126.234 23.7676 126.088 23.7814 125.937ZM22.3 126.099C22.2506 126.099 22.2035 126.071 22.1686 126.022L21.1934 124.641C21.121 124.538 21.121 124.372 21.1934 124.27L22.1686 122.889C22.241 122.786 22.3586 122.786 22.4309 122.889L23.4062 124.27C23.4785 124.372 23.4785 124.538 23.4062 124.641L22.4309 126.022C22.3961 126.071 22.3489 126.099 22.3 126.099ZM22.3 125.465L23.0125 124.455L22.3 123.446L21.5871 124.455L22.3 125.465ZM25.026 122.347H25.0264L25.0197 122.356C25.0219 122.352 25.0242 122.35 25.0264 122.347L24.0511 123.727C23.9788 123.83 23.8611 123.83 23.7888 123.727L22.8139 122.347C22.7412 122.244 22.7412 122.078 22.8139 121.975L23.7888 120.594C23.8611 120.492 23.9788 120.492 24.0511 120.594L25.0264 121.975C25.0794 122.05 25.0954 122.163 25.0665 122.261C25.0568 122.294 25.0431 122.323 25.026 122.347ZM21.786 121.975C21.8584 122.078 21.8584 122.244 21.786 122.347L20.8108 123.727C20.7384 123.83 20.6208 123.83 20.5484 123.727L19.5732 122.347C19.5008 122.244 19.5008 122.078 19.5732 121.975L20.5484 120.594C20.6208 120.492 20.7384 120.492 20.8108 120.594L21.786 121.975ZM18.8681 121.889C18.7623 122.039 18.7623 122.282 18.8681 122.432L18.7393 122.871H18.7397L18.8688 122.433L18.8681 122.432L19.2351 122.951C19.2882 123.027 19.3037 123.14 19.2752 123.238C19.2466 123.336 19.1787 123.4 19.1037 123.4H18.7872C18.3044 123.4 17.9121 122.845 17.9121 122.161C17.9121 121.477 18.3044 120.921 18.7872 120.921H19.1037C19.1787 120.921 19.2466 120.986 19.2752 121.084C19.3037 121.182 19.2882 121.295 19.2351 121.37L18.8681 121.889ZM25.3648 122.951L25.7315 122.432C25.8372 122.282 25.8372 122.039 25.7315 121.889L25.3648 121.37C25.3117 121.295 25.2958 121.182 25.3244 121.084C25.3533 120.986 25.4209 120.921 25.4958 120.921H25.845C26.3278 120.921 26.7201 121.477 26.7201 122.161C26.7201 122.845 26.3278 123.4 25.845 123.4H25.4958C25.4209 123.4 25.3533 123.336 25.3244 123.238C25.2958 123.14 25.3117 123.027 25.3648 122.951ZM24.6326 122.161L23.9202 121.152L23.2073 122.161L23.9202 123.17L24.6326 122.161ZM21.3923 122.161L20.6798 121.152L19.9669 122.161L20.6798 123.17L21.3923 122.161ZM18.7386 122.871C18.7512 122.803 18.8306 122.386 18.8681 122.432L18.7367 122.88L18.7393 122.871H18.7386ZM25.9563 121.464C26.1808 121.536 26.349 121.821 26.349 122.161C26.349 122.5 26.1808 122.785 25.9563 122.857L25.9938 122.803L25.9949 122.802C26.2447 122.447 26.2443 121.873 25.9938 121.518L25.9563 121.464ZM18.6309 121.482L18.6057 121.518C18.3552 121.873 18.3549 122.447 18.605 122.802L18.6057 122.803L18.6309 122.839C18.4294 122.746 18.2832 122.478 18.2832 122.161C18.2832 121.844 18.4294 121.575 18.6309 121.482ZM24.764 122.347C24.7811 122.371 24.8015 122.39 24.8238 122.403C24.8457 122.417 24.8702 122.423 24.895 122.423L24.764 122.347ZM24.9225 122.42C24.9206 122.421 24.9188 122.421 24.9165 122.422C24.9147 122.422 24.9125 122.422 24.9106 122.422L24.9225 122.42ZM24.9314 122.418L24.9236 122.42L24.9347 122.418L24.9314 122.418ZM24.9492 122.412C24.9473 122.413 24.9455 122.413 24.9436 122.414C24.9418 122.415 24.9399 122.416 24.9377 122.417L24.9492 122.412ZM24.9577 122.408L24.9507 122.411L24.9607 122.407L24.9577 122.408ZM24.9744 122.398C24.9729 122.399 24.9711 122.4 24.9692 122.401C24.9674 122.403 24.9655 122.404 24.9637 122.405L24.9744 122.398ZM24.9826 122.392L24.9755 122.398L24.9852 122.39L24.9826 122.392ZM24.9982 122.379C24.9963 122.381 24.9948 122.382 24.993 122.384C24.9915 122.385 24.9896 122.387 24.9878 122.388L24.9982 122.379ZM25.0056 122.372L24.9986 122.379L25.0078 122.369L25.0056 122.372ZM25.0126 122.364L25.0104 122.367L25.019 122.356L25.0126 122.364ZM23.4062 119.681C23.4785 119.783 23.4785 119.949 23.4062 120.052L22.4309 121.433C22.3586 121.535 22.241 121.535 22.1686 121.433L21.1934 120.052C21.121 119.949 21.121 119.783 21.1934 119.681L22.1686 118.299C22.241 118.197 22.3586 118.197 22.4309 118.299L23.4062 119.681ZM23.0125 119.866L22.3 118.857L21.5871 119.866L22.3 120.875L23.0125 119.866ZM22.8377 117.791C22.7957 117.732 22.7761 117.647 22.7853 117.564C22.795 117.481 22.8317 117.409 22.8848 117.371C23.2132 117.134 23.6259 117.211 23.9005 117.599C24.1751 117.988 24.2289 118.573 24.0615 119.038C24.0344 119.113 23.984 119.165 23.9253 119.178C23.8667 119.191 23.807 119.164 23.765 119.105L22.8377 117.791ZM20.8345 119.105C20.7926 119.164 20.7332 119.191 20.6746 119.178C20.6156 119.165 20.5651 119.113 20.538 119.038C20.3706 118.573 20.4244 117.988 20.6994 117.599C20.974 117.211 21.3863 117.134 21.7151 117.371C21.7678 117.409 21.8049 117.481 21.8142 117.564C21.8235 117.647 21.8042 117.732 21.7622 117.791L20.8345 119.105ZM20.8182 118.385L21.2535 117.768C21.147 117.787 21.0434 117.855 20.9618 117.971C20.8798 118.087 20.8319 118.233 20.8182 118.385ZM23.3461 117.768L23.7814 118.385C23.7676 118.233 23.7201 118.087 23.6381 117.971C23.5561 117.855 23.4526 117.787 23.3461 117.768ZM22.3 115.5C22.1708 115.5 22.0662 115.649 22.0662 115.831C22.0662 116.013 22.1708 116.162 22.3 116.162C22.4287 116.162 22.5334 116.013 22.5334 115.831C22.5334 115.649 22.4287 115.5 22.3 115.5ZM21.9303 115.153C21.9007 115.103 21.8717 115.046 21.8443 114.984C21.6639 114.575 21.5426 113.918 21.5426 113.175C21.5426 112.432 21.6639 111.775 21.8443 111.367C21.973 111.075 22.1281 110.902 22.3 110.902C22.4714 110.902 22.6265 111.075 22.7553 111.367C22.9356 111.775 23.057 112.432 23.057 113.175C23.057 113.918 22.9356 114.575 22.7553 114.984C22.7278 115.046 22.6993 115.103 22.6692 115.153C22.5671 115.041 22.4387 114.975 22.3 114.975C22.1608 114.975 22.0328 115.041 21.9303 115.153ZM22.3 111.5C22.3805 111.5 22.4547 111.546 22.5193 111.64C22.5705 111.714 22.6172 111.829 22.6592 111.959C22.7597 112.27 22.8199 112.701 22.8199 113.175C22.8199 113.649 22.7597 114.08 22.6592 114.391C22.6172 114.521 22.5705 114.636 22.5193 114.71C22.4547 114.804 22.3805 114.85 22.3 114.85C22.2194 114.85 22.1448 114.804 22.0803 114.71C22.0294 114.636 21.9827 114.521 21.9407 114.391C21.8398 114.08 21.7797 113.649 21.7797 113.175C21.7797 112.701 21.8398 112.27 21.9407 111.959C21.9827 111.829 22.0294 111.714 22.0803 111.64C22.1448 111.546 22.2194 111.5 22.3 111.5ZM22.3 112.117C22.2918 112.138 22.284 112.159 22.2781 112.177C22.1957 112.432 22.1508 112.786 22.1508 113.175C22.1508 113.564 22.1957 113.918 22.2781 114.173C22.284 114.191 22.2918 114.212 22.3 114.233C22.3078 114.212 22.3155 114.191 22.3215 114.173C22.4042 113.918 22.4488 113.564 22.4488 113.175C22.4488 112.786 22.4042 112.432 22.3215 112.177C22.3155 112.159 22.3078 112.138 22.3 112.117Z" fill="black"/>
<path fill-rule="evenodd" clip-rule="evenodd" d="M91.0859 115.252C91.1004 115.325 91.1082 115.402 91.1082 115.481C91.1082 115.541 91.1038 115.6 91.0956 115.656C91.6723 115.474 92.3009 115.701 92.7492 116.336C93.3114 117.132 93.4205 118.328 93.0765 119.28H94.0487C95.0351 119.28 95.8359 120.414 95.8359 121.811C95.8359 122.847 95.3958 123.738 94.7661 124.13V125.054C95.0266 125.165 95.217 125.507 95.217 125.912C95.217 126.294 95.047 126.621 94.8088 126.749C94.9357 127.529 95.2979 129.787 95.2979 130.133C95.2979 130.69 94.9783 131.143 94.5846 131.143C94.1909 131.143 93.8714 130.69 93.8714 130.133C93.8714 129.787 94.2339 127.529 94.3608 126.749C94.1222 126.621 93.9526 126.294 93.9526 125.912C93.9526 125.511 94.1386 125.172 94.395 125.057V124.295C94.2829 124.326 94.1671 124.343 94.0487 124.343H93.0765C93.4205 125.294 93.3114 126.49 92.7492 127.286C92.3039 127.917 91.6815 128.145 91.1082 127.971C91.1082 127.974 91.1082 127.978 91.1082 127.982C91.1082 128.365 90.9301 128.69 90.6848 128.799V129.69C90.9457 129.801 91.1357 130.143 91.1357 130.548C91.1357 130.93 90.9661 131.257 90.7275 131.385C90.8544 132.166 91.2169 134.423 91.2169 134.769C91.2169 135.327 90.8971 135.779 90.5037 135.779C90.11 135.779 89.7904 135.327 89.7904 134.769C89.7904 134.423 90.1526 132.166 90.2796 131.385C90.0413 131.257 89.8713 130.93 89.8713 130.548C89.8713 130.147 90.0576 129.808 90.3137 129.694V128.795C90.0728 128.682 89.8988 128.361 89.8988 127.982C89.8988 127.978 89.8988 127.974 89.8992 127.971C89.3255 128.145 88.7031 127.917 88.2578 127.286C87.6956 126.49 87.5865 125.294 87.9305 124.343H86.9909C86.8551 124.343 86.7226 124.321 86.5953 124.28V125.054C86.8558 125.165 87.0458 125.507 87.0458 125.912C87.0458 126.294 86.8762 126.621 86.638 126.749C86.7649 127.529 87.1271 129.787 87.1271 130.133C87.1271 130.69 86.8076 131.143 86.4139 131.143C86.0201 131.143 85.7006 130.69 85.7006 130.133C85.7006 129.787 86.0628 127.529 86.1901 126.749C85.9515 126.621 85.7819 126.294 85.7819 125.912C85.7819 125.511 85.9678 125.172 86.2242 125.057V124.098C85.6208 123.691 85.2037 122.82 85.2037 121.811C85.2037 120.414 86.0045 119.28 86.9909 119.28H87.9305C87.5865 118.328 87.6956 117.132 88.2578 116.336C88.7065 115.701 89.3347 115.474 89.9114 115.656C89.9033 115.6 89.8988 115.541 89.8988 115.481C89.8988 115.402 89.9066 115.325 89.9211 115.252C89.8546 115.157 89.7916 115.044 89.7333 114.913C89.5251 114.44 89.3752 113.685 89.3752 112.826C89.3752 111.966 89.5251 111.211 89.7333 110.738C89.9445 110.261 90.222 110.027 90.5037 110.027C90.785 110.027 91.0626 110.261 91.2737 110.738C91.4823 111.211 91.6318 111.966 91.6318 112.826C91.6318 113.685 91.4823 114.44 91.2737 114.913C91.2158 115.044 91.1527 115.157 91.0859 115.252ZM90.5037 132.345C90.3523 133.285 90.1615 134.524 90.1615 134.769C90.1615 135.037 90.3148 135.254 90.5037 135.254C90.6922 135.254 90.8458 135.037 90.8458 134.769C90.8458 134.524 90.6547 133.285 90.5037 132.345ZM90.5037 130.178C90.3597 130.178 90.2424 130.344 90.2424 130.548C90.2424 130.752 90.3597 130.917 90.5037 130.917C90.6477 130.917 90.7646 130.752 90.7646 130.548C90.7646 130.344 90.6477 130.178 90.5037 130.178ZM94.5846 127.708C94.4336 128.649 94.2425 129.887 94.2425 130.133C94.2425 130.4 94.3957 130.617 94.5846 130.617C94.7735 130.617 94.9268 130.4 94.9268 130.133C94.9268 129.887 94.7356 128.649 94.5846 127.708ZM86.4139 127.708C86.2628 128.649 86.0717 129.887 86.0717 130.133C86.0717 130.4 86.225 130.617 86.4139 130.617C86.6027 130.617 86.756 130.4 86.756 130.133C86.756 129.887 86.5649 128.649 86.4139 127.708ZM90.4502 127.66C90.4673 127.654 90.4851 127.651 90.5037 127.651C90.5219 127.651 90.5397 127.654 90.5568 127.66C90.5939 127.692 90.631 127.721 90.6692 127.749C90.7111 127.809 90.7371 127.891 90.7371 127.982C90.7371 128.165 90.6325 128.313 90.5037 128.313C90.3746 128.313 90.2699 128.165 90.2699 127.982C90.2699 127.891 90.2959 127.809 90.3378 127.749C90.376 127.721 90.4135 127.692 90.4502 127.66ZM90.1311 127.307C89.6053 127.662 88.9555 127.531 88.5202 126.915C88.0129 126.196 87.971 125.065 88.3955 124.28C88.4519 124.175 88.4452 124.027 88.3796 123.934L88.351 123.894C88.3161 123.845 88.269 123.817 88.22 123.817H86.9909C86.2094 123.817 85.5748 122.918 85.5748 121.811C85.5748 120.704 86.2094 119.805 86.9909 119.805H88.22C88.269 119.805 88.3161 119.778 88.351 119.728L88.3796 119.689C88.4452 119.595 88.4519 119.447 88.3955 119.343C87.971 118.557 88.0129 117.427 88.5202 116.708C89.0304 115.985 89.8342 115.93 90.3898 116.541C90.4566 116.615 90.5504 116.615 90.6172 116.541C91.1728 115.93 91.9766 115.985 92.4868 116.708C92.9945 117.427 93.036 118.557 92.6115 119.343C92.5551 119.447 92.5622 119.595 92.6278 119.689L92.656 119.728C92.6909 119.778 92.738 119.805 92.7874 119.805H94.0487C94.8303 119.805 95.4648 120.704 95.4648 121.811C95.4648 122.918 94.8303 123.817 94.0487 123.817H92.7874C92.738 123.817 92.6909 123.845 92.656 123.894L92.6278 123.934C92.5622 124.027 92.5551 124.175 92.6115 124.28C93.036 125.065 92.9945 126.196 92.4868 126.915C92.0515 127.531 91.4021 127.662 90.8759 127.307C90.8273 127.254 90.7727 127.21 90.7141 127.179C90.6811 127.149 90.6488 127.116 90.6172 127.081C90.5504 127.008 90.4566 127.008 90.3898 127.081C90.3582 127.116 90.3259 127.149 90.2929 127.179C90.2343 127.21 90.1797 127.253 90.1311 127.307ZM91.9688 124.867C92.0107 124.808 92.0704 124.781 92.1291 124.794C92.1877 124.807 92.2382 124.859 92.2653 124.934C92.4326 125.399 92.3788 125.984 92.1042 126.372C91.8296 126.761 91.417 126.838 91.0885 126.601C91.0355 126.563 90.9987 126.491 90.9891 126.408C90.9798 126.325 90.9995 126.241 91.0414 126.181L91.9688 124.867ZM88.7417 124.934C88.7688 124.859 88.8193 124.807 88.8783 124.794C88.9369 124.781 88.9963 124.808 89.0382 124.867L89.966 126.181C90.0079 126.241 90.0272 126.325 90.0179 126.408C90.0087 126.491 89.9715 126.563 89.9188 126.601C89.5901 126.838 89.1778 126.761 88.9032 126.372C88.6282 125.984 88.5744 125.399 88.7417 124.934ZM94.5846 125.542C94.4406 125.542 94.3237 125.708 94.3237 125.912C94.3237 126.115 94.4406 126.281 94.5846 126.281C94.7286 126.281 94.8459 126.115 94.8459 125.912C94.8459 125.708 94.7286 125.542 94.5846 125.542ZM86.4139 125.542C86.2699 125.542 86.153 125.708 86.153 125.912C86.153 126.115 86.2699 126.281 86.4139 126.281C86.5578 126.281 86.6747 126.115 86.6747 125.912C86.6747 125.708 86.5578 125.542 86.4139 125.542ZM89.0219 125.587C89.0356 125.739 89.0835 125.885 89.1655 126.001C89.2472 126.117 89.3507 126.185 89.4576 126.204C89.4572 126.204 89.0219 125.587 89.0219 125.587ZM91.9851 125.587L91.5498 126.204C91.6563 126.185 91.7598 126.117 91.8419 126.001C91.9239 125.885 91.9714 125.739 91.9851 125.587ZM90.5037 125.75C90.4543 125.75 90.4072 125.722 90.3723 125.672L89.3971 124.292C89.3247 124.189 89.3247 124.023 89.3971 123.92L90.3723 122.539C90.4447 122.437 90.5623 122.437 90.6347 122.539L91.6099 123.92C91.6823 124.023 91.6823 124.189 91.6099 124.292L90.6347 125.672C90.5998 125.722 90.5527 125.75 90.5037 125.75ZM90.5037 125.115L91.2162 124.106L90.5037 123.097L89.7908 124.106L90.5037 125.115ZM93.2297 121.997H93.2301L93.2234 122.006C93.2257 122.003 93.2279 122 93.2301 121.997L92.2549 123.378C92.1825 123.481 92.0649 123.481 91.9925 123.378L91.0177 121.997C90.9449 121.894 90.9449 121.728 91.0177 121.625L91.9925 120.245C92.0649 120.142 92.1825 120.142 92.2549 120.245L93.2301 121.625C93.2832 121.701 93.2991 121.814 93.2702 121.912C93.2605 121.945 93.2468 121.973 93.2297 121.997ZM89.9897 121.625C90.0621 121.728 90.0621 121.894 89.9897 121.997L89.0145 123.378C88.9421 123.481 88.8245 123.481 88.7521 123.378L87.7769 121.997C87.7045 121.894 87.7045 121.728 87.7769 121.625L88.7521 120.245C88.8245 120.142 88.9421 120.142 89.0145 120.245L89.9897 121.625ZM87.0718 121.54C86.9661 121.69 86.9661 121.933 87.0718 122.082L86.943 122.522H86.9434L87.0726 122.083L87.0718 122.082L87.4388 122.602C87.4919 122.677 87.5075 122.79 87.4789 122.888C87.4503 122.986 87.3824 123.05 87.3075 123.05H86.9909C86.5081 123.05 86.1159 122.495 86.1159 121.811C86.1159 121.127 86.5081 120.572 86.9909 120.572H87.3075C87.3824 120.572 87.4503 120.636 87.4789 120.734C87.5075 120.833 87.4919 120.946 87.4388 121.021L87.0718 121.54ZM93.5686 122.602L93.9352 122.082C94.041 121.933 94.041 121.69 93.9352 121.54L93.5686 121.021C93.5155 120.946 93.4995 120.833 93.5281 120.734C93.5571 120.636 93.6246 120.572 93.6995 120.572H94.0487C94.5315 120.572 94.9238 121.127 94.9238 121.811C94.9238 122.495 94.5315 123.05 94.0487 123.05H93.6995C93.6246 123.05 93.5571 122.986 93.5281 122.888C93.4995 122.79 93.5155 122.677 93.5686 122.602ZM92.8364 121.811L92.1239 120.802L91.411 121.811L92.1239 122.821L92.8364 121.811ZM89.596 121.811L88.8835 120.802L88.1706 121.811L88.8835 122.821L89.596 121.811ZM86.9423 122.522C86.9549 122.454 87.0343 122.037 87.0718 122.082L86.9405 122.531L86.943 122.522H86.9423ZM94.1601 121.115C94.3846 121.187 94.5527 121.472 94.5527 121.811C94.5527 122.151 94.3846 122.436 94.1601 122.508L94.1976 122.454L94.1987 122.453C94.4484 122.098 94.448 121.523 94.1976 121.168L94.1601 121.115ZM86.8347 121.133L86.8095 121.168C86.559 121.523 86.5586 122.098 86.8087 122.453L86.8095 122.454L86.8347 122.49C86.6332 122.397 86.487 122.128 86.487 121.811C86.487 121.495 86.6332 121.226 86.8347 121.133ZM92.9678 121.997C92.9848 122.021 93.0052 122.04 93.0275 122.053C93.0494 122.067 93.0739 122.074 93.0987 122.074L92.9678 121.997ZM93.1262 122.071C93.1244 122.071 93.1225 122.072 93.1203 122.072C93.1184 122.072 93.1162 122.073 93.1143 122.073L93.1262 122.071ZM93.1351 122.069L93.1273 122.071L93.1385 122.068L93.1351 122.069ZM93.1529 122.062C93.1511 122.063 93.1492 122.064 93.1474 122.065C93.1455 122.066 93.1436 122.066 93.1414 122.067L93.1529 122.062ZM93.1615 122.059L93.1544 122.062L93.1644 122.057L93.1615 122.059ZM93.1782 122.049C93.1767 122.05 93.1748 122.051 93.173 122.052C93.1711 122.053 93.1693 122.055 93.1674 122.056L93.1782 122.049ZM93.1863 122.043L93.1793 122.048L93.1889 122.041L93.1863 122.043ZM93.2019 122.03C93.2001 122.031 93.1986 122.033 93.1967 122.035C93.1952 122.036 93.1934 122.037 93.1915 122.039L93.2019 122.03ZM93.2093 122.022L93.2023 122.029L93.2116 122.02L93.2093 122.022ZM93.2164 122.015L93.2142 122.017L93.2227 122.007L93.2164 122.015ZM91.6099 119.331C91.6823 119.434 91.6823 119.6 91.6099 119.703L90.6347 121.083C90.5623 121.186 90.4447 121.186 90.3723 121.083L89.3971 119.703C89.3247 119.6 89.3247 119.434 89.3971 119.331L90.3723 117.95C90.4447 117.848 90.5623 117.848 90.6347 117.95L91.6099 119.331ZM91.2162 119.517L90.5037 118.508L89.7908 119.517L90.5037 120.526L91.2162 119.517ZM91.0414 117.442C90.9995 117.382 90.9798 117.298 90.9891 117.215C90.9987 117.132 91.0355 117.06 91.0885 117.022C91.417 116.785 91.8296 116.861 92.1042 117.25C92.3788 117.639 92.4326 118.223 92.2653 118.688C92.2382 118.764 92.1877 118.816 92.1291 118.829C92.0704 118.842 92.0107 118.815 91.9688 118.755L91.0414 117.442ZM89.0382 118.755C88.9963 118.815 88.9369 118.842 88.8783 118.829C88.8193 118.816 88.7688 118.764 88.7417 118.688C88.5744 118.223 88.6282 117.639 88.9032 117.25C89.1778 116.861 89.5901 116.785 89.9188 117.022C89.9715 117.06 90.0087 117.132 90.0179 117.215C90.0272 117.298 90.0079 117.382 89.966 117.442L89.0382 118.755ZM89.0219 118.035L89.4572 117.419C89.3507 117.438 89.2472 117.505 89.1655 117.622C89.0835 117.738 89.0356 117.884 89.0219 118.035ZM91.5498 117.419L91.9851 118.035C91.9714 117.884 91.9239 117.738 91.8419 117.622C91.7598 117.505 91.6563 117.438 91.5498 117.419ZM90.5037 115.151C90.3746 115.151 90.2699 115.299 90.2699 115.481C90.2699 115.664 90.3746 115.812 90.5037 115.812C90.6325 115.812 90.7371 115.664 90.7371 115.481C90.7371 115.299 90.6325 115.151 90.5037 115.151ZM90.1341 114.804C90.1044 114.753 90.0755 114.696 90.048 114.634C89.8676 114.225 89.7463 113.569 89.7463 112.826C89.7463 112.082 89.8676 111.426 90.048 111.017C90.1768 110.725 90.3319 110.553 90.5037 110.553C90.6751 110.553 90.8303 110.725 90.959 111.017C91.1394 111.426 91.2607 112.082 91.2607 112.826C91.2607 113.569 91.1394 114.225 90.959 114.634C90.9316 114.696 90.903 114.753 90.8729 114.804C90.7709 114.692 90.6425 114.625 90.5037 114.625C90.3645 114.625 90.2365 114.692 90.1341 114.804ZM90.5037 111.151C90.5842 111.151 90.6584 111.197 90.723 111.29C90.7742 111.364 90.821 111.48 90.8629 111.609C90.9635 111.92 91.0236 112.351 91.0236 112.826C91.0236 113.3 90.9635 113.731 90.8629 114.042C90.821 114.171 90.7742 114.287 90.723 114.361C90.6584 114.455 90.5842 114.5 90.5037 114.5C90.4232 114.5 90.3486 114.455 90.284 114.361C90.2332 114.287 90.1864 114.171 90.1445 114.042C90.0435 113.731 89.9834 113.3 89.9834 112.826C89.9834 112.351 90.0435 111.92 90.1445 111.609C90.1864 111.48 90.2332 111.364 90.284 111.29C90.3486 111.197 90.4232 111.151 90.5037 111.151ZM90.5037 111.768C90.4955 111.788 90.4877 111.809 90.4818 111.828C90.3994 112.083 90.3545 112.437 90.3545 112.826C90.3545 113.214 90.3994 113.568 90.4818 113.823C90.4877 113.842 90.4955 113.863 90.5037 113.884C90.5115 113.863 90.5193 113.842 90.5252 113.823C90.608 113.568 90.6525 113.214 90.6525 112.826C90.6525 112.437 90.608 112.083 90.5252 111.828C90.5193 111.809 90.5115 111.788 90.5037 111.768Z" fill="black"/>
</g>
<defs>
<clipPath id="clip0_1590_194">
<rect width="112" height="192" fill="white"/>
</clipPath>
<clipPath id="clip1_1590_194">
<rect width="69.6471" height="119.671" fill="white" transform="translate(21 96.4638)"/>
</clipPath>
</defs>
</svg>
