<svg width="17" height="16" viewBox="0 0 17 16" fill="none" xmlns="http://www.w3.org/2000/svg">
<path d="M3.9975 0.997499C4.4575 0.997499 4.8925 1.0875 5.3025 1.2675C5.7175 1.4425 6.08 1.6825 6.39 1.9875C6.705 2.2875 6.9525 2.6425 7.1325 3.0525C7.3175 3.4575 7.41 3.8925 7.41 4.3575V14.3025C7.41 14.4675 7.3775 14.6225 7.3125 14.7675C7.2525 14.9175 7.1675 15.0475 7.0575 15.1575C6.9525 15.2675 6.825 15.3525 6.675 15.4125C6.53 15.4775 6.375 15.51 6.21 15.51C6.045 15.51 5.89 15.4775 5.745 15.4125C5.6 15.3525 5.4725 15.2675 5.3625 15.1575C5.2525 15.0475 5.165 14.9175 5.1 14.7675C5.04 14.6225 5.01 14.4675 5.01 14.3025V9.45H2.985V14.3025C2.985 14.4675 2.9525 14.6225 2.8875 14.7675C2.8275 14.9175 2.7425 15.0475 2.6325 15.1575C2.5225 15.2675 2.395 15.3525 2.25 15.4125C2.105 15.4775 1.95 15.51 1.785 15.51C1.62 15.51 1.4625 15.4775 1.3125 15.4125C1.1675 15.3525 1.04 15.2675 0.93 15.1575C0.825 15.0475 0.74 14.9175 0.675 14.7675C0.615 14.6225 0.585 14.4675 0.585 14.3025V4.3575C0.585 3.8925 0.675 3.4575 0.855 3.0525C1.04 2.6425 1.2875 2.285 1.5975 1.98C1.9125 1.675 2.275 1.435 2.685 1.26C3.1 1.085 3.5375 0.997499 3.9975 0.997499ZM5.01 7.05V4.41C5.01 4.27 4.9825 4.14 4.9275 4.02C4.8775 3.895 4.805 3.7875 4.71 3.6975C4.62 3.6025 4.5125 3.53 4.3875 3.48C4.2675 3.425 4.1375 3.3975 3.9975 3.3975C3.8575 3.3975 3.725 3.425 3.6 3.48C3.48 3.53 3.3725 3.6025 3.2775 3.6975C3.1875 3.7875 3.115 3.895 3.06 4.02C3.01 4.14 2.985 4.27 2.985 4.41V7.05H5.01ZM15.243 1.005C15.408 1.025 15.558 1.0775 15.693 1.1625C15.828 1.2425 15.943 1.345 16.038 1.47C16.133 1.59 16.2005 1.7275 16.2405 1.8825C16.2855 2.0325 16.2955 2.19 16.2705 2.355L14.823 13.02C14.763 13.395 14.653 13.735 14.493 14.04C14.338 14.345 14.143 14.605 13.908 14.82C13.678 15.04 13.4155 15.2075 13.1205 15.3225C12.8305 15.4425 12.518 15.5025 12.183 15.5025C11.848 15.5025 11.533 15.4425 11.238 15.3225C10.948 15.2075 10.6855 15.0425 10.4505 14.8275C10.2205 14.6125 10.028 14.355 9.87305 14.055C9.71805 13.755 9.61055 13.42 9.55055 13.05L8.09555 2.355C8.07555 2.19 8.08555 2.0325 8.12555 1.8825C8.17055 1.7275 8.23805 1.59 8.32805 1.47C8.42305 1.345 8.53805 1.2425 8.67305 1.1625C8.80805 1.0775 8.95805 1.025 9.12305 1.005C9.28805 0.985 9.44555 0.9975 9.59555 1.0425C9.75055 1.0825 9.88805 1.15 10.008 1.245C10.133 1.335 10.2355 1.4475 10.3155 1.5825C10.4005 1.7175 10.453 1.8675 10.473 2.0325L11.9205 12.69C11.9255 12.715 11.933 12.75 11.943 12.795C11.958 12.84 11.9755 12.885 11.9955 12.93C12.0205 12.975 12.048 13.015 12.078 13.05C12.108 13.085 12.143 13.1025 12.183 13.1025C12.223 13.1025 12.258 13.085 12.288 13.05C12.318 13.015 12.343 12.9725 12.363 12.9225C12.388 12.8775 12.408 12.83 12.423 12.78C12.438 12.73 12.448 12.69 12.453 12.66L13.893 2.0325C13.918 1.8675 13.9705 1.7175 14.0505 1.5825C14.1305 1.4475 14.2305 1.335 14.3505 1.245C14.4755 1.15 14.613 1.0825 14.763 1.0425C14.918 0.9975 15.078 0.985 15.243 1.005Z" fill="url(#paint0_linear_1690_196)"/>
<defs>
<linearGradient id="paint0_linear_1690_196" x1="0.936441" y1="-0.914286" x2="1.66779" y2="13.8525" gradientUnits="userSpaceOnUse">
<stop offset="0.399968" stop-color="#22577A"/>
<stop offset="1" stop-color="#3EA0E0"/>
</linearGradient>
</defs>
</svg>
