<svg width="272" height="68" viewBox="0 0 272 68" fill="none" xmlns="http://www.w3.org/2000/svg">
<path d="M12 51C12.18 49.6114 14.5982 47.4306 15.9 46.4261C16.9766 45.5955 17.0661 45.5291 17.772 44.5003C18.251 43.8023 20.1129 43.8511 20.3851 43.1161C22.0501 38.6197 29.4186 34.8521 33.7622 31.5008C37.6856 28.4736 43.1858 26.4747 48.1143 24.7002C54.5287 22.3905 59.8648 19.2764 66.7564 17.8393C68.7445 17.4247 70.3285 16.5749 72.3725 16.2144C74.3779 15.8607 76.3221 16.0406 78.3005 15.763C80.48 15.4573 82.3361 15.2515 84.6576 15.2515C89.1882 15.2515 94.1347 15.2149 94.1347 19.5846C94.1347 24.7962 93.7669 33.4018 102.715 33.6674C108.555 33.8407 113.353 32.9218 117.652 29.605C123.073 25.4223 128.598 21.6535 135.553 19.043C140.061 17.3508 144.342 15.8996 148.969 14.439C151.677 13.5844 154.552 13.7409 157.315 13.0849C159.512 12.5635 162.062 12.0016 164.374 12.0016C168.216 12.0016 171.182 11.9176 174.709 12.9645C176.401 13.4666 178.995 14.3343 179.077 15.9135C179.445 23.0052 170.806 32.2152 182.587 36.2552C184.615 36.9507 188.484 36.3756 190.699 36.3756C196.477 36.3756 203.024 33.0316 207.938 30.899C223.583 24.1087 241.021 19.7911 257 13.6265" stroke="url(#paint0_linear_1537_192)" stroke-width="3" stroke-linecap="round"/>
<path d="M29.66 5.66C30.8867 5.66 32.0467 5.9 33.14 6.38C34.2467 6.84667 35.2133 7.48667 36.04 8.3C36.88 9.1 37.54 10.0467 38.02 11.14C38.5133 12.22 38.76 13.38 38.76 14.62V41.14C38.76 41.58 38.6733 41.9933 38.5 42.38C38.34 42.78 38.1133 43.1267 37.82 43.42C37.54 43.7133 37.2 43.94 36.8 44.1C36.4133 44.2733 36 44.36 35.56 44.36C35.12 44.36 34.7067 44.2733 34.32 44.1C33.9333 43.94 33.5933 43.7133 33.3 43.42C33.0067 43.1267 32.7733 42.78 32.6 42.38C32.44 41.9933 32.36 41.58 32.36 41.14V28.2H26.96V41.14C26.96 41.58 26.8733 41.9933 26.7 42.38C26.54 42.78 26.3133 43.1267 26.02 43.42C25.7267 43.7133 25.3867 43.94 25 44.1C24.6133 44.2733 24.2 44.36 23.76 44.36C23.32 44.36 22.9 44.2733 22.5 44.1C22.1133 43.94 21.7733 43.7133 21.48 43.42C21.2 43.1267 20.9733 42.78 20.8 42.38C20.64 41.9933 20.56 41.58 20.56 41.14V14.62C20.56 13.38 20.8 12.22 21.28 11.14C21.7733 10.0467 22.4333 9.09333 23.26 8.28C24.1 7.46667 25.0667 6.82667 26.16 6.36C27.2667 5.89333 28.4333 5.66 29.66 5.66ZM32.36 21.8V14.76C32.36 14.3867 32.2867 14.04 32.14 13.72C32.0067 13.3867 31.8133 13.1 31.56 12.86C31.32 12.6067 31.0333 12.4133 30.7 12.28C30.38 12.1333 30.0333 12.06 29.66 12.06C29.2867 12.06 28.9333 12.1333 28.6 12.28C28.28 12.4133 27.9933 12.6067 27.74 12.86C27.5 13.1 27.3067 13.3867 27.16 13.72C27.0267 14.04 26.96 14.3867 26.96 14.76V21.8H32.36ZM52.4281 5.66C54.2148 5.66 55.9281 5.89333 57.5681 6.36C59.2215 6.81333 60.7615 7.46 62.1881 8.3C63.6281 9.14 64.9348 10.1533 66.1081 11.34C67.2948 12.5133 68.3081 13.82 69.1481 15.26C69.9881 16.6867 70.6348 18.2267 71.0881 19.88C71.5548 21.52 71.7881 23.2267 71.7881 25C71.7881 26.7733 71.5548 28.4867 71.0881 30.14C70.6348 31.7933 69.9881 33.3333 69.1481 34.76C68.3081 36.1867 67.2948 37.4867 66.1081 38.66C64.9348 39.8467 63.6281 40.86 62.1881 41.7C60.7615 42.54 59.2215 43.1867 57.5681 43.64C55.9148 44.1067 54.2015 44.34 52.4281 44.34H45.1881C44.7481 44.34 44.3281 44.2533 43.9281 44.08C43.5415 43.92 43.2015 43.6933 42.9081 43.4C42.6281 43.12 42.4015 42.78 42.2281 42.38C42.0681 41.9933 41.9881 41.58 41.9881 41.14V8.86C41.9881 8.42 42.0681 8.00667 42.2281 7.62C42.4015 7.22 42.6281 6.88 42.9081 6.6C43.2015 6.30667 43.5415 6.08 43.9281 5.92C44.3281 5.74666 44.7481 5.66 45.1881 5.66H52.4281ZM52.4281 37.94C53.6148 37.94 54.7615 37.7867 55.8681 37.48C56.9748 37.1733 58.0015 36.7333 58.9481 36.16C59.9081 35.6 60.7815 34.9267 61.5681 34.14C62.3548 33.3533 63.0281 32.4867 63.5881 31.54C64.1615 30.58 64.6015 29.5467 64.9081 28.44C65.2148 27.3333 65.3681 26.1867 65.3681 25C65.3681 23.8133 65.2148 22.6667 64.9081 21.56C64.6015 20.4533 64.1615 19.4267 63.5881 18.48C63.0281 17.52 62.3548 16.6467 61.5681 15.86C60.7815 15.0733 59.9081 14.4 58.9481 13.84C58.0015 13.2667 56.9748 12.8267 55.8681 12.52C54.7615 12.2133 53.6148 12.06 52.4281 12.06H48.3881V37.94H52.4281ZM91.3278 5.68C91.7678 5.73333 92.1678 5.87333 92.5278 6.1C92.8878 6.31333 93.1945 6.58667 93.4478 6.92C93.7011 7.24 93.8811 7.60666 93.9878 8.02C94.1078 8.42 94.1345 8.84 94.0678 9.28L90.2078 37.72C90.0478 38.72 89.7545 39.6267 89.3278 40.44C88.9145 41.2533 88.3945 41.9467 87.7678 42.52C87.1545 43.1067 86.4545 43.5533 85.6678 43.86C84.8945 44.18 84.0611 44.34 83.1678 44.34C82.2745 44.34 81.4345 44.18 80.6478 43.86C79.8745 43.5533 79.1745 43.1133 78.5478 42.54C77.9345 41.9667 77.4211 41.28 77.0078 40.48C76.5945 39.68 76.3078 38.7867 76.1478 37.8L72.2678 9.28C72.2145 8.84 72.2411 8.42 72.3478 8.02C72.4678 7.60666 72.6478 7.24 72.8878 6.92C73.1411 6.58667 73.4478 6.31333 73.8078 6.1C74.1678 5.87333 74.5678 5.73333 75.0078 5.68C75.4478 5.62667 75.8678 5.66 76.2678 5.78C76.6811 5.88667 77.0478 6.06667 77.3678 6.32C77.7011 6.56 77.9745 6.86 78.1878 7.22C78.4145 7.58 78.5545 7.98 78.6078 8.42L82.4678 36.84C82.4811 36.9067 82.5011 37 82.5278 37.12C82.5678 37.24 82.6145 37.36 82.6678 37.48C82.7345 37.6 82.8078 37.7067 82.8878 37.8C82.9678 37.8933 83.0611 37.94 83.1678 37.94C83.2745 37.94 83.3678 37.8933 83.4478 37.8C83.5278 37.7067 83.5945 37.5933 83.6478 37.46C83.7145 37.34 83.7678 37.2133 83.8078 37.08C83.8478 36.9467 83.8745 36.84 83.8878 36.76L87.7278 8.42C87.7945 7.98 87.9345 7.58 88.1478 7.22C88.3611 6.86 88.6278 6.56 88.9478 6.32C89.2811 6.06667 89.6478 5.88667 90.0478 5.78C90.4611 5.66 90.8878 5.62667 91.3278 5.68ZM104.973 5.66C106.199 5.66 107.359 5.9 108.453 6.38C109.559 6.84667 110.526 7.48667 111.353 8.3C112.193 9.1 112.853 10.0467 113.333 11.14C113.826 12.22 114.073 13.38 114.073 14.62V41.14C114.073 41.58 113.986 41.9933 113.813 42.38C113.653 42.78 113.426 43.1267 113.133 43.42C112.853 43.7133 112.513 43.94 112.113 44.1C111.726 44.2733 111.313 44.36 110.873 44.36C110.433 44.36 110.019 44.2733 109.633 44.1C109.246 43.94 108.906 43.7133 108.613 43.42C108.319 43.1267 108.086 42.78 107.913 42.38C107.753 41.9933 107.673 41.58 107.673 41.14V28.2H102.273V41.14C102.273 41.58 102.186 41.9933 102.013 42.38C101.853 42.78 101.626 43.1267 101.333 43.42C101.039 43.7133 100.699 43.94 100.313 44.1C99.9258 44.2733 99.5125 44.36 99.0725 44.36C98.6325 44.36 98.2125 44.2733 97.8125 44.1C97.4258 43.94 97.0858 43.7133 96.7925 43.42C96.5125 43.1267 96.2858 42.78 96.1125 42.38C95.9525 41.9933 95.8725 41.58 95.8725 41.14V14.62C95.8725 13.38 96.1125 12.22 96.5925 11.14C97.0858 10.0467 97.7458 9.09333 98.5725 8.28C99.4125 7.46667 100.379 6.82667 101.473 6.36C102.579 5.89333 103.746 5.66 104.973 5.66ZM107.673 21.8V14.76C107.673 14.3867 107.599 14.04 107.453 13.72C107.319 13.3867 107.126 13.1 106.873 12.86C106.633 12.6067 106.346 12.4133 106.013 12.28C105.693 12.1333 105.346 12.06 104.973 12.06C104.599 12.06 104.246 12.1333 103.913 12.28C103.593 12.4133 103.306 12.6067 103.053 12.86C102.813 13.1 102.619 13.3867 102.473 13.72C102.339 14.04 102.273 14.3867 102.273 14.76V21.8H107.673ZM144.021 5.66C144.461 5.66 144.874 5.74666 145.261 5.92C145.647 6.08 145.987 6.30667 146.281 6.6C146.574 6.88 146.801 7.22 146.961 7.62C147.134 8.00667 147.221 8.42 147.221 8.86V35.12V35.18C147.221 36.4467 146.981 37.6333 146.501 38.74C146.034 39.86 145.387 40.8333 144.561 41.66C143.747 42.5 142.781 43.16 141.661 43.64C140.554 44.12 139.367 44.36 138.101 44.36C136.847 44.36 135.667 44.12 134.561 43.64C133.454 43.16 132.487 42.5067 131.661 41.68C130.847 40.8533 130.201 39.8867 129.721 38.78C129.241 37.6733 129.001 36.4933 129.001 35.24V14.88V14.82C129.001 14.4333 128.927 14.0733 128.781 13.74C128.647 13.4067 128.461 13.12 128.221 12.88C127.981 12.6267 127.694 12.4267 127.361 12.28C127.041 12.1333 126.687 12.06 126.301 12.06C125.901 12.06 125.534 12.1333 125.201 12.28C124.867 12.4267 124.581 12.6267 124.341 12.88C124.114 13.1333 123.934 13.4333 123.801 13.78C123.667 14.1267 123.601 14.4933 123.601 14.88V41.14C123.601 41.58 123.514 41.9933 123.341 42.38C123.181 42.78 122.954 43.1267 122.661 43.42C122.367 43.7133 122.027 43.94 121.641 44.1C121.254 44.2733 120.841 44.36 120.401 44.36C119.961 44.36 119.541 44.2733 119.141 44.1C118.754 43.94 118.414 43.7133 118.121 43.42C117.841 43.1267 117.614 42.78 117.441 42.38C117.281 41.9933 117.201 41.58 117.201 41.14V14.88V14.82C117.201 13.5533 117.434 12.3667 117.901 11.26C118.381 10.14 119.027 9.16667 119.841 8.34C120.667 7.51333 121.634 6.86 122.741 6.38C123.847 5.9 125.034 5.66 126.301 5.66C127.581 5.66 128.774 5.90666 129.881 6.4C130.987 6.88 131.947 7.54 132.761 8.38C133.587 9.20667 134.234 10.18 134.701 11.3C135.167 12.42 135.401 13.6133 135.401 14.88V35.24C135.401 35.6133 135.467 35.96 135.601 36.28C135.747 36.6133 135.941 36.9 136.181 37.14C136.434 37.3933 136.721 37.5867 137.041 37.72C137.374 37.8667 137.727 37.94 138.101 37.94C138.474 37.94 138.827 37.8667 139.161 37.72C139.494 37.5867 139.781 37.3933 140.021 37.14C140.274 36.9 140.467 36.6133 140.601 36.28C140.747 35.96 140.821 35.6133 140.821 35.24V8.86C140.821 8.42 140.901 8.00667 141.061 7.62C141.234 7.22 141.461 6.88 141.741 6.6C142.034 6.30667 142.374 6.08 142.761 5.92C143.161 5.74666 143.581 5.66 144.021 5.66ZM167.226 5.66C167.666 5.66 168.079 5.74666 168.466 5.92C168.866 6.08 169.206 6.30667 169.486 6.6C169.779 6.88 170.006 7.22 170.166 7.62C170.339 8.00667 170.426 8.42 170.426 8.86C170.426 9.3 170.339 9.71333 170.166 10.1C170.006 10.4867 169.779 10.8267 169.486 11.12C169.206 11.4133 168.866 11.6467 168.466 11.82C168.079 11.98 167.666 12.06 167.226 12.06H162.926V41.12C162.926 41.56 162.839 41.9733 162.666 42.36C162.506 42.76 162.279 43.1 161.986 43.38C161.692 43.6733 161.346 43.9 160.946 44.06C160.559 44.2333 160.146 44.32 159.706 44.32C159.266 44.32 158.852 44.2333 158.466 44.06C158.079 43.9 157.739 43.6733 157.446 43.38C157.152 43.1 156.919 42.76 156.746 42.36C156.586 41.9733 156.506 41.56 156.506 41.12V12.06H152.206C151.766 12.06 151.346 11.98 150.946 11.82C150.559 11.6467 150.219 11.4133 149.926 11.12C149.646 10.8267 149.419 10.4867 149.246 10.1C149.086 9.71333 149.006 9.3 149.006 8.86C149.006 8.42 149.086 8.00667 149.246 7.62C149.419 7.22 149.646 6.88 149.926 6.6C150.219 6.30667 150.559 6.08 150.946 5.92C151.346 5.74666 151.766 5.66 152.206 5.66H159.306C159.372 5.64667 159.439 5.64 159.506 5.64C159.572 5.62666 159.639 5.62 159.706 5.62C159.772 5.62 159.839 5.62666 159.906 5.64C159.986 5.64 160.059 5.64667 160.126 5.66H167.226ZM180.441 5.66C181.668 5.66 182.828 5.9 183.921 6.38C185.028 6.84667 185.995 7.48667 186.821 8.3C187.661 9.1 188.321 10.0467 188.801 11.14C189.295 12.22 189.541 13.38 189.541 14.62V41.14C189.541 41.58 189.455 41.9933 189.281 42.38C189.121 42.78 188.895 43.1267 188.601 43.42C188.321 43.7133 187.981 43.94 187.581 44.1C187.195 44.2733 186.781 44.36 186.341 44.36C185.901 44.36 185.488 44.2733 185.101 44.1C184.715 43.94 184.375 43.7133 184.081 43.42C183.788 43.1267 183.555 42.78 183.381 42.38C183.221 41.9933 183.141 41.58 183.141 41.14V28.2H177.741V41.14C177.741 41.58 177.655 41.9933 177.481 42.38C177.321 42.78 177.095 43.1267 176.801 43.42C176.508 43.7133 176.168 43.94 175.781 44.1C175.395 44.2733 174.981 44.36 174.541 44.36C174.101 44.36 173.681 44.2733 173.281 44.1C172.895 43.94 172.555 43.7133 172.261 43.42C171.981 43.1267 171.755 42.78 171.581 42.38C171.421 41.9933 171.341 41.58 171.341 41.14V14.62C171.341 13.38 171.581 12.22 172.061 11.14C172.555 10.0467 173.215 9.09333 174.041 8.28C174.881 7.46667 175.848 6.82667 176.941 6.36C178.048 5.89333 179.215 5.66 180.441 5.66ZM183.141 21.8V14.76C183.141 14.3867 183.068 14.04 182.921 13.72C182.788 13.3867 182.595 13.1 182.341 12.86C182.101 12.6067 181.815 12.4133 181.481 12.28C181.161 12.1333 180.815 12.06 180.441 12.06C180.068 12.06 179.715 12.1333 179.381 12.28C179.061 12.4133 178.775 12.6067 178.521 12.86C178.281 13.1 178.088 13.3867 177.941 13.72C177.808 14.04 177.741 14.3867 177.741 14.76V21.8H183.141ZM227.269 21.92C227.709 21.92 228.123 22.0067 228.509 22.18C228.896 22.3533 229.236 22.5867 229.529 22.88C229.823 23.16 230.049 23.5 230.209 23.9C230.369 24.2867 230.449 24.7 230.449 25.14C230.436 26.9 230.196 28.6 229.729 30.24C229.263 31.8667 228.603 33.3933 227.749 34.82C226.909 36.2467 225.896 37.54 224.709 38.7C223.536 39.8733 222.236 40.8733 220.809 41.7C219.383 42.54 217.849 43.1867 216.209 43.64C214.583 44.1067 212.883 44.34 211.109 44.34C209.336 44.34 207.623 44.1067 205.969 43.64C204.329 43.1867 202.789 42.54 201.349 41.7C199.923 40.86 198.616 39.8467 197.429 38.66C196.256 37.4867 195.249 36.1867 194.409 34.76C193.569 33.32 192.916 31.78 192.449 30.14C191.996 28.4867 191.769 26.7733 191.769 25C191.769 23.2133 191.996 21.5 192.449 19.86C192.916 18.2067 193.569 16.6667 194.409 15.24C195.249 13.8133 196.256 12.5133 197.429 11.34C198.616 10.1533 199.923 9.14 201.349 8.3C202.789 7.46 204.329 6.81333 205.969 6.36C207.623 5.89333 209.336 5.66 211.109 5.66C213.736 5.66 216.223 6.15333 218.569 7.14C220.929 8.11333 223.029 9.52667 224.869 11.38C225.176 11.7 225.403 12.06 225.549 12.46C225.709 12.8467 225.789 13.2467 225.789 13.66C225.789 14.0733 225.709 14.48 225.549 14.88C225.389 15.2667 225.156 15.6133 224.849 15.92C224.543 16.2267 224.189 16.46 223.789 16.62C223.403 16.7667 223.003 16.84 222.589 16.84C222.163 16.84 221.749 16.7667 221.349 16.62C220.963 16.46 220.616 16.22 220.309 15.9C219.083 14.6467 217.676 13.6933 216.089 13.04C214.516 12.3867 212.856 12.06 211.109 12.06C209.923 12.06 208.776 12.2133 207.669 12.52C206.576 12.8267 205.549 13.2667 204.589 13.84C203.643 14.4 202.769 15.0733 201.969 15.86C201.183 16.6467 200.509 17.52 199.949 18.48C199.389 19.4267 198.956 20.4533 198.649 21.56C198.343 22.6667 198.189 23.8133 198.189 25C198.189 26.1867 198.343 27.3333 198.649 28.44C198.956 29.5333 199.389 30.56 199.949 31.52C200.509 32.4667 201.183 33.34 201.969 34.14C202.769 34.9267 203.643 35.6 204.589 36.16C205.549 36.72 206.576 37.1533 207.669 37.46C208.776 37.7667 209.923 37.92 211.109 37.92C212.603 37.92 214.023 37.6733 215.369 37.18C216.729 36.7 217.956 36.0267 219.049 35.16C220.156 34.3067 221.103 33.2933 221.889 32.12C222.676 30.9467 223.256 29.6667 223.629 28.28L211.089 28.2C210.649 28.2 210.229 28.1133 209.829 27.94C209.443 27.7667 209.103 27.5333 208.809 27.24C208.529 26.9467 208.309 26.6067 208.149 26.22C207.989 25.82 207.909 25.4 207.909 24.96C207.909 24.52 207.996 24.1067 208.169 23.72C208.343 23.3333 208.569 23 208.849 22.72C209.143 22.4267 209.483 22.2 209.869 22.04C210.269 21.88 210.689 21.8 211.129 21.8L227.269 21.92ZM239.149 12.06V21.8H246.369C246.809 21.8 247.223 21.8867 247.609 22.06C247.996 22.22 248.336 22.4467 248.629 22.74C248.923 23.0333 249.149 23.3733 249.309 23.76C249.483 24.1467 249.569 24.56 249.569 25C249.569 25.44 249.483 25.8533 249.309 26.24C249.149 26.6267 248.923 26.9667 248.629 27.26C248.336 27.5533 247.996 27.7867 247.609 27.96C247.223 28.12 246.809 28.2 246.369 28.2H239.149V37.94H248.369C248.809 37.94 249.223 38.02 249.609 38.18C249.996 38.3533 250.336 38.5867 250.629 38.88C250.923 39.1733 251.149 39.5133 251.309 39.9C251.483 40.2867 251.569 40.7 251.569 41.14C251.569 41.58 251.483 41.9933 251.309 42.38C251.149 42.78 250.923 43.1267 250.629 43.42C250.336 43.7133 249.996 43.94 249.609 44.1C249.223 44.2733 248.809 44.36 248.369 44.36H235.949C235.509 44.36 235.096 44.2733 234.709 44.1C234.323 43.94 233.983 43.7133 233.689 43.42C233.396 43.1267 233.163 42.78 232.989 42.38C232.829 41.9933 232.749 41.58 232.749 41.14V8.86C232.749 8.42 232.829 8.00667 232.989 7.62C233.163 7.22 233.396 6.88 233.689 6.6C233.983 6.30667 234.323 6.08 234.709 5.92C235.096 5.74666 235.509 5.66 235.949 5.66H248.369C248.809 5.66 249.223 5.74666 249.609 5.92C249.996 6.08 250.336 6.30667 250.629 6.6C250.923 6.88 251.149 7.22 251.309 7.62C251.483 8.00667 251.569 8.42 251.569 8.86C251.569 9.3 251.483 9.71333 251.309 10.1C251.149 10.4867 250.923 10.8267 250.629 11.12C250.336 11.4133 249.996 11.6467 249.609 11.82C249.223 11.98 248.809 12.06 248.369 12.06H239.149Z" fill="url(#paint1_linear_1537_192)"/>
<rect y="44" width="47" height="24" fill="black"/>
<defs>
<linearGradient id="paint0_linear_1537_192" x1="268.949" y1="30.8124" x2="-3.00435" y2="30.8124" gradientUnits="userSpaceOnUse">
<stop stop-color="#CCC100"/>
<stop offset="1" stop-color="#8E1616" stop-opacity="0.67"/>
</linearGradient>
<linearGradient id="paint1_linear_1537_192" x1="210.339" y1="14.5" x2="13.926" y2="16.9244" gradientUnits="userSpaceOnUse">
<stop offset="0.263" stop-color="#06558A"/>
<stop offset="1" stop-color="#05385A" stop-opacity="0.44"/>
</linearGradient>
</defs>
</svg>
