<svg width="35" height="35" viewBox="0 0 35 35" fill="none" xmlns="http://www.w3.org/2000/svg">
<path fill-rule="evenodd" clip-rule="evenodd" d="M10.5722 10.398V10.9374H8.38306C7.73088 10.9374 7.17738 11.4157 7.08283 12.061L6.76393 14.2375C6.14119 18.4877 6.14119 22.806 6.76393 27.0562C7.04297 28.9606 8.57866 30.4329 10.4931 30.6314L11.4102 30.7266C15.4588 31.1464 19.5398 31.1464 23.5883 30.7266L24.5054 30.6314C26.4199 30.4329 27.9556 28.9606 28.2346 27.0562C28.8574 22.806 28.8574 18.4877 28.2346 14.2375L27.9157 12.061C27.8212 11.4157 27.2677 10.9374 26.6155 10.9374H24.4264V10.398C24.4264 7.23674 22.2861 4.47649 19.2244 3.6892C18.0927 3.3982 16.9058 3.3982 15.7742 3.6892C12.7125 4.47649 10.5722 7.23673 10.5722 10.398ZM18.6796 5.80778C17.9053 5.60867 17.0932 5.60867 16.3189 5.80778C14.2241 6.34645 12.7597 8.23504 12.7597 10.398V10.9374H22.2389V10.398C22.2389 8.23504 20.7745 6.34645 18.6796 5.80778ZM12.7597 13.1249C12.7597 12.5209 12.27 12.0312 11.666 12.0312C11.0619 12.0312 10.5722 12.5209 10.5722 13.1249V16.0416C10.5722 16.6457 11.0619 17.1353 11.666 17.1353C12.27 17.1353 12.7597 16.6457 12.7597 16.0416V13.1249ZM24.4264 13.1249C24.4264 12.5209 23.9367 12.0312 23.3326 12.0312C22.7286 12.0312 22.2389 12.5209 22.2389 13.1249V16.0416C22.2389 16.6457 22.7286 17.1353 23.3326 17.1353C23.9367 17.1353 24.4264 16.6457 24.4264 16.0416V13.1249Z" fill="white"/>
</svg>
