<svg width="61" height="61" viewBox="0 0 61 61" fill="none" xmlns="http://www.w3.org/2000/svg">
<g filter="url(#filter0_d_1037_34)">
<path fill-rule="evenodd" clip-rule="evenodd" d="M11.671 38.8983C5.95764 24.8747 16.2745 9.53125 31.4173 9.53125H32.2343C43.559 9.53125 52.7395 18.7118 52.7395 30.0365C52.7395 42.6453 42.5181 52.8667 29.9094 52.8667H10.0328C9.22392 52.8667 8.50309 52.3561 8.23462 51.5931C7.96615 50.83 8.2085 49.9806 8.8392 49.4741L13.8501 45.45C14.0692 45.274 14.1467 44.975 14.0407 44.7148L11.671 38.8983ZM31.4173 13.3438C18.9821 13.3438 10.5099 25.9437 15.2017 37.4598L17.5714 43.2763C18.3135 45.098 17.771 47.1908 16.2373 48.4225L15.4508 49.0542H29.9094C40.4125 49.0542 48.927 40.5397 48.927 30.0365C48.927 20.8174 41.4534 13.3438 32.2343 13.3438H31.4173Z" fill="black"/>
</g>
<defs>
<filter id="filter0_d_1037_34" x="-4" y="0" width="69" height="69" filterUnits="userSpaceOnUse" color-interpolation-filters="sRGB">
<feFlood flood-opacity="0" result="BackgroundImageFix"/>
<feColorMatrix in="SourceAlpha" type="matrix" values="0 0 0 0 0 0 0 0 0 0 0 0 0 0 0 0 0 0 127 0" result="hardAlpha"/>
<feOffset dy="4"/>
<feGaussianBlur stdDeviation="2"/>
<feComposite in2="hardAlpha" operator="out"/>
<feColorMatrix type="matrix" values="0 0 0 0 0 0 0 0 0 0 0 0 0 0 0 0 0 0 0.25 0"/>
<feBlend mode="normal" in2="BackgroundImageFix" result="effect1_dropShadow_1037_34"/>
<feBlend mode="normal" in="SourceGraphic" in2="effect1_dropShadow_1037_34" result="shape"/>
</filter>
</defs>
</svg>
