<svg width="105" height="126" viewBox="0 0 105 126" fill="none" xmlns="http://www.w3.org/2000/svg">
<path d="M99.3395 16.3125C98.574 12.1867 97.2689 10.709 97.2689 10.709C96.8163 8.12852 95.7285 7.77168 94.311 8.00151C92.8935 8.23133 94.2554 10.0477 94.7058 12.6282L93.5897 20.8848C92.9555 20.66 92.2961 20.4997 91.6241 20.4211C88.2704 20.0219 84.3728 23.1951 82.2686 26.6646C82.2119 26.6566 82.1552 26.6495 82.0995 26.6435C80.9424 22.7778 77.9646 18.771 74.6046 18.3708C73.9337 18.2912 73.2512 18.2912 72.5781 18.3597L73.5788 10.2403C74.675 7.84426 76.4558 6.40181 75.138 5.8464C73.8203 5.291 72.6747 5.38172 71.5806 7.77874C71.5806 7.77874 69.9395 8.90568 68.1461 12.728C66.6435 15.9415 65.5232 22.2012 65.5232 22.2012C65.373 23.0409 65.3205 23.4491 65.3583 23.6295C65.2082 24.1981 65.1431 24.7988 65.1935 25.4268C65.415 28.2603 65.7479 30.4154 66.2456 32.0897C66.6729 36.2235 67.8227 40.9117 67.305 44.9266C66.443 51.6146 61.9584 58.0689 59.7765 63.3548C59.5938 63.6895 59.4059 64.1249 59.1896 64.6884C56.6255 71.4158 52.4055 88.5357 52.4055 88.5357C52.2197 89.968 56.9625 91.2109 58.4042 92.0254C58.4042 92.0254 62.9276 94.3891 73.3887 95.632C84.8169 96.9908 88.5801 95.6118 88.5801 95.6118C90.0154 95.2046 96.4289 94.7701 96.6147 93.3388C96.6147 93.3388 95.9091 75.5889 94.4055 68.5702C94.4055 68.5662 94.4044 68.5621 94.4044 68.5581C93.6327 62.7924 89.8359 54.8352 90.7599 47.7137C91.2219 44.1464 93.4406 40.575 95.2718 37.0753C96.5423 35.4937 97.692 33.1027 98.951 29.4659C99.1725 28.8298 99.2628 28.1948 99.246 27.5708C99.3415 27.4317 99.3993 27.0275 99.4718 26.1143C99.476 26.1163 99.9831 19.782 99.3395 16.3125Z" fill="black" stroke="black" stroke-width="0.825" stroke-miterlimit="10"/>
<path d="M54.4152 65.2458C56.7714 59.5385 61.6098 52.5732 62.5432 45.3529C63.1029 41.0165 61.8618 35.9554 61.3987 31.4929C60.8632 29.6866 60.4999 27.3591 60.2647 24.3009C60.2101 23.6225 60.2805 22.9743 60.4443 22.3595C60.4023 22.1649 60.4579 21.7244 60.6207 20.8182C60.6207 20.8182 60.7572 20.0552 60.9987 18.9212C60.018 18.6903 59.031 18.5018 58.1217 18.3738C58.107 18.3254 58.0954 18.2811 58.0723 18.2468L57.771 15.9032C57.7185 15.494 57.331 15.2037 56.91 15.2531C56.91 15.2531 52.9851 18.2559 44.4979 19.0532C35.3073 19.9181 31.3519 18.2468 31.3519 18.2468C30.9246 18.2962 30.6232 18.6682 30.6736 19.0774L30.9718 21.419C30.9613 21.4563 30.955 21.5027 30.9624 21.5591C28.6062 22.4865 25.8258 23.9461 24.1594 25.4288C23.9662 25.5568 23.7793 25.701 23.6124 25.8774L8.6016 39.7717C8.2656 39.4773 7.7574 39.4824 7.46865 39.7878L4.4751 42.9458C4.1874 43.2503 4.2273 43.7361 4.56435 44.0325L19.4722 57.0538C19.8093 57.3481 20.3175 57.3431 20.6052 57.0367L23.5977 53.8806C23.8014 53.6639 23.8339 53.3575 23.7205 53.0934L25.5885 50.8284L30.4468 89.085C30.8112 91.9477 33.2377 91.7613 36.2187 91.4125L47.0305 90.1475C48.3399 84.9774 51.6096 72.3784 53.782 66.6832C54.0141 66.0754 54.2188 65.6097 54.4152 65.2458ZM21.7119 53.6458L20.1505 55.2928C19.9993 55.4531 19.6423 55.3765 19.3546 55.1255L6.6234 44.0022C6.3357 43.7502 6.2223 43.4146 6.37455 43.2583L7.93905 41.6102C8.0892 41.452 8.4441 41.5286 8.73285 41.7796L21.4651 52.9019C21.7497 53.1518 21.862 53.4865 21.7119 53.6458ZM32.2224 21.4392L32.0638 20.1842C32.0418 20.0179 32.3337 19.8475 32.7159 19.8012C32.7159 19.8012 36.247 21.1599 44.4843 20.281C52.0915 19.4705 55.6542 17.1158 55.6542 17.1158C56.0343 17.0725 56.3629 17.1693 56.3829 17.3376L56.5435 18.5916C56.9005 18.8526 55.2121 20.9805 44.6701 22.2123C33.4582 23.5217 32.0103 21.6831 32.2224 21.4392Z" fill="black" stroke="black" stroke-width="0.825" stroke-miterlimit="10"/>
</svg>
