<svg width="114" height="143" viewBox="0 0 114 143" fill="none" xmlns="http://www.w3.org/2000/svg">
<path d="M108.818 83.331H103.547V27.2657C103.547 24.2133 101.073 21.7298 98.0327 21.7298H15.9704C12.9276 21.7298 10.4528 24.2133 10.4528 27.2657V83.331H5.18181C4.6087 83.331 4.14545 83.7959 4.14545 84.371C4.14545 89.18 7.96341 92.6702 13.224 92.6702H100.776C106.037 92.6702 109.855 89.18 109.855 84.371C109.855 83.7959 109.391 83.331 108.818 83.331ZM12.5255 27.2657C12.5255 25.3594 14.0707 23.8098 15.9704 23.8098H98.0327C99.9303 23.8098 101.475 25.3604 101.475 27.2657V83.331H65.8796H48.1225H12.5255V27.2657ZM64.4856 85.411C64.1716 85.8229 63.6835 86.0922 63.127 86.0922H50.8751C50.3196 86.0922 49.8304 85.8218 49.5164 85.411H64.4856ZM100.776 90.5902H13.224C9.50137 90.5902 6.79336 88.5082 6.29901 85.411H11.4891H47.2292C47.682 87.0033 49.1454 88.1722 50.8751 88.1722H63.127C64.8567 88.1722 66.32 87.0033 66.7729 85.411H102.511H107.701C107.207 88.5082 104.499 90.5902 100.776 90.5902Z" fill="black"/>
<path d="M97.9467 79.014V28.1258C97.9467 27.5517 97.4835 27.0858 96.9104 27.0858H17.0896C16.5165 27.0858 16.0533 27.5517 16.0533 28.1258V79.014C16.0533 79.5881 16.5165 80.054 17.0896 80.054H96.9104C97.4824 80.054 97.9467 79.587 97.9467 79.014ZM95.874 77.974H18.126V29.1658H95.874V77.974Z" fill="black"/>
</svg>
