<svg width="125" height="153" viewBox="0 0 125 153" fill="none" xmlns="http://www.w3.org/2000/svg">
<path d="M104.83 64.396H74.6807C72.8607 64.396 71.3871 65.8702 71.3871 67.6809V70.5009H69.4872V37.887C69.4872 36.0719 68.009 34.6021 66.1935 34.6021H50.0799C48.2599 34.6021 46.7863 36.0764 46.7863 37.887V70.5055H44.3538V37.887C44.3538 36.0719 42.8756 34.6021 41.0601 34.6021H20.1703C18.3503 34.6021 16.8767 36.0764 16.8767 37.887V98.3526C16.8767 100.168 18.3549 101.637 20.1703 101.637H41.0556C42.8756 101.637 44.3492 100.163 44.3492 98.3526V93.8546H50.9188C50.7501 94.771 50.3506 95.9044 49.4983 96.9713C48.4995 98.2286 47.2833 98.8882 46.431 99.2026C46.4177 99.2026 46.4177 99.2159 46.4088 99.2159C46.3644 99.238 46.3201 99.2734 46.2712 99.2956C46.1825 99.3531 46.0892 99.3974 46.0093 99.4638C45.9649 99.4992 45.9427 99.5435 45.9072 99.5878C45.8495 99.6674 45.7829 99.7339 45.7474 99.8268C45.7252 99.8844 45.703 99.9419 45.6897 99.9951C45.6542 100.084 45.6453 100.177 45.632 100.278C45.632 100.314 45.6098 100.336 45.6098 100.367C45.6098 100.402 45.632 100.433 45.632 100.469C45.632 100.513 45.6187 100.557 45.632 100.593C45.6453 100.65 45.6675 100.681 45.6897 100.739C45.7119 100.805 45.7252 100.863 45.7563 100.92C45.8007 101 45.8451 101.08 45.9028 101.146C45.9383 101.19 45.9694 101.235 46.0182 101.283C46.0981 101.35 46.178 101.398 46.2668 101.452C46.3112 101.474 46.3556 101.509 46.4044 101.531C46.5509 101.589 46.7018 101.62 46.8705 101.62H62.6909C62.8507 101.62 63.0105 101.584 63.157 101.531C63.2014 101.509 63.2458 101.474 63.2946 101.452C63.3834 101.407 63.4633 101.35 63.5432 101.283C63.5876 101.239 63.6231 101.195 63.6586 101.146C63.7163 101.08 63.774 101 63.8051 100.92C63.8406 100.863 63.8495 100.796 63.8717 100.739C63.885 100.695 63.9161 100.65 63.9294 100.593C63.9427 100.548 63.9294 100.504 63.9294 100.469C63.9294 100.433 63.9516 100.402 63.9516 100.367C63.9516 100.332 63.9383 100.309 63.9294 100.278C63.9161 100.177 63.9072 100.084 63.8717 99.9951C63.8495 99.9375 63.8362 99.88 63.814 99.8268C63.7696 99.7383 63.7119 99.6675 63.6542 99.5878C63.6187 99.5435 63.5876 99.4992 63.5521 99.4638C63.4722 99.3974 63.3834 99.3398 63.2902 99.2956C63.2458 99.2734 63.2103 99.238 63.1526 99.2159C63.1393 99.2159 63.1393 99.2026 63.1304 99.2026C62.2914 98.875 61.0619 98.2286 60.0631 96.9713C59.2108 95.8955 58.8247 94.771 58.6427 93.8546H71.3597V97.7549C71.3597 99.57 72.8379 101.04 74.6534 101.04H104.802C106.622 101.04 108.096 99.5655 108.096 97.7549L108.1 67.6819C108.114 65.8711 106.635 64.397 104.829 64.397L104.83 64.396ZM57.2841 91.3353H43.1023H43.0801H43.0579H37.6956C37.2739 91.3353 36.9321 90.9945 36.9321 90.5739V73.7824C36.9321 73.3618 37.2739 73.021 37.6956 73.021H71.8661C72.2878 73.021 72.6296 73.3618 72.6296 73.7824V90.5659C72.6296 90.9865 72.2878 91.3274 71.8661 91.3274L57.2843 91.323L57.2841 91.3353ZM49.3074 37.8873C49.3074 37.4668 49.6492 37.117 50.0798 37.117H66.2059C66.6276 37.117 66.9783 37.4579 66.9783 37.8873V70.5058H49.3067L49.3074 37.8873ZM20.1699 37.117H41.0551C41.4768 37.117 41.8275 37.4579 41.8275 37.8873V56.61H19.407V37.8873C19.407 37.4579 19.7482 37.117 20.1699 37.117ZM41.8278 98.3522C41.8278 98.7727 41.4861 99.1225 41.0555 99.1225H20.1702C19.7486 99.1225 19.3979 98.7816 19.3979 98.3522V59.115H41.8183V70.4926H37.7034C35.8834 70.4926 34.4098 71.9668 34.4098 73.7686V90.5521C34.4098 92.3672 35.888 93.8281 37.7034 93.8281H41.8183V98.3526L41.8278 98.3522ZM58.1142 98.5337C58.2829 98.7373 58.456 98.941 58.6247 99.1225H50.9675C51.1362 98.941 51.3093 98.7373 51.478 98.5337C52.783 96.8912 53.2846 95.1558 53.4799 93.8542H56.1255C56.3075 95.1558 56.8047 96.8868 58.1142 98.5337ZM105.593 97.7368C105.593 98.1574 105.251 98.5071 104.82 98.5071L74.6805 98.5115C74.2588 98.5115 73.9081 98.1707 73.9081 97.7412V93.1194C74.6716 92.5173 75.1688 91.6009 75.1688 90.5561V73.7817C75.1688 72.7369 74.6672 71.8204 73.9081 71.2184V67.6811C73.9081 67.2606 74.2499 66.9108 74.6805 66.9108H104.829C105.251 66.9108 105.602 67.2517 105.602 67.6811V97.7371L105.593 97.7368Z" fill="black"/>
<path d="M76.5807 49.3H102.943C104.763 49.3 106.228 47.8258 106.228 46.0152V37.6391C106.228 35.824 104.75 34.3631 102.943 34.3631H76.5807C74.7607 34.3631 73.2959 35.8374 73.2959 37.6391V46.0152C73.2826 47.8391 74.7608 49.3 76.5807 49.3ZM75.8083 37.6482C75.8083 37.2276 76.1501 36.8867 76.5718 36.8867H102.934C103.356 36.8867 103.698 37.2276 103.698 37.6482V46.0242C103.698 46.4448 103.356 46.7857 102.934 46.7857H76.5718C76.1501 46.7857 75.8083 46.4448 75.8083 46.0242V37.6482Z" fill="black"/>
<path d="M80.9432 59.3051C80.2596 59.4733 79.8512 60.1551 80.0243 60.8235C80.1619 61.4035 80.6813 61.7753 81.2494 61.7753C81.3515 61.7753 81.4536 61.762 81.5557 61.7399C81.9419 61.6514 83.2381 61.2396 83.9661 59.9159C84.5342 58.8711 84.5698 57.6272 84.0815 56.6399C83.5799 55.666 82.7498 55.325 82.1949 55.1081C81.7421 54.9266 81.5823 54.8469 81.458 54.6432C81.458 54.6432 81.1606 54.1208 81.3559 53.656C81.5157 53.2709 81.9463 53.1026 82.0395 53.0672C82.6965 52.8281 83.0383 52.1154 82.803 51.4557C82.5633 50.8005 81.8486 50.4596 81.1872 50.6943C80.6812 50.8846 79.5448 51.407 78.9988 52.6997C78.3285 54.2757 79.1009 55.6924 79.2607 55.9536C79.8422 56.9187 80.6812 57.2463 81.2272 57.4588C81.6578 57.627 81.751 57.6846 81.8087 57.7864C81.933 58.0255 81.8975 58.4106 81.7288 58.7161C81.498 59.1588 81.032 59.2829 80.9432 59.3051Z" fill="black"/>
<path d="M92.4318 59.3051C91.7482 59.4733 91.3399 60.1551 91.513 60.8235C91.6506 61.4035 92.1699 61.7753 92.7381 61.7753C92.8402 61.7753 92.9423 61.762 93.0444 61.7399C93.4306 61.6514 94.7268 61.2396 95.4547 59.9159C96.0229 58.8711 96.0584 57.6272 95.5701 56.6399C95.0685 55.666 94.2384 55.325 93.6835 55.1081C93.2308 54.9266 93.071 54.8469 92.9467 54.6432C92.9467 54.6432 92.6493 54.1208 92.8446 53.656C93.0044 53.2709 93.435 53.1026 93.5282 53.0672C94.1851 52.8281 94.5269 52.1154 94.2917 51.4557C94.0519 50.8005 93.3373 50.4596 92.6759 50.6943C92.2098 50.8625 91.0601 51.3849 90.5186 52.6643C89.8483 54.2403 90.6207 55.657 90.7805 55.9182C91.362 56.8833 92.2009 57.2109 92.747 57.4234C93.1775 57.5917 93.2708 57.6492 93.3285 57.7643C93.4528 58.0034 93.4172 58.3885 93.2486 58.694C92.9867 59.1588 92.525 59.2829 92.4318 59.3051Z" fill="black"/>
<path d="M86.7716 59.3051C86.088 59.4733 85.6796 60.1551 85.8527 60.8235C85.9904 61.4035 86.5097 61.7753 87.0779 61.7753C87.18 61.7753 87.2821 61.762 87.3842 61.7399C87.7703 61.6514 89.0665 61.2396 89.7945 59.9159C90.3627 58.8711 90.3982 57.6272 89.9099 56.6399C89.4083 55.666 88.5782 55.325 88.0233 55.1081C87.5705 54.9266 87.4107 54.8469 87.2864 54.6432C87.2864 54.6432 86.989 54.1208 87.1843 53.656C87.3441 53.2709 87.7747 53.1026 87.8679 53.0672C88.5249 52.8281 88.8667 52.1154 88.6314 51.4557C88.3917 50.8005 87.6771 50.4596 87.0156 50.6943C86.5496 50.8625 85.3998 51.3849 84.8584 52.6643C84.1881 54.2403 84.9605 55.657 85.1203 55.9182C85.7018 56.8833 86.5407 57.2109 87.0868 57.4234C87.5173 57.5917 87.6105 57.6492 87.6683 57.7643C87.7925 58.0034 87.757 58.3885 87.5883 58.694C87.3309 59.1588 86.8648 59.2829 86.7716 59.3051Z" fill="black"/>
<path d="M98.0909 59.3051C97.4073 59.4733 96.9989 60.1551 97.172 60.8235C97.3096 61.4035 97.829 61.7753 98.3971 61.7753C98.4992 61.7753 98.6013 61.762 98.7034 61.7399C99.0896 61.6514 100.386 61.2396 101.114 59.9159C101.682 58.8711 101.717 57.6272 101.229 56.6399C100.728 55.666 99.8975 55.325 99.3426 55.1081C98.8898 54.9266 98.73 54.8469 98.6057 54.6432C98.6057 54.6432 98.3083 54.1208 98.5036 53.656C98.6634 53.2709 99.094 53.1026 99.1872 53.0672C99.8442 52.8281 100.186 52.1154 99.9507 51.4557C99.711 50.8005 98.9964 50.4596 98.3349 50.6943C97.8688 50.8625 96.7191 51.3849 96.1776 52.6643C95.5074 54.2403 96.2797 55.657 96.4395 55.9182C97.021 56.8833 97.86 57.2109 98.406 57.4234C98.8366 57.5917 98.9298 57.6492 98.9875 57.7643C99.1118 58.0034 99.0763 58.3885 98.9076 58.694C98.6457 59.1588 98.1797 59.2829 98.0909 59.3051Z" fill="black"/>
<path d="M23.3182 54.7853C24.0107 54.7853 24.5789 54.2187 24.5789 53.528V48.1314C24.5789 47.4408 24.0107 46.8741 23.3182 46.8741C22.6257 46.8741 22.0575 47.4408 22.0575 48.1314V53.528C22.0575 54.2186 22.6124 54.7853 23.3182 54.7853Z" fill="black"/>
<path d="M23.717 76.296C23.0246 76.296 22.4564 76.8627 22.4564 77.5533V82.9499C22.4564 83.6405 23.0245 84.2072 23.717 84.2072C24.4095 84.2072 24.9777 83.6406 24.9777 82.9499V77.5533C24.9777 76.8627 24.4184 76.296 23.717 76.296Z" fill="black"/>
<path d="M58.1364 43.452C54.6696 43.452 51.8509 46.2632 51.8509 49.7207C51.8509 53.1783 54.6697 55.9894 58.1364 55.9894C61.6032 55.9894 64.4218 53.1781 64.4218 49.7207C64.4307 46.272 61.6031 43.452 58.1364 43.452ZM58.1364 53.4838C56.059 53.4838 54.3766 51.7971 54.3766 49.7341C54.3766 47.6711 56.0679 45.9843 58.1364 45.9843C60.2138 45.9843 61.8962 47.6711 61.8962 49.7341C61.8962 51.7926 60.2138 53.4838 58.1364 53.4838Z" fill="black"/>
<path d="M58.1364 59.4116C55.7837 59.4116 53.8617 61.3285 53.8617 63.6749C53.8617 66.0212 55.7837 67.9381 58.1364 67.9381C60.489 67.9381 62.411 66.0212 62.411 63.6749C62.411 61.3153 60.4978 59.4116 58.1364 59.4116ZM58.1364 65.4059C57.1687 65.4059 56.3874 64.6223 56.3874 63.6616C56.3874 62.6965 57.1731 61.9173 58.1364 61.9173C59.104 61.9173 59.8853 62.7009 59.8853 63.6616C59.8853 64.6223 59.1041 65.4059 58.1364 65.4059Z" fill="black"/>
<path d="M89.7591 69.156C82.2707 69.156 76.1671 75.23 76.1671 82.7118C76.1671 90.1936 82.2573 96.2676 89.7591 96.2676C95.4853 96.2676 100.395 92.7083 102.383 87.6879C102.396 87.6658 102.418 87.6437 102.418 87.6082C102.418 87.595 102.418 87.5728 102.432 87.564C103.013 86.0588 103.351 84.4252 103.351 82.7119C103.342 75.2435 97.2476 69.156 89.7591 69.156ZM94.7707 86.3373C93.6122 87.9134 91.77 88.9006 89.7591 88.9006C86.3367 88.9006 83.5535 86.1248 83.5535 82.7248C83.5535 79.3116 86.3367 76.5358 89.7591 76.5358C91.6234 76.5358 93.328 77.3637 94.4866 78.7361C94.2158 78.9751 94.0427 79.316 94.0427 79.6879V85.2306C94.0338 85.7043 94.3312 86.1337 94.7707 86.3373ZM96.5551 84.3097V80.582L100.27 79.3247C100.621 80.3917 100.816 81.5338 100.816 82.7247C100.816 83.7341 100.67 84.6948 100.417 85.6245L96.5551 84.3097ZM89.7591 93.7482C83.6556 93.7482 78.6929 88.7943 78.6929 82.7115C78.6929 76.6242 83.66 71.6747 89.7591 71.6747C93.7718 71.6747 97.2831 73.8174 99.2228 77.0137L96.9501 77.7841C95.3343 75.4377 92.6755 74.0122 89.768 74.0122C84.9517 74.0122 81.041 77.9213 81.041 82.7159C81.041 87.5104 84.9606 91.4107 89.768 91.4107C92.8575 91.4107 95.6761 89.7771 97.2431 87.1961L99.4936 87.9575C97.6116 91.4018 93.9539 93.7482 89.7591 93.7482Z" fill="black"/>
<path d="M80.2295 44.6069H99.2863C99.9788 44.6069 100.547 44.0402 100.547 43.3495C100.547 42.6589 99.9788 42.0922 99.2863 42.0922H80.2295C79.5371 42.0922 78.9688 42.6589 78.9688 43.3495C78.9644 44.0402 79.5326 44.6069 80.2295 44.6069Z" fill="black"/>
</svg>
