<svg width="100" height="125" viewBox="0 0 100 125" fill="none" xmlns="http://www.w3.org/2000/svg">
<path d="M94.958 45.535C94.833 45.045 94.439 44.669 93.945 44.565L93.34 44.439V35.978L94.327 35.134C94.717 34.802 94.88 34.274 94.746 33.78C94.612 33.286 94.205 32.913 93.701 32.822L88.156 31.816L88.158 24.692L88.156 24.545L89.177 23.673C89.566 23.34 89.73 22.812 89.596 22.319C89.462 21.824 89.055 21.451 88.551 21.36L43.734 13.273C43.386 13.209 43.029 13.288 42.74 13.49L8.01301 37.709C7.35701 38.073 4.95501 39.722 5.00001 44.305C5.05101 49.282 7.99601 51.542 8.12201 51.636C8.13901 51.649 8.15801 51.657 8.17601 51.669C8.20601 51.69 8.23601 51.709 8.26701 51.727C8.30001 51.746 8.33401 51.762 8.36901 51.778C8.40001 51.793 8.43101 51.806 8.46501 51.818C8.50301 51.832 8.54101 51.842 8.58001 51.852C8.60201 51.859 8.62301 51.868 8.64501 51.873L10.696 52.303C10.363 53.208 10.137 54.342 10.152 55.767C10.177 58.233 10.912 60.031 11.663 61.23L10.074 62.337C9.41401 62.705 7.01601 64.357 7.06301 68.933C7.11301 73.91 10.057 76.175 10.186 76.264C10.297 76.34 10.519 76.457 10.707 76.5L57.721 86.365C57.726 86.366 57.731 86.368 57.736 86.369L59.415 86.721C59.505 86.74 59.597 86.749 59.687 86.749C59.999 86.749 60.305 86.638 60.547 86.432L91.446 60.038C91.831 59.709 91.995 59.19 91.87 58.701C91.744 58.211 91.351 57.835 90.856 57.731L90.304 57.616V50.485L94.533 46.873C94.919 46.543 95.084 46.024 94.958 45.535ZM57.416 50.386C57.729 50.386 58.035 50.275 58.277 50.068L85.521 26.797V35.223L57.171 59.335V50.36C57.254 50.375 57.335 50.386 57.416 50.386ZM10.065 40.479L54.515 49.806V58.776L10.065 49.468V40.479ZM12.128 74.086V65.104L56.577 74.433V83.415L12.128 74.086ZM15.238 60.931V53.256L55.659 61.737C55.664 61.738 55.668 61.74 55.673 61.741L57.352 62.093C57.443 62.112 57.534 62.121 57.624 62.121C57.936 62.121 58.243 62.01 58.485 61.804L59.22 61.175L59.664 61.268V70.247L15.238 60.931ZM87.652 59.79L59.243 83.975L59.234 74.988C59.315 75.004 59.397 75.013 59.479 75.013C59.791 75.013 60.097 74.903 60.339 74.696L61.838 73.416L62.501 73.555C62.591 73.574 62.683 73.583 62.772 73.583C63.085 73.583 63.391 73.472 63.633 73.266L87.652 52.74V59.79ZM90.736 46.629L62.331 70.806L62.321 61.823C62.403 61.838 62.484 61.848 62.565 61.848C62.878 61.848 63.184 61.737 63.426 61.531L90.74 38.199L90.736 46.629Z" fill="black"/>
</svg>
