<svg width="124" height="152" viewBox="0 0 124 152" fill="none" xmlns="http://www.w3.org/2000/svg">
<path d="M81.9426 83.5651C85.1791 82.5623 87.3852 79.9278 87.3852 77.0119C87.3852 76.6864 87.3191 73.8012 84.8268 72.1475C84.6243 72.0112 84.3997 71.8792 84.1751 71.7781C82.8321 71.1272 81.2997 71.092 79.8686 71.6769C79.4723 71.8441 79.0892 72.0464 78.7413 72.3059H78.7281C77.5568 69.3767 74.6814 67.3183 71.3568 67.3183H62.6556L62.6512 35.4231C62.6512 33.0261 60.4627 31.0645 57.7942 31.0645H23.0641C20.3824 31.0645 18.2071 33.0217 18.2071 35.4231V99.5784C18.2071 102.257 20.3956 104.43 23.0641 104.43H57.7942C60.4759 104.43 62.6512 102.472 62.6512 100.062V96.447H68.0718L70.2912 103.484C70.4497 103.99 70.9208 104.328 71.4536 104.328H74.6109C75.2758 104.328 75.8262 103.787 75.8262 103.115V93.465C76.4559 92.8361 77.0107 92.1236 77.473 91.3364L81.9426 83.5651ZM80.8021 73.9156C81.5815 73.5901 82.405 73.5989 83.1007 73.9508C83.2372 74.0079 83.3605 74.0871 83.4706 74.1531C84.9149 75.1207 84.9458 77.003 84.9458 77.0119C84.9458 78.9383 83.2108 80.7503 80.8197 81.3485C80.5027 81.4365 80.2209 81.6432 80.0623 81.9335L75.3287 90.1405C73.9548 92.5374 71.3701 94.024 68.6002 94.024H60.7886L44.4386 94.0284C42.6904 94.0284 41.0127 93.4303 39.6609 92.3835C39.5948 92.3264 39.5156 92.2604 39.4451 92.2164C38.8154 91.6886 38.2738 91.0685 37.8335 90.3471L32.6242 81.8895C32.4217 81.5509 32.0386 81.3398 31.6555 81.3134C31.5542 81.3002 29.3877 81.155 28.4102 79.2858C27.7585 78.0367 27.8817 76.4138 28.7052 75.3231C28.8725 75.0988 29.2556 74.6722 29.969 74.3335C30.3389 74.1664 30.7484 74.0652 31.1314 74.0652C31.4793 74.0652 31.8316 74.1312 32.1794 74.2675C32.8884 74.571 33.4432 75.134 33.7118 75.8773C33.7118 75.8905 33.7251 75.8993 33.7251 75.9125C33.7383 75.9257 33.7383 75.9477 33.7471 75.9565C34.5485 78.1292 35.5613 80.2227 36.7458 82.2282C37.7146 83.8511 38.8331 85.4256 40.0396 86.877C41.594 88.7463 43.8705 89.815 46.2969 89.815H66.6103C69.0587 89.815 71.3572 88.7243 72.9116 86.8198C74.2414 85.1881 75.4479 83.4201 76.4607 81.5596C77.4514 79.7563 78.2881 77.8563 78.953 75.8949C79.2348 75.0328 79.9215 74.2762 80.8021 73.9156ZM40.0174 101.918V95.4312C40.8981 95.871 41.8448 96.1613 42.8224 96.3109L41.0654 101.905L40.0174 101.91L40.0174 101.918ZM41.5718 69.7418H55.258V87.4177H46.275C44.5621 87.4177 42.9724 86.6612 41.8892 85.3594C40.762 83.9871 39.7359 82.5226 38.8112 81.0008C37.728 79.1887 36.7944 77.2536 36.0591 75.2568V75.2436C36.0591 72.2045 38.5291 69.7418 41.5718 69.7418ZM76.834 74.6501C76.7547 74.8085 76.6887 74.9888 76.6314 75.1559C76.0238 76.9811 75.2443 78.758 74.3328 80.4249C73.3861 82.1578 72.2721 83.8027 71.0171 85.3245C69.925 86.6659 68.3134 87.4312 66.5872 87.4312H57.6836V69.7553L71.3563 69.7509C74.1964 69.7421 76.5522 71.9145 76.834 74.6501ZM60.2293 35.4229V67.3181H41.6428V33.4829H57.7944C59.1154 33.4829 60.2293 34.3848 60.2293 35.4229ZM20.6158 99.5871V35.4229C20.6158 34.3761 21.7298 33.4876 23.0509 33.4876H39.2025V67.6831C36.8114 68.4264 34.9092 70.2736 34.0725 72.6134C33.7554 72.3891 33.4208 72.2088 33.0817 72.0637C31.7519 71.5139 30.2284 71.5447 28.8544 72.2C27.7404 72.7278 27.0623 73.4842 26.7584 73.8889C25.3625 75.7361 25.1687 78.3575 26.2608 80.4421C27.4893 82.7512 29.7307 83.4593 30.8579 83.6616L35.7634 91.6222C36.2698 92.4447 36.8907 93.1879 37.5908 93.8169V102.024L23.0636 102.019C21.7118 102.019 20.6158 100.929 20.6158 99.5871ZM60.2293 100.071C60.2293 101.153 59.1372 102.019 57.7941 102.019H43.5804L45.3285 96.4557H60.2299L60.2293 100.071ZM72.3384 101.918L70.5595 96.2534H70.5727C71.5635 96.073 72.5103 95.7344 73.4041 95.2638V101.918L72.3384 101.918Z" fill="black"/>
<path d="M35.3637 59.7315C36.0286 59.7315 36.579 59.1905 36.579 58.5176V52.0876C36.579 51.4235 36.0373 50.8737 35.3637 50.8737C34.6855 50.8737 34.1483 51.4147 34.1483 52.0876V58.5176C34.1439 59.1906 34.6856 59.7315 35.3637 59.7315Z" fill="black"/>
<path d="M45.3378 59.7315C46.0027 59.7315 46.5531 59.1905 46.5531 58.5176V52.0876C46.5531 51.4235 46.0114 50.8737 45.3378 50.8737C44.6728 50.8737 44.1224 51.4147 44.1224 52.0876V58.5176C44.1224 59.1906 44.6641 59.7315 45.3378 59.7315Z" fill="black"/>
<path d="M69.5076 60.541H100.393C102.185 60.541 103.651 59.0764 103.651 57.2864V33.9235C103.651 32.1335 102.185 30.682 100.393 30.682H97.777H97.7638H97.7506H84.9628H84.9496H84.9364H72.1441H72.1309H72.1177H69.5021C67.7099 30.682 66.2436 32.1335 66.2436 33.9235V57.2864C66.248 59.0764 67.7143 60.541 69.5065 60.541H69.5076ZM83.7349 58.1221H73.3428L73.3384 33.0928H83.7305L83.7349 58.1221ZM86.1568 33.0928H96.5489V58.1221H86.1568V33.0928ZM101.23 33.924V57.287C101.23 57.7488 100.86 58.1182 100.397 58.1182L98.975 58.1226V33.0933H100.397C100.855 33.0933 101.23 33.4754 101.23 33.924ZM68.675 33.924C68.675 33.4754 69.0449 33.1016 69.5073 33.1016H70.9164V58.1309H69.5073C69.0449 58.1309 68.675 57.7614 68.675 57.2996V33.924Z" fill="black"/>
<path d="M105.479 72.9476C105.118 72.3627 104.519 71.98 103.845 71.8877L101.939 71.6414C101.476 71.5974 101.014 71.5842 100.551 71.6194C98.9839 71.7337 97.6188 72.7101 96.9451 74.1659L92.2995 84.3784C91.9824 85.0777 91.2867 85.5262 90.5205 85.5262H86.6631C85.0295 85.5262 83.4751 86.2255 82.3786 87.4526C81.4539 88.4994 80.9475 89.8408 80.9475 91.235V92.4621C80.9475 93.7024 81.9603 94.7007 83.2021 94.7007H86.0643L84.0343 102.842C83.8758 103.493 84.2721 104.148 84.915 104.306C85.0163 104.328 85.1176 104.342 85.21 104.342C85.7517 104.342 86.2492 103.972 86.3814 103.418L88.5567 94.692H94.1579L96.3332 103.418C96.4697 103.968 96.9629 104.342 97.5045 104.342C97.6058 104.342 97.6983 104.328 97.7996 104.306C98.4513 104.148 98.8476 103.484 98.6802 102.842L96.6502 94.7007H96.6723C97.7423 94.7007 98.711 94.0366 99.0721 93.0338L105.642 74.8738C105.897 74.2316 105.827 73.5325 105.479 72.9476ZM96.8218 92.2032C96.7997 92.2472 96.7557 92.2692 96.6985 92.2692H83.3831V91.2224C83.3831 90.422 83.6781 89.6479 84.2066 89.0497C84.8274 88.3504 85.7169 87.937 86.6637 87.937H90.5211C92.234 87.937 93.8149 86.9342 94.5106 85.3685L99.1562 75.156C99.4513 74.5051 100.059 74.0653 100.724 74.0169C101.028 73.9949 101.345 74.0037 101.649 74.0389L103.304 74.2412L96.8218 92.2032Z" fill="black"/>
<path d="M100.327 125.473C100.059 125.473 99.7768 125.372 99.5611 125.17C99.5258 125.135 99.4818 125.104 99.4598 125.082C99.0106 124.642 99.0106 123.934 99.4378 123.494C99.8781 123.045 100.587 123.045 101.027 123.472L101.116 123.551C101.556 123.991 101.556 124.699 101.116 125.139C100.904 125.359 100.622 125.473 100.327 125.473Z" fill="black"/>
</svg>
