<svg width="126" height="164" viewBox="0 0 126 164" fill="none" xmlns="http://www.w3.org/2000/svg">
<path d="M112.982 112.061C107.422 112.184 102.804 108.022 102.688 102.784C102.572 97.5462 107.003 93.1853 112.563 93.0626C118.124 92.9399 122.742 97.1012 122.858 102.339C122.973 107.577 118.543 111.938 112.982 112.061ZM112.599 94.6987C107.996 94.8002 104.329 98.4101 104.425 102.746C104.521 107.082 108.343 110.526 112.946 110.425C117.549 110.323 121.217 106.713 121.121 102.377C121.025 98.0417 117.202 94.5971 112.599 94.6987Z" fill="black"/>
<path d="M79.3073 112.804C73.7465 112.927 69.1284 108.765 69.0128 103.527C68.8972 98.2893 73.3273 93.9283 78.8881 93.8056C84.4489 93.6829 89.067 97.8443 89.1826 103.082C89.2982 108.32 84.8681 112.681 79.3073 112.804ZM78.9242 95.4417C74.3212 95.5432 70.6541 99.1531 70.7497 103.489C70.8454 107.825 74.6682 111.269 79.2712 111.168C83.8742 111.066 87.5413 107.456 87.4457 103.12C87.35 98.7848 83.5272 95.3401 78.9242 95.4417Z" fill="black"/>
<path d="M112.776 102.77C112.489 102.777 112.205 102.65 112.034 102.409L100.369 85.9836C100.103 85.6082 100.21 85.0999 100.609 84.8478C101.008 84.5961 101.547 84.6958 101.814 85.0709L113.479 101.496C113.745 101.871 113.638 102.38 113.239 102.632C113.096 102.722 112.935 102.767 112.776 102.77Z" fill="black"/>
<path d="M95.7947 103.753C95.5081 103.76 95.2244 103.632 95.0534 103.391L82.9613 86.3679C82.6948 85.9928 82.8018 85.4845 83.2007 85.2322C83.5988 84.9796 84.1387 85.0796 84.4057 85.4547L96.4983 102.479C96.7646 102.854 96.6573 103.363 96.2581 103.615C96.1153 103.705 95.9545 103.75 95.7947 103.753Z" fill="black"/>
<path d="M88.4583 86.6225L81.2742 86.781C80.7944 86.7916 80.3976 86.434 80.3877 85.9821C80.3777 85.5303 80.7583 85.1555 81.2381 85.1449L88.4222 84.9864C88.9019 84.9759 89.2987 85.3334 89.3087 85.7853C89.3187 86.2372 88.938 86.6119 88.4583 86.6225Z" fill="black"/>
<path d="M96.5244 103.739L79.1157 104.123C78.8068 104.13 78.5175 103.981 78.3565 103.733C78.1952 103.485 78.1863 103.175 78.3331 102.918L85.889 89.7028C86.0374 89.443 86.3226 89.2782 86.6355 89.2713L104.044 88.8872C104.353 88.8803 104.642 89.0287 104.803 89.2767C104.965 89.5246 104.974 89.8351 104.827 90.0917L97.2709 103.307C97.1225 103.567 96.8373 103.732 96.5244 103.739ZM80.5698 102.454L95.9822 102.114L102.59 90.5561L87.1777 90.8962L80.5698 102.454Z" fill="black"/>
<path d="M105.275 86.2515L101.112 86.3433C100.632 86.3539 100.235 85.9964 100.225 85.5445C100.215 85.0926 100.596 84.7178 101.076 84.7073L105.239 84.6154C105.718 84.6048 106.115 84.9624 106.125 85.4143C106.135 85.8662 105.754 86.2409 105.275 86.2515Z" fill="black"/>
<path d="M107.221 68.5498L89.5327 65.2555L75.526 51.1935C75.3946 51.0623 75.2225 50.9885 75.0439 50.9885H40.5343C40.3112 50.9885 40.1004 51.1023 39.9662 51.296L31.3846 63.7221C31.2929 63.8553 31.2438 64.0173 31.2438 64.1833V67.2143V72.7134V77.617C31.239 77.7328 31.0292 78.0485 30.9044 78.2381C30.6208 78.6656 30.2985 79.1514 30.2985 79.7541V84.0284C30.2985 84.3769 30.5149 84.6823 30.8269 84.7715L37.5897 86.7108C38.6314 90.4192 41.7755 92.9725 45.3885 92.9725C48.9504 92.9725 52.0596 90.4787 53.1372 86.8461H88.3066C89.3899 90.4807 92.5019 92.9725 96.0657 92.9725C99.6381 92.9725 102.753 90.4766 103.829 86.8461H106.58C108.69 86.8461 110.408 84.9785 110.408 82.6825V72.6498C110.408 70.6285 109.069 68.9045 107.221 68.5498ZM108.99 77.003C105.685 76.509 104.678 74.5399 104.372 73.4206H108.99V77.003ZM32.6617 67.984H34.2536C35.2595 67.984 36.0781 68.8727 36.0781 69.9654C36.0781 71.058 35.2604 71.9467 34.2536 71.9467H32.6617V67.984ZM45.3885 91.436C42.2831 91.436 39.5928 89.1564 38.8422 85.8836C38.7032 85.3096 38.6323 84.7131 38.6323 84.1124C38.6323 80.0749 41.663 76.7888 45.3875 76.7888C47.9474 76.7888 50.2531 78.3355 51.4063 80.8252C51.879 81.839 52.1286 82.9747 52.1286 84.1114C52.1286 84.71 52.0586 85.3065 51.9187 85.8918C51.17 89.1575 48.4834 91.436 45.3885 91.436ZM96.0657 91.436C92.9651 91.436 90.2748 89.1564 89.5213 85.8857C89.3833 85.3076 89.3134 84.711 89.3134 84.1124C89.3134 83.1089 89.4949 82.1465 89.8569 81.2434C90.9147 78.5374 93.3517 76.7888 96.0648 76.7888C99.7893 76.7888 102.82 80.0739 102.82 84.1124C102.82 84.7131 102.75 85.3086 102.608 85.8928C101.861 89.1575 99.1711 91.436 96.0657 91.436ZM106.58 85.3106H104.157C104.209 84.915 104.24 84.5163 104.24 84.1134C104.24 79.2273 100.573 75.2523 96.0667 75.2523C92.7827 75.2523 89.8342 77.3679 88.5562 80.6377C88.1185 81.7283 87.8973 82.8978 87.8973 84.1134C87.8973 84.5152 87.9285 84.915 87.9795 85.3106H53.4643C53.5163 84.914 53.5475 84.5152 53.5475 84.1134C53.5475 82.7379 53.2459 81.3613 52.674 80.1364C51.2797 77.125 48.4872 75.2533 45.3885 75.2533C40.8812 75.2533 37.2153 79.2283 37.2153 84.1145C37.2153 84.422 37.2389 84.7274 37.2692 85.0308L31.7174 83.439V79.7572C31.7221 79.6414 31.932 79.3267 32.0558 79.1381C32.3403 78.7096 32.6627 78.2238 32.6627 77.6201V73.4852H34.2546C36.0431 73.4852 37.497 71.9067 37.497 69.9664C37.497 68.0261 36.0431 66.4476 34.2546 66.4476H32.6627V64.4406L40.8897 52.527H74.7669L88.4446 66.2579C87.8973 69.8895 87.8973 69.8926 87.8973 69.9643C87.8973 70.3887 88.2149 70.7331 88.6063 70.7331C88.9664 70.7331 89.2623 70.443 89.3087 70.0668C89.3342 69.8916 89.6244 67.9656 89.7908 66.8637L106.98 70.0658C107.901 70.2421 108.615 70.9617 108.878 71.8842H103.533C103.343 71.8842 103.16 71.9672 103.027 72.1148C102.894 72.2614 102.82 72.4602 102.824 72.6673C102.825 72.7195 102.997 77.7492 108.992 78.5415V82.6866C108.99 84.1329 107.91 85.3106 106.58 85.3106Z" fill="black"/>
<path d="M96.0658 80.2513C94.1014 80.2513 92.502 81.9835 92.502 84.1145C92.502 86.2454 94.1005 87.9777 96.0658 87.9777C98.032 87.9777 99.6306 86.2454 99.6306 84.1145C99.6306 81.9835 98.032 80.2513 96.0658 80.2513ZM96.0658 86.4392C94.8832 86.4392 93.9199 85.3957 93.9199 84.1134C93.9199 82.8312 94.8832 81.7877 96.0658 81.7877C97.2503 81.7877 98.2126 82.8312 98.2126 84.1134C98.2126 85.3957 97.2503 86.4392 96.0658 86.4392Z" fill="black"/>
<path d="M45.3847 80.2513C43.4213 80.2513 41.8228 81.9835 41.8228 84.1145C41.8228 86.2454 43.4203 87.9777 45.3847 87.9777C47.3491 87.9777 48.9466 86.2454 48.9466 84.1145C48.9466 81.9835 47.3481 80.2513 45.3847 80.2513ZM45.3847 86.4392C44.2031 86.4392 43.2407 85.3957 43.2407 84.1134C43.2407 82.8312 44.2031 81.7877 45.3847 81.7877C46.5663 81.7877 47.5287 82.8312 47.5287 84.1134C47.5287 85.3957 46.5663 86.4392 45.3847 86.4392Z" fill="black"/>
<path d="M74.4927 55.9003C74.3594 55.7558 74.1798 55.6748 73.9917 55.6748H49.0355H42.5346C42.3464 55.6748 42.1659 55.7558 42.0335 55.9003L39.8971 58.2178C37.998 60.276 37.7286 63.473 39.2732 65.6604C40.3972 67.2194 42.1999 68.0097 44.6294 68.0097C44.6294 68.0097 44.6294 68.0097 44.6303 68.0097C44.8874 68.0097 45.154 68.0015 45.3894 67.9851H83.9166C83.9241 67.9851 83.9307 67.9851 83.9355 67.9851C84.3278 67.9851 84.6444 67.6407 84.6444 67.2163C84.6444 66.9508 84.5197 66.7161 84.3306 66.5777L74.4927 55.9003ZM62.9561 57.2123V66.4476H46.4056L49.5592 57.2123H62.9561ZM44.6284 66.4711C42.6291 66.4711 41.2423 65.8951 40.3944 64.7184C39.2846 63.1471 39.502 60.8193 40.8992 59.3043L42.8276 57.2123H48.0476L44.8893 66.4629C44.8033 66.465 44.7126 66.4711 44.6284 66.4711ZM64.3741 66.4476V57.2123H73.6977L82.2046 66.4465L64.3741 66.4476Z" fill="black"/>
<path d="M45.3365 70.8254C44.947 70.8561 44.653 71.2241 44.6823 71.6464C44.7088 72.0697 45.0463 72.3915 45.4395 72.3587C45.8309 72.33 55.0127 71.7489 56.3201 81.8246C56.3702 82.209 56.6736 82.4868 57.0215 82.4868C57.0546 82.4868 57.0876 82.4847 57.1207 82.4796C57.5083 82.4201 57.7787 82.0317 57.7248 81.6114C56.2321 70.1017 45.4508 70.8172 45.3365 70.8254Z" fill="black"/>
<path fill-rule="evenodd" clip-rule="evenodd" d="M22.0189 89.2808H40.5269C42.5132 89.2808 44.1418 91.0317 44.1418 93.1742V95.7677C44.1418 96.1034 43.8851 96.3831 43.5704 96.3831H42.8981C42.7973 96.3831 42.7117 96.4687 42.7117 96.5773L42.6262 98.6409C42.5865 99.5097 42.2748 99.9211 41.7492 100.51C41.3886 100.915 41.2175 101.386 41.2175 101.952L41.2481 106.03C41.2634 108.169 42.8921 109.907 44.8782 109.907H52.6305C55.4294 109.907 57.8007 108.103 58.7479 105.263L59.8815 101.833C60.2574 100.705 60.398 99.6513 60.3338 98.4533L59.6126 84.3238C59.6035 84.1461 59.4079 84.0638 59.2918 84.1889L58.0573 85.4363C56.6731 86.8351 54.6625 84.7616 55.7656 83.1785L59.5362 77.7776C59.9824 77.1457 60.6301 76.7903 61.3666 76.7903C62.3688 76.7903 63.151 76.8923 64.08 76.3525L65.559 75.5001C66.3107 75.069 67.0532 74.8024 67.8966 74.6905C68.4282 74.6148 68.9446 74.8419 69.2808 75.2895C69.6169 75.7371 69.7024 76.3328 69.5222 76.8725L67.6765 82.4083C67.4565 83.0666 66.8943 83.4944 66.2373 83.4944H63.4689C63.3344 83.4944 63.2488 83.6294 63.2886 83.7643L66.0173 92.9135C66.1579 93.3776 66.274 93.8417 66.384 94.3123L68.7307 104.65C68.7552 104.742 68.8255 104.802 68.911 104.812C72.7612 104.897 76.2568 107.247 78.0227 110.937C78.4046 111.746 78.148 112.697 77.3963 113.135C77.3168 113.184 77.2802 113.28 77.3016 113.372C77.5429 114.257 77.6682 115.192 77.6682 116.12C77.6682 121.472 73.6409 125.799 68.6817 125.799C65.076 125.799 61.8279 123.472 60.4133 119.918C60.3736 119.826 60.288 119.773 60.2025 119.799C59.3896 119.967 58.5982 119.411 58.418 118.536C58.308 118.006 58.2377 117.466 58.2072 116.926C58.198 116.818 58.1216 116.732 58.0208 116.732L33.7311 116.739C33.6302 116.739 33.5508 116.824 33.5447 116.923C33.1627 121.929 29.2667 125.802 24.5887 125.802C19.9104 125.802 16.0144 121.935 15.6327 116.923C15.6235 116.814 15.538 116.739 15.4463 116.739H10.1264C8.84604 116.729 7.82239 115.62 7.82239 114.26C7.82239 109.297 9.37774 105.246 12.3112 101.438C14.3524 98.7915 16.8489 96.7378 19.217 95.7669C19.2964 95.734 19.3423 95.6583 19.3423 95.5727V92.1696C19.3453 90.5701 20.5493 89.2799 22.0191 89.2799L22.0189 89.2808ZM36.2183 115.291C36.203 107.692 35.2955 100.859 26.0029 101.346C18.9168 101.718 13.0863 107.454 12.8055 115.281C12.7963 115.399 12.885 115.491 12.9919 115.491H36.0284C36.1323 115.491 36.2183 115.4 36.2183 115.291ZM11.654 115.298C11.929 106.78 18.2329 100.52 25.9395 100.115C35.9594 99.5916 37.3369 106.905 37.362 115.291C37.362 115.399 37.4475 115.492 37.5483 115.492H58.0426C58.1434 115.492 58.2228 115.406 58.229 115.297C58.5804 109.906 62.4458 105.542 67.4048 104.884C67.5209 104.868 67.5912 104.749 67.5698 104.631L65.2841 94.5962C65.1833 94.1486 65.0641 93.7109 64.9388 93.283L62.0726 83.6367C62.0481 83.5512 61.9778 83.4919 61.8923 83.4919H60.9297C60.8197 83.4919 60.7342 83.594 60.7433 83.7124L61.4859 98.3913C61.5561 99.7473 61.3911 100.968 60.9695 102.249L59.8358 105.678C58.7327 109.005 55.9246 111.138 52.6458 111.138H44.8936C42.2718 111.138 40.145 108.854 40.1206 106.033L40.09 101.956C40.0808 101.07 40.3711 100.304 40.9334 99.6649C41.2389 99.3194 41.4742 99.1087 41.4956 98.5855L41.575 96.5976C41.5842 96.4791 41.4956 96.3869 41.3886 96.3869H22.0678C19.3208 96.3869 15.88 98.7533 13.2127 102.226C10.4443 105.823 8.98982 109.588 8.98982 114.265C8.98982 114.946 9.50623 115.496 10.1326 115.496H11.4863C11.5688 115.492 11.654 115.409 11.654 115.298ZM29.6857 116.907C29.3251 119.629 27.1526 121.666 24.5858 121.666C22.0191 121.666 19.8465 119.625 19.4859 116.907C19.4707 116.805 19.3912 116.729 19.2995 116.729H16.9772C16.8611 116.729 16.7725 116.831 16.7908 116.956C17.1911 121.271 20.5676 124.566 24.5981 124.566C28.6346 124.566 32.005 121.261 32.4053 116.956C32.4145 116.838 32.3259 116.729 32.2189 116.729H29.8966C29.7805 116.729 29.6949 116.808 29.6857 116.907ZM28.3259 116.729H20.8395C20.7143 116.729 20.6287 116.848 20.6532 116.973C21.029 118.977 22.6699 120.429 24.5797 120.429C26.4956 120.429 28.1304 118.971 28.5062 116.973C28.5367 116.831 28.4573 116.729 28.3259 116.729ZM73.6965 114.784C73.7668 115.156 73.7974 115.535 73.7974 115.903C73.7974 118.971 71.4903 121.455 68.6425 121.455C66.7327 121.455 64.9818 120.317 64.0895 118.506C64.0437 118.414 63.949 118.371 63.8543 118.414L61.6481 119.273C61.5472 119.316 61.4922 119.441 61.5381 119.55C62.797 122.601 65.5991 124.562 68.7128 124.562C73.0458 124.562 76.5596 120.781 76.5596 116.111C76.5596 115.334 76.4649 114.577 76.2693 113.827C76.2387 113.708 76.1287 113.649 76.0187 113.692L73.8125 114.551C73.727 114.583 73.6721 114.682 73.6965 114.784ZM72.3582 115.113L65.3179 117.842C65.2018 117.884 65.1529 118.026 65.2171 118.144C65.9443 119.425 67.2338 120.218 68.6425 120.218C70.8548 120.218 72.6546 118.279 72.6546 115.897C72.6546 115.676 72.6393 115.475 72.6148 115.275C72.5934 115.146 72.4682 115.07 72.3582 115.113ZM59.4111 117.203C59.4508 117.565 59.5058 117.98 59.5822 118.332C59.677 118.602 59.8939 118.645 60.1139 118.559L76.8713 112.056C77.0669 111.947 77.1219 111.71 77.0363 111.499C72.2787 101.563 58.323 106.276 59.4111 117.203ZM61.382 78.0248C61.0062 78.0248 60.6945 78.1927 60.4653 78.5119L56.6946 83.9029C56.4196 84.2978 56.9146 84.8968 57.2905 84.5249L59.0903 82.7049C59.3805 82.4086 59.7381 82.2572 60.1383 82.2572H66.271C66.4421 82.2572 66.5766 82.1552 66.6316 81.9874L68.4772 76.4516C68.5231 76.3068 68.5017 76.1653 68.4161 76.0567C68.3306 75.9382 68.2053 75.8888 68.0647 75.9053C67.3619 75.9974 66.7416 76.2245 66.1182 76.58L64.6393 77.4324C63.472 78.107 62.6196 78.0248 61.382 78.0248ZM40.5366 90.5114H22.0191C21.1758 90.5114 20.4852 91.2519 20.4852 92.1635V94.9446C20.4852 95.0532 20.5707 95.1454 20.6716 95.1454H42.8007C42.9015 95.1454 42.9871 95.0532 42.9871 94.9446V93.1739C42.9993 91.6994 41.8964 90.5114 40.5366 90.5114Z" fill="black"/>
</svg>
