<svg width="110" height="107" viewBox="0 0 110 107" fill="none" xmlns="http://www.w3.org/2000/svg">
<path fill-rule="evenodd" clip-rule="evenodd" d="M77.1267 92.288C70.7599 92.288 65.5779 87.1196 65.5779 80.7653C65.5779 74.4111 70.7599 69.2427 77.1267 69.2427C81.0767 69.2427 84.7097 71.2236 86.8483 74.5431C86.9771 74.7445 86.9197 75.0136 86.7178 75.1421C86.516 75.2723 86.2463 75.2133 86.1158 75.0119C84.139 71.9425 80.7774 70.111 77.1265 70.111C71.238 70.111 66.4476 74.8906 66.4476 80.7657C66.4476 86.6408 71.238 91.4203 77.1265 91.4203C80.5074 91.4203 83.615 89.8734 85.6547 87.179C85.7991 86.988 86.0723 86.9498 86.2637 87.0939C86.4551 87.238 86.4934 87.5106 86.349 87.7016C84.1426 90.6165 80.7826 92.288 77.1267 92.288Z" fill="black"/>
<path fill-rule="evenodd" clip-rule="evenodd" d="M73.6727 79.7658L77.0484 82.2119L80.4241 79.7658L79.1347 75.8057H74.9621L73.6727 79.7658ZM77.0484 83.1842C76.9579 83.1842 76.8692 83.1564 76.7926 83.1008L72.9053 80.2831C72.7522 80.172 72.6878 79.9776 72.747 79.7988L74.2312 75.2397C74.2904 75.0609 74.4574 74.9393 74.6454 74.9393H79.4496C79.6375 74.9393 79.8063 75.0609 79.8637 75.2397L81.348 79.7988C81.4054 79.9776 81.3428 80.1738 81.1896 80.2849L77.3023 83.1026C77.2258 83.1582 77.137 83.1859 77.0465 83.1859L77.0484 83.1842Z" fill="black"/>
<path fill-rule="evenodd" clip-rule="evenodd" d="M80.2 91.8578C80.1547 91.8578 80.1095 91.8508 80.066 91.8369C79.838 91.7623 79.7128 91.5175 79.7876 91.29L80.4245 89.3317L77.0488 86.8856L73.6731 89.3317L74.2942 91.2397C74.3691 91.4672 74.2438 91.712 74.0158 91.7866C73.7879 91.8613 73.5425 91.7363 73.4677 91.5088L72.749 89.3005C72.6916 89.1217 72.7543 88.9255 72.9074 88.8144L76.7947 85.9967C76.9461 85.8856 77.1532 85.8856 77.3063 85.9967L81.1936 88.8144C81.3467 88.9255 81.4093 89.1216 81.3519 89.3005L80.6176 91.5592C80.5585 91.7432 80.3879 91.8595 80.2035 91.8595L80.2 91.8578Z" fill="black"/>
<path fill-rule="evenodd" clip-rule="evenodd" d="M69.4583 80.5884C69.2304 80.5884 69.0372 80.4114 69.0233 80.1805C69.0094 79.9409 69.1921 79.736 69.4305 79.7204L73.1333 79.4964C73.3735 79.4825 73.5788 79.6648 73.5945 79.9044C73.6084 80.144 73.4257 80.3488 73.1856 80.3645L69.4827 80.5867H69.4566L69.4583 80.5884Z" fill="black"/>
<path fill-rule="evenodd" clip-rule="evenodd" d="M77.0484 86.7813C76.8083 86.7813 76.6134 86.5869 76.6134 86.3473V82.7483C76.6134 82.5087 76.8083 82.3143 77.0484 82.3143C77.2885 82.3143 77.4834 82.5087 77.4834 82.7483V86.3473C77.4834 86.5869 77.2885 86.7813 77.0484 86.7813Z" fill="black"/>
<path fill-rule="evenodd" clip-rule="evenodd" d="M84.169 80.552H84.1429L80.9116 80.3645C80.6715 80.3506 80.4888 80.1458 80.5027 79.9062C80.5166 79.6666 80.7237 79.4843 80.9621 79.4982L84.1951 79.6857C84.4352 79.6996 84.6179 79.9045 84.604 80.144C84.5918 80.3749 84.3987 80.5537 84.1707 80.5537L84.169 80.552Z" fill="black"/>
<path fill-rule="evenodd" clip-rule="evenodd" d="M79.4499 75.8053C79.3977 75.8053 79.3437 75.7949 79.2915 75.7758C79.067 75.6873 78.9574 75.4356 79.0462 75.2133L80.2677 72.1057C80.3564 71.8835 80.6087 71.7724 80.8315 71.8609C81.0542 71.9477 81.1655 72.2012 81.0768 72.4234L79.8535 75.531C79.7857 75.7029 79.6221 75.8071 79.4481 75.8071L79.4499 75.8053Z" fill="black"/>
<path fill-rule="evenodd" clip-rule="evenodd" d="M74.6474 75.8053C74.4699 75.8053 74.3028 75.696 74.2385 75.5206L73.1736 72.6039C73.0918 72.3783 73.2066 72.13 73.4328 72.0484C73.659 71.9668 73.9079 72.0831 73.9896 72.3071L75.0563 75.2237C75.1381 75.4494 75.0215 75.6977 74.7953 75.781C74.7465 75.7984 74.6961 75.8071 74.6474 75.8071L74.6474 75.8053Z" fill="black"/>
<path fill-rule="evenodd" clip-rule="evenodd" d="M73.5823 72.8907H73.558L69.963 72.7032C69.7229 72.691 69.5384 72.4862 69.5506 72.2466C69.5628 72.007 69.7664 71.823 70.0082 71.8351L73.2883 72.007L74.1287 69.8247C74.2157 69.6007 74.4663 69.4896 74.6907 69.5747C74.9152 69.6598 75.0266 69.9115 74.9413 70.1354L73.9895 72.6111C73.9234 72.7795 73.7615 72.8889 73.584 72.8889L73.5823 72.8907Z" fill="black"/>
<path fill-rule="evenodd" clip-rule="evenodd" d="M80.673 72.6996C80.4938 72.6996 80.332 72.5902 80.2676 72.4218L79.3958 70.1561C79.3088 69.9322 79.4219 69.6822 79.6464 69.5954C79.8708 69.5086 80.1214 69.6214 80.2084 69.8454L80.9671 71.8176L84.0261 71.6579C84.2662 71.6457 84.4698 71.8298 84.482 72.0693C84.4941 72.3089 84.3114 72.5138 84.0713 72.5259L80.6956 72.703H80.673L80.673 72.6996Z" fill="black"/>
<path fill-rule="evenodd" clip-rule="evenodd" d="M67.0797 85.9445C66.8883 85.9445 66.7108 85.816 66.6586 85.6233C66.5977 85.3924 66.7352 85.1545 66.9666 85.092L68.7902 84.6042L69.0095 80.4462L66.0148 79.3003C65.7903 79.2135 65.679 78.9635 65.7642 78.7396C65.8495 78.5156 66.1018 78.4045 66.3263 78.4896L69.615 79.75C69.7907 79.8177 69.9038 79.9896 69.8934 80.1771L69.6411 84.9637C69.6306 85.1512 69.5019 85.311 69.3192 85.3596L67.1911 85.929C67.1545 85.9394 67.1163 85.9446 67.078 85.9446L67.0797 85.9445Z" fill="black"/>
<path fill-rule="evenodd" clip-rule="evenodd" d="M94.5222 71.4253C92.7856 71.4253 91.0734 71.8802 89.53 72.7691C87.2123 74.1041 85.5557 76.2587 84.863 78.8366C84.1704 81.4148 84.5271 84.1091 85.8652 86.4197C87.2033 88.7322 89.3628 90.385 91.9466 91.0762C94.5306 91.7672 97.2292 91.413 99.5469 90.0779C104.33 87.3227 105.975 81.1979 103.213 76.425C101.875 74.1125 99.7157 72.4597 97.1301 71.7686C96.267 71.5377 95.3918 71.4231 94.5218 71.4231L94.5222 71.4253ZM94.557 92.2831C90.7915 92.2849 87.125 90.3352 85.1103 86.8542C83.6573 84.3421 83.271 81.4151 84.0227 78.6111C84.7762 75.809 86.5771 73.4671 89.0951 72.0156C91.613 70.5642 94.5466 70.1788 97.357 70.9305C100.165 71.6822 102.514 73.4791 103.968 75.9914C106.969 81.1789 105.18 87.8349 99.9828 90.83C98.2723 91.8162 96.4033 92.2831 94.557 92.2831Z" fill="black"/>
<path fill-rule="evenodd" clip-rule="evenodd" d="M99.7634 90.8889C99.6138 90.8889 99.4676 90.8108 99.3858 90.6719L88.935 72.6092C88.815 72.4009 88.8863 72.137 89.0934 72.0172C89.3022 71.8974 89.5667 71.9686 89.6885 72.1769L100.141 90.2396C100.261 90.4462 100.19 90.7118 99.981 90.8316C99.9114 90.8715 99.8383 90.8906 99.7635 90.8906L99.7634 90.8889Z" fill="black"/>
<path fill-rule="evenodd" clip-rule="evenodd" d="M91.8147 91.9253C91.5955 91.9253 91.4075 91.7604 91.3832 91.5382C90.8194 86.3577 88.3955 82.1702 84.1811 79.0938C83.9879 78.9514 83.9462 78.6806 84.0871 78.4878C84.2298 78.2951 84.5012 78.2517 84.6944 78.3941C89.1141 81.6215 91.6546 86.0141 92.248 91.4461C92.2741 91.6839 92.1018 91.8992 91.8617 91.9252C91.846 91.9252 91.8303 91.927 91.8147 91.927L91.8147 91.9253Z" fill="black"/>
<path fill-rule="evenodd" clip-rule="evenodd" d="M104.637 84.5382C104.548 84.5382 104.458 84.5104 104.381 84.4549C99.9617 81.2275 97.4212 76.8349 96.8296 71.4029C96.8035 71.165 96.9758 70.9498 97.2142 70.9237C97.4526 70.8977 97.6666 71.0696 97.6944 71.3091C98.2599 76.4896 100.682 80.6771 104.897 83.7554C105.091 83.8977 105.133 84.1686 104.991 84.3613C104.905 84.4776 104.773 84.5384 104.639 84.5384L104.637 84.5382Z" fill="black"/>
<path fill-rule="evenodd" clip-rule="evenodd" d="M88.4182 88.7533C87.8318 88.7533 87.2297 88.7325 86.6155 88.6926C86.3771 88.6769 86.1944 88.4703 86.21 88.2307C86.2257 87.9912 86.4328 87.8106 86.6729 87.8262C95.2096 88.3956 100.845 85.0311 103.905 77.5467C103.995 77.3244 104.249 77.2185 104.472 77.3088C104.695 77.3991 104.801 77.6526 104.711 77.8748C101.758 85.1006 96.2816 88.7548 88.4185 88.7548L88.4182 88.7533Z" fill="black"/>
<path fill-rule="evenodd" clip-rule="evenodd" d="M85.3905 83.5155C84.9955 83.5155 84.597 83.5069 84.1916 83.4878C83.9514 83.4773 83.7652 83.2742 83.7757 83.0347C83.7861 82.7951 83.9915 82.6093 84.2298 82.6215C92.1696 82.9808 97.5115 79.8402 100.567 73.0192C100.665 72.8005 100.922 72.7015 101.142 72.8005C101.361 72.8977 101.458 73.1547 101.361 73.3734C98.3453 80.1076 92.9738 83.5156 85.389 83.5156L85.3905 83.5155Z" fill="black"/>
<path fill-rule="evenodd" clip-rule="evenodd" d="M87.8787 68.6996C87.863 68.6996 87.8474 68.6996 87.83 68.6978L77.2487 67.5485C77.1338 67.5364 77.0294 67.4791 76.9563 67.3888L76.0149 66.2256C75.9366 66.1284 75.9036 66.0017 75.9245 65.8801C75.9471 65.7569 76.0184 65.6492 76.1263 65.5833L76.9876 65.0555L76.6031 63.6926C76.5718 63.5798 76.5874 63.46 76.6448 63.3576C76.7023 63.2569 76.8015 63.1822 76.9146 63.1544L78.1761 62.8333L77.8229 61.5833C77.7915 61.4704 77.8072 61.3506 77.8646 61.2482C77.9238 61.1475 78.0212 61.0728 78.1343 61.0451L79.3958 60.7239L79.0426 59.4739C79.0113 59.361 79.0252 59.2412 79.0844 59.1388C79.1435 59.0381 79.241 58.9635 79.3541 58.9357L80.6174 58.6145L80.2641 57.3645C80.2328 57.2516 80.2467 57.1319 80.3059 57.0294C80.365 56.9287 80.4625 56.8541 80.5756 56.8263L81.952 56.4773L81.9798 55.4687C81.9833 55.3437 82.0407 55.2274 82.1364 55.1475C82.2321 55.0676 82.3574 55.0329 82.4809 55.052L83.9617 55.2829C84.0766 55.3003 84.1775 55.3628 84.2453 55.4548L90.5338 64.0241C90.6765 64.2168 90.633 64.4894 90.4399 64.63C90.2467 64.7724 89.9735 64.729 89.8326 64.5363L83.6501 56.1127L82.8358 55.986L82.8132 56.828C82.8079 57.0224 82.6739 57.1891 82.4843 57.236L81.2228 57.5572L81.576 58.8072C81.6073 58.92 81.5916 59.0398 81.5342 59.1422C81.4751 59.2429 81.3776 59.3176 81.2645 59.3453L80.003 59.6665L80.3562 60.9148C80.3562 60.9165 80.3562 60.92 80.358 60.9235C80.3701 60.9704 80.3754 61.019 80.3719 61.0641C80.3667 61.1318 80.3458 61.1961 80.3127 61.2533C80.2814 61.3072 80.2379 61.354 80.1857 61.3905H80.184C80.1439 61.4183 80.0987 61.4391 80.0482 61.453C80.0448 61.453 80.043 61.4547 80.0413 61.4547L78.7815 61.7742L79.1347 63.0242C79.166 63.137 79.1521 63.2568 79.093 63.3592C79.0338 63.4599 78.9363 63.5346 78.8232 63.5624L77.5617 63.8835L77.9149 65.1335C77.9672 65.3211 77.8888 65.519 77.7235 65.6214L77.0032 66.0624L77.52 66.703L87.9236 67.8332C88.1619 67.8593 88.3342 68.0728 88.3081 68.3124C88.2837 68.5346 88.0958 68.6995 87.8766 68.6995L87.8787 68.6996Z" fill="black"/>
<path fill-rule="evenodd" clip-rule="evenodd" d="M88.472 68.1058L90.0277 69.0033C90.4418 69.2412 90.9255 69.3037 91.3919 69.1804C91.8565 69.0554 92.2445 68.7603 92.4846 68.3471L92.5577 68.2203C92.7978 67.8071 92.8587 67.3245 92.7352 66.861C92.6116 66.3974 92.3141 66.0102 91.9 65.7707L90.3426 64.8731L88.472 68.1075V68.1058ZM90.9186 70.1092C90.4574 70.1092 90.0016 69.9894 89.5944 69.7533L87.6612 68.6388C87.4524 68.519 87.3828 68.2533 87.5011 68.0468L89.8084 64.0606C89.9285 63.8523 90.1947 63.7828 90.4035 63.9026L92.3367 65.0155C92.9527 65.3696 93.3929 65.9443 93.5774 66.6318C93.7618 67.3193 93.6679 68.0363 93.3129 68.6509L93.2398 68.7776C92.8848 69.3905 92.3106 69.8315 91.6198 70.0155C91.3884 70.078 91.1535 70.1075 90.9203 70.1075L90.9186 70.1092Z" fill="black"/>
<path fill-rule="evenodd" clip-rule="evenodd" d="M89.5718 69.6755C89.4988 69.6755 89.4239 69.6564 89.3543 69.6165C89.1455 69.4967 89.0742 69.2311 89.1943 69.0245L91.5016 65.0384C91.6216 64.8301 91.8879 64.7589 92.0949 64.8804C92.3037 65.0002 92.3733 65.2658 92.255 65.4741L89.9494 69.4603C89.8694 69.5992 89.7232 69.6773 89.5718 69.6773L89.5718 69.6755Z" fill="black"/>
<path fill-rule="evenodd" clip-rule="evenodd" d="M88.7469 67.196C88.6982 67.196 88.6478 67.1873 88.599 67.17L78.5674 63.5519C78.3412 63.4703 78.2246 63.222 78.3064 62.9964C78.3882 62.7707 78.637 62.6543 78.8632 62.7359L88.8949 66.354C89.1211 66.4356 89.2376 66.6838 89.1559 66.9095C89.0932 67.0866 88.9244 67.196 88.7469 67.196Z" fill="black"/>
<path fill-rule="evenodd" clip-rule="evenodd" d="M89.4534 65.9725C89.3577 65.9725 89.2638 65.9412 89.182 65.877L80.8836 59.2623C80.6957 59.113 80.6644 58.8404 80.8157 58.6529C80.9654 58.4654 81.2386 58.4359 81.4282 58.5852L89.7248 65.1999C89.9128 65.3492 89.9441 65.6235 89.7944 65.8093C89.7092 65.9169 89.5822 65.9725 89.4534 65.9725Z" fill="black"/>
<path fill-rule="evenodd" clip-rule="evenodd" d="M78.4547 67.6755C78.3799 67.6755 78.3068 67.6564 78.2372 67.6183C78.0302 67.4985 77.9588 67.2328 78.0771 67.0245L84.2075 56.4325C84.3275 56.2242 84.5938 56.153 84.8008 56.2745C85.0096 56.3943 85.0792 56.6599 84.9609 56.8683L78.8324 67.4603C78.7523 67.5992 78.6061 67.6773 78.4548 67.6773L78.4547 67.6755Z" fill="black"/>
<path fill-rule="evenodd" clip-rule="evenodd" d="M80.8539 67.9356C80.7791 67.9356 80.706 67.9165 80.6364 67.8783C80.4293 67.7585 80.358 67.4929 80.4763 67.2863L85.6338 58.3765C85.7538 58.1682 86.0201 58.097 86.2271 58.2168C86.4359 58.3366 86.5055 58.6022 86.3872 58.8105L81.2315 67.7203C81.1515 67.8592 81.0053 67.9373 80.8539 67.9373L80.8539 67.9356Z" fill="black"/>
<path fill-rule="evenodd" clip-rule="evenodd" d="M83.2518 68.196C83.177 68.196 83.1039 68.1769 83.0343 68.137C82.8273 68.0172 82.7559 67.7515 82.8743 67.545L87.0573 60.3174C87.1774 60.1091 87.4436 60.0379 87.6507 60.1594C87.8595 60.2792 87.9291 60.5448 87.8108 60.7532L83.6277 67.9807C83.5476 68.1196 83.4015 68.1977 83.2501 68.1977L83.2518 68.196Z" fill="black"/>
<path fill-rule="evenodd" clip-rule="evenodd" d="M85.6515 68.4582C85.5767 68.4582 85.5036 68.4391 85.434 68.3992C85.2269 68.2794 85.1556 68.0138 85.2739 67.8054L88.4843 62.2588C88.6044 62.0504 88.8706 61.9793 89.0777 62.1008C89.2865 62.2206 89.3561 62.4862 89.2377 62.6945L86.0291 68.2399C85.949 68.3787 85.8029 68.4569 85.6515 68.4569L85.6515 68.4582Z" fill="black"/>
<path fill-rule="evenodd" clip-rule="evenodd" d="M67.149 74.6644C66.7472 74.6644 66.4211 74.3404 66.4211 73.9411V52.124C66.4211 52.1067 66.4211 52.0864 66.424 52.0691L67.0151 44.3083C67.4024 38.3679 67.4344 22.0372 67.3005 16.1313C67.283 15.3819 66.7792 14.7626 66.0454 14.5919C65.4747 14.4588 64.8661 14.3894 64.2371 14.3894C63.6081 14.3894 62.9995 14.4559 62.4288 14.5919C61.695 14.7627 61.1912 15.3819 61.1737 16.1313C61.0427 22.037 61.0718 38.3683 61.4591 44.3172L62.0502 52.0691C62.0502 52.0864 62.0531 52.1067 62.0531 52.124V73.9411C62.0531 74.3404 61.727 74.6644 61.3251 74.6644C60.9233 74.6644 60.5972 74.3404 60.5972 73.9411V52.15L60.006 44.4159C59.6158 38.4234 59.5838 22.0233 59.7148 16.0974C59.7469 14.6795 60.702 13.5077 62.091 13.1807C62.7724 13.0216 63.4916 12.9405 64.2342 12.9405C64.9767 12.9405 65.6959 13.0216 66.3773 13.1807C67.7664 13.5048 68.7214 14.6795 68.7535 16.0974C68.8845 22.0233 68.8525 38.424 68.4652 44.4077L67.8741 52.1507V73.9418C67.8741 74.3411 67.5479 74.6652 67.1461 74.6652L67.149 74.6644Z" fill="black"/>
<path fill-rule="evenodd" clip-rule="evenodd" d="M61.3226 74.6644C60.9149 74.6644 60.5858 74.9943 60.5858 75.3965C60.5858 75.8016 60.9178 76.1286 61.3226 76.1286H67.1551C67.5628 76.1286 67.8919 75.7987 67.8919 75.3965C67.8919 74.9914 67.5599 74.6644 67.1551 74.6644H61.3226ZM67.1551 77.5753H61.3226C60.1141 77.5753 59.1299 76.5973 59.1299 75.3965C59.1299 74.1957 60.1141 73.2177 61.3226 73.2177H67.1551C68.3665 73.2177 69.3478 74.1957 69.3478 75.3965C69.3478 76.6002 68.3665 77.5753 67.1551 77.5753Z" fill="black"/>
<path fill-rule="evenodd" clip-rule="evenodd" d="M67.7401 45.0867H60.7312C60.3293 45.0867 60.0032 44.7626 60.0032 44.3633C60.0032 43.9611 60.3293 43.6399 60.7312 43.6399H67.7401C68.142 43.6399 68.4681 43.9611 68.4681 44.3633C68.4681 44.7626 68.142 45.0867 67.7401 45.0867Z" fill="black"/>
<path fill-rule="evenodd" clip-rule="evenodd" d="M67.149 52.8474H61.3252C60.9233 52.8474 60.5972 52.5233 60.5972 52.124C60.5972 51.7247 60.9233 51.4007 61.3252 51.4007H67.149C67.5509 51.4007 67.877 51.7247 67.877 52.124C67.877 52.5233 67.5509 52.8474 67.149 52.8474Z" fill="black"/>
<path fill-rule="evenodd" clip-rule="evenodd" d="M67.149 56.3282H61.3252C60.9233 56.3282 60.5972 56.007 60.5972 55.6048C60.5972 55.2055 60.9233 54.8814 61.3252 54.8814H67.149C67.5509 54.8814 67.877 55.2055 67.877 55.6048C67.877 56.007 67.5509 56.3282 67.149 56.3282Z" fill="black"/>
<path fill-rule="evenodd" clip-rule="evenodd" d="M25.2053 14.2795C19.0873 14.2795 14.1107 20.8883 14.1107 29.0106C14.1107 37.1328 19.0872 43.7417 25.2053 43.7417C31.3234 43.7417 36.2999 37.1329 36.2999 29.0106C36.2999 20.8884 31.3234 14.2795 25.2053 14.2795ZM25.2053 45.1854C18.2836 45.1854 12.6548 37.9284 12.6548 29.0076C12.6548 20.0869 18.2836 12.8298 25.2053 12.8298C32.127 12.8298 37.7557 20.0868 37.7557 29.0076C37.7557 37.9284 32.127 45.1854 25.2053 45.1854Z" fill="black"/>
<path fill-rule="evenodd" clip-rule="evenodd" d="M25.2053 16.9326C20.5608 16.9326 16.7809 22.3493 16.7809 29.0074C16.7809 35.6683 20.5606 41.0822 25.2053 41.0822C29.85 41.0822 33.6297 35.6656 33.6297 29.0074C33.6297 22.3465 29.85 16.9326 25.2053 16.9326ZM25.2053 42.5319C19.7571 42.5319 15.3251 36.467 15.3251 29.0104C15.3251 21.5541 19.757 15.4889 25.2053 15.4889C30.6536 15.4889 35.0856 21.5537 35.0856 29.0104C35.0856 36.4667 30.6536 42.5319 25.2053 42.5319Z" fill="black"/>
<path fill-rule="evenodd" clip-rule="evenodd" d="M19.5742 39.8237C19.1723 39.8237 18.8462 39.5025 18.8462 39.1003V18.9211C18.8462 18.5189 19.1723 18.1977 19.5742 18.1977C19.976 18.1977 20.3022 18.5189 20.3022 18.9211V39.1003C20.3022 39.5025 19.976 39.8237 19.5742 39.8237Z" fill="black"/>
<path fill-rule="evenodd" clip-rule="evenodd" d="M23.3275 42.263C22.9256 42.263 22.5995 41.9389 22.5995 41.5396V16.4788C22.5995 16.0795 22.9256 15.7555 23.3275 15.7555C23.7293 15.7555 24.0554 16.0795 24.0554 16.4788V41.5396C24.0554 41.9389 23.7293 42.263 23.3275 42.263Z" fill="black"/>
<path fill-rule="evenodd" clip-rule="evenodd" d="M27.0838 42.263C26.682 42.263 26.3558 41.9389 26.3558 41.5396V16.4788C26.3558 16.0795 26.682 15.7555 27.0838 15.7555C27.4857 15.7555 27.8118 16.0795 27.8118 16.4788V41.5396C27.8118 41.9389 27.4857 42.263 27.0838 42.263Z" fill="black"/>
<path fill-rule="evenodd" clip-rule="evenodd" d="M30.8372 39.8237C30.4354 39.8237 30.1093 39.5025 30.1093 39.1003V18.9211C30.1093 18.5189 30.4354 18.1977 30.8372 18.1977C31.242 18.1977 31.5652 18.5189 31.5652 18.9211V39.1003C31.5652 39.5025 31.2391 39.8237 30.8372 39.8237Z" fill="black"/>
<path fill-rule="evenodd" clip-rule="evenodd" d="M30.8372 21.1689H19.5742C19.1723 21.1689 18.8462 20.8477 18.8462 20.4455C18.8462 20.0462 19.1723 19.725 19.5742 19.725H30.8372C31.242 19.725 31.5652 20.0462 31.5652 20.4484C31.5652 20.8506 31.242 21.1718 30.8372 21.1718V21.1689Z" fill="black"/>
<path fill-rule="evenodd" clip-rule="evenodd" d="M33.5133 25.3704H16.8979C16.4961 25.3704 16.1699 25.0463 16.1699 24.647C16.1699 24.2477 16.4961 23.9236 16.8979 23.9236H33.5133C33.9152 23.9236 34.2413 24.2477 34.2413 24.647C34.2413 25.0463 33.9152 25.3704 33.5133 25.3704Z" fill="black"/>
<path fill-rule="evenodd" clip-rule="evenodd" d="M34.346 29.5748H16.0653C15.6634 29.5748 15.3373 29.2507 15.3373 28.8514C15.3373 28.4492 15.6634 28.1281 16.0653 28.1281H34.346C34.7479 28.1281 35.074 28.4492 35.074 28.8514C35.074 29.2507 34.7479 29.5748 34.346 29.5748Z" fill="black"/>
<path fill-rule="evenodd" clip-rule="evenodd" d="M33.8921 33.7763H16.5163C16.1145 33.7763 15.7883 33.4522 15.7883 33.0529C15.7883 32.6536 16.1145 32.3295 16.5163 32.3295H33.8921C34.294 32.3295 34.6201 32.6536 34.6201 33.0529C34.6201 33.4522 34.294 33.7763 33.8921 33.7763Z" fill="black"/>
<path fill-rule="evenodd" clip-rule="evenodd" d="M30.8372 37.4222H19.5742C19.1723 37.4222 18.8462 37.0981 18.8462 36.6988C18.8462 36.2995 19.1723 35.9755 19.5742 35.9755H30.8372C31.242 35.9755 31.5652 36.2995 31.5652 36.6988C31.5652 37.0981 31.242 37.4222 30.8372 37.4222Z" fill="black"/>
<path fill-rule="evenodd" clip-rule="evenodd" d="M23.6302 58.9007C23.2284 58.9007 22.9022 58.5767 22.9022 58.1774V44.3263C22.9022 43.9269 23.2284 43.6029 23.6302 43.6029C24.032 43.6029 24.3582 43.9269 24.3582 44.3263V58.1774C24.3582 58.5767 24.032 58.9007 23.6302 58.9007ZM26.7809 58.9007C26.3791 58.9007 26.053 58.5767 26.053 58.1774V44.3263C26.053 43.9269 26.3791 43.6029 26.7809 43.6029C27.1828 43.6029 27.5089 43.9269 27.5089 44.3263V58.1774C27.5089 58.5767 27.1828 58.9007 26.7809 58.9007Z" fill="black"/>
<path fill-rule="evenodd" clip-rule="evenodd" d="M23.6301 58.9007C23.5341 58.9007 23.4525 58.9846 23.4525 59.0801V75.5068C23.4525 75.8511 23.735 76.1318 24.0815 76.1318H26.3353C26.6818 76.1318 26.9643 75.854 26.9643 75.5068V59.0801C26.9643 58.9846 26.8827 58.9007 26.7837 58.9007H23.6301ZM26.3324 77.5785H24.0786C22.9284 77.5785 21.9937 76.6497 21.9937 75.5067V59.0801C21.9937 58.1831 22.7275 57.4539 23.6272 57.4539H26.778C27.6806 57.4539 28.4145 58.1831 28.4145 59.0801V75.5067C28.4145 76.6497 27.4798 77.5785 26.3295 77.5785H26.3324Z" fill="black"/>
<path fill-rule="evenodd" clip-rule="evenodd" d="M27.687 76.2296C27.5414 76.2296 27.3929 76.1862 27.2677 76.0965L22.3028 72.5925C21.9737 72.361 21.898 71.9096 22.131 71.5855C22.3639 71.2585 22.8182 71.1833 23.1472 71.4148L28.1121 74.9189C28.4412 75.1503 28.5169 75.6017 28.2839 75.9258C28.1412 76.1255 27.917 76.2296 27.6899 76.2296H27.687Z" fill="black"/>
<path fill-rule="evenodd" clip-rule="evenodd" d="M27.687 71.9881C27.5414 71.9881 27.3929 71.9447 27.2677 71.855L22.3028 68.351C21.9737 68.1195 21.898 67.6681 22.131 67.344C22.3639 67.0199 22.8182 66.9418 23.1472 67.1733L28.1121 70.6745C28.4412 70.906 28.5169 71.3573 28.2839 71.6843C28.1412 71.8811 27.917 71.9881 27.6899 71.9881H27.687Z" fill="black"/>
<path fill-rule="evenodd" clip-rule="evenodd" d="M27.687 67.7459C27.5414 67.7459 27.3929 67.7025 27.2677 67.6128L22.3028 64.1116C21.9737 63.8801 21.898 63.4287 22.131 63.1018C22.3639 62.7748 22.8182 62.6996 23.1472 62.9311L28.1121 66.4351C28.4412 66.6666 28.5169 67.118 28.2839 67.4421C28.1412 67.6417 27.917 67.7459 27.6899 67.7459H27.687Z" fill="black"/>
<path fill-rule="evenodd" clip-rule="evenodd" d="M27.687 63.5037C27.5414 63.5037 27.3929 63.4603 27.2677 63.3706L22.3028 59.8665C21.9737 59.6351 21.898 59.1837 22.131 58.8596C22.3639 58.5326 22.8182 58.4574 23.1472 58.6889L28.1121 62.1929C28.4412 62.4244 28.5169 62.8758 28.2839 63.1999C28.1412 63.3995 27.917 63.5037 27.6899 63.5037H27.687Z" fill="black"/>
<path fill-rule="evenodd" clip-rule="evenodd" d="M48.4427 77.5756C46.7275 77.5756 45.0182 77.428 43.1313 77.1357C42.514 77.0402 42.0626 76.5165 42.0626 75.8944V34.7574C42.0626 34.3783 42.3538 34.0629 42.7353 34.0369C44.0719 33.9385 45.4929 33.0647 45.4929 31.6468V15.0061C45.4929 14.6068 45.819 14.2827 46.2208 14.2827C46.6256 14.2827 46.9488 14.6068 46.9488 15.0061V31.6468C46.9488 33.681 45.2832 35.0062 43.5156 35.3824V75.7298C47.042 76.2651 49.8316 76.2651 53.3608 75.7298V35.3824C51.5933 35.0062 49.9277 33.6781 49.9277 31.6468V15.0061C49.9277 14.6068 50.2538 14.2827 50.6556 14.2827C51.0575 14.2827 51.3836 14.6068 51.3836 15.0061V31.6468C51.3836 33.0647 52.8046 33.9385 54.1441 34.0369C54.5227 34.0658 54.8168 34.3783 54.8168 34.7574V75.8944C54.8168 76.5165 54.3683 77.0374 53.7481 77.1357C51.8641 77.4309 50.149 77.5756 48.4396 77.5756H48.4427Z" fill="black"/>
<path fill-rule="evenodd" clip-rule="evenodd" d="M48.4426 35.0319C47.3012 35.0319 46.1626 34.864 45.0298 34.5313C44.6455 34.4184 44.4242 34.0133 44.5377 33.6314C44.6542 33.2495 45.059 33.0296 45.4433 33.1453C47.4322 33.7327 49.453 33.7327 51.4419 33.1453C51.8263 33.0296 52.231 33.2495 52.3446 33.6314C52.461 34.0163 52.2397 34.4185 51.8554 34.5313C50.7226 34.8669 49.5811 35.0319 48.4426 35.0319Z" fill="black"/>
<path fill-rule="evenodd" clip-rule="evenodd" d="M50.6588 30.9578H46.224C45.8221 30.9578 45.496 30.6337 45.496 30.2344C45.496 29.8322 45.8221 29.511 46.224 29.511H50.6588C51.0607 29.511 51.3868 29.8322 51.3868 30.2344C51.3868 30.6337 51.0607 30.9578 50.6588 30.9578Z" fill="black"/>
<path fill-rule="evenodd" clip-rule="evenodd" d="M50.6588 22.6704H46.224C45.8221 22.6704 45.496 22.3463 45.496 21.947C45.496 21.5477 45.8221 21.2236 46.224 21.2236H50.6588C51.0607 21.2236 51.3868 21.5477 51.3868 21.947C51.3868 22.3463 51.0607 22.6704 50.6588 22.6704Z" fill="black"/>
<path fill-rule="evenodd" clip-rule="evenodd" d="M46.7713 14.3547H50.1142V12.7576H46.7713V14.3547ZM50.6587 15.8015H46.2238C45.723 15.8015 45.3124 15.3935 45.3124 14.8958V12.2164C45.3124 11.7187 45.7201 11.3107 46.2209 11.3107H50.6558C51.1567 11.3107 51.5673 11.7187 51.5673 12.2164V14.8958C51.5673 15.3964 51.1567 15.8015 50.6558 15.8015H50.6587Z" fill="black"/>
<path fill-rule="evenodd" clip-rule="evenodd" d="M48.4426 44.9541C48.3698 44.9541 48.2912 44.9425 48.2184 44.9194C45.4171 44.0253 43.4079 42.0171 42.2169 40.4951C41.9694 40.1797 42.0276 39.7254 42.345 39.4795C42.6624 39.2336 43.1196 39.2914 43.3671 39.6068C44.4008 40.9292 46.1072 42.6508 48.4426 43.4667C50.778 42.6507 52.4844 40.9262 53.5181 39.6068C53.7627 39.2914 54.2228 39.2336 54.5402 39.4795C54.8576 39.7226 54.9158 40.1797 54.6683 40.4951C53.4773 42.02 51.4681 44.0252 48.6668 44.9222C48.5969 44.9454 48.5183 44.957 48.4426 44.957V44.9541Z" fill="black"/>
<path fill-rule="evenodd" clip-rule="evenodd" d="M48.4426 49.4615C48.3698 49.4615 48.2912 49.4499 48.2184 49.4268C45.4171 48.5327 43.4079 46.5245 42.2169 44.9996C41.9694 44.6843 42.0276 44.2299 42.345 43.984C42.6624 43.7381 43.1196 43.7959 43.3671 44.1113C44.4008 45.4337 46.1072 47.1553 48.4426 47.9741C50.778 47.1553 52.4844 45.4336 53.5181 44.1113C53.7627 43.7959 54.2228 43.7381 54.5402 43.984C54.8576 44.2271 54.9158 44.6842 54.6683 44.9996C53.4773 46.5245 51.4681 48.5297 48.6668 49.4268C48.5969 49.4499 48.5183 49.4615 48.4426 49.4615Z" fill="black"/>
<path fill-rule="evenodd" clip-rule="evenodd" d="M50.4926 77.5778C50.0908 77.5778 49.7646 77.2566 49.7646 76.8544V55.5352C49.7646 55.3471 49.8374 55.1677 49.9685 55.0346L53.5676 51.3019C53.8442 51.0126 54.3073 51.0039 54.5984 51.2788C54.8896 51.5536 54.8984 52.0137 54.6188 52.3031L51.2206 55.8274V76.8548C51.2206 77.257 50.8945 77.5778 50.4926 77.5778Z" fill="black"/>
<path fill-rule="evenodd" clip-rule="evenodd" d="M46.3926 77.5778C45.9908 77.5778 45.6646 77.2566 45.6646 76.8544V55.827L42.2664 52.3027C41.9898 52.0133 41.9985 51.5562 42.2897 51.2784C42.578 51.0006 43.041 51.0122 43.3176 51.3015L46.9196 55.0342C47.0478 55.1673 47.1206 55.3467 47.1206 55.5348V76.854C47.1206 77.2562 46.7945 77.5778 46.3926 77.5778Z" fill="black"/>
</svg>
