<svg width="441" height="64" viewBox="0 0 441 64" fill="none" xmlns="http://www.w3.org/2000/svg">
<g filter="url(#filter0_d_1543_195)">
<path d="M77.292 9.296C79.668 9.296 81.756 9.776 83.556 10.736C85.38 11.672 86.784 13.052 87.768 14.876C88.776 16.676 89.28 18.848 89.28 21.392V35H82.152V29.42H72.324V35H65.304V21.392C65.304 18.848 65.796 16.676 66.78 14.876C67.788 13.052 69.192 11.672 70.992 10.736C72.816 9.776 74.916 9.296 77.292 9.296ZM82.152 23.912V20.78C82.152 18.932 81.708 17.54 80.82 16.604C79.932 15.668 78.744 15.2 77.256 15.2C75.744 15.2 74.544 15.668 73.656 16.604C72.768 17.54 72.324 18.932 72.324 20.78V23.912H82.152ZM114.514 8.288V35H107.998V33.056C106.726 34.568 104.818 35.324 102.274 35.324C100.498 35.324 98.878 34.916 97.414 34.1C95.95 33.26 94.786 32.072 93.922 30.536C93.082 29 92.662 27.224 92.662 25.208C92.662 23.192 93.082 21.428 93.922 19.916C94.786 18.38 95.95 17.204 97.414 16.388C98.878 15.572 100.498 15.164 102.274 15.164C104.602 15.164 106.402 15.836 107.674 17.18V8.288H114.514ZM103.714 29.888C104.89 29.888 105.862 29.48 106.63 28.664C107.398 27.824 107.782 26.672 107.782 25.208C107.782 23.768 107.398 22.64 106.63 21.824C105.886 21.008 104.914 20.6 103.714 20.6C102.514 20.6 101.53 21.008 100.762 21.824C99.994 22.64 99.61 23.768 99.61 25.208C99.61 26.672 99.994 27.824 100.762 28.664C101.53 29.48 102.514 29.888 103.714 29.888ZM139.651 8.288V35H133.135V33.056C131.863 34.568 129.955 35.324 127.411 35.324C125.635 35.324 124.015 34.916 122.551 34.1C121.087 33.26 119.923 32.072 119.059 30.536C118.219 29 117.799 27.224 117.799 25.208C117.799 23.192 118.219 21.428 119.059 19.916C119.923 18.38 121.087 17.204 122.551 16.388C124.015 15.572 125.635 15.164 127.411 15.164C129.739 15.164 131.539 15.836 132.811 17.18V8.288H139.651ZM128.851 29.888C130.027 29.888 130.999 29.48 131.767 28.664C132.535 27.824 132.919 26.672 132.919 25.208C132.919 23.768 132.535 22.64 131.767 21.824C131.023 21.008 130.051 20.6 128.851 20.6C127.651 20.6 126.667 21.008 125.899 21.824C125.131 22.64 124.747 23.768 124.747 25.208C124.747 26.672 125.131 27.824 125.899 28.664C126.667 29.48 127.651 29.888 128.851 29.888ZM169.18 9.296C172.18 9.296 174.508 10.256 176.164 12.176C177.82 14.072 178.648 16.784 178.648 20.312V35H171.52V20.528C171.52 18.752 171.112 17.42 170.296 16.532C169.504 15.644 168.388 15.2 166.948 15.2C165.46 15.2 164.26 15.68 163.348 16.64C162.436 17.576 161.98 18.992 161.98 20.888V35H154.852V9.8H161.764V12.68C163.468 10.424 165.94 9.296 169.18 9.296ZM193.585 30.104C194.521 30.104 195.325 29.972 195.997 29.708C196.693 29.444 197.389 29.012 198.085 28.412L201.649 32.156C199.801 34.268 197.041 35.324 193.369 35.324C191.089 35.324 189.085 34.892 187.357 34.028C185.629 33.164 184.285 31.964 183.325 30.428C182.389 28.892 181.921 27.152 181.921 25.208C181.921 23.288 182.389 21.572 183.325 20.06C184.261 18.524 185.545 17.324 187.177 16.46C188.833 15.596 190.681 15.164 192.721 15.164C194.617 15.164 196.345 15.56 197.905 16.352C199.489 17.12 200.749 18.26 201.685 19.772C202.621 21.26 203.089 23.036 203.089 25.1L189.157 27.764C189.901 29.324 191.377 30.104 193.585 30.104ZM192.757 20.024C191.581 20.024 190.621 20.396 189.877 21.14C189.133 21.86 188.713 22.904 188.617 24.272L196.537 22.724C196.297 21.908 195.841 21.26 195.169 20.78C194.497 20.276 193.693 20.024 192.757 20.024ZM238.067 15.488V26.252C238.067 29.156 237.227 31.4 235.547 32.984C233.891 34.544 231.551 35.324 228.527 35.324C225.695 35.324 223.547 34.496 222.083 32.84C220.667 34.496 218.531 35.324 215.675 35.324C212.627 35.324 210.275 34.544 208.619 32.984C206.987 31.4 206.171 29.156 206.171 26.252V15.488H213.011V25.784C213.011 27.152 213.239 28.16 213.695 28.808C214.151 29.432 214.859 29.744 215.819 29.744C216.779 29.744 217.499 29.42 217.979 28.772C218.459 28.124 218.699 27.128 218.699 25.784V15.488H225.539V25.784C225.539 27.128 225.779 28.124 226.259 28.772C226.739 29.42 227.459 29.744 228.419 29.744C229.379 29.744 230.087 29.432 230.543 28.808C230.999 28.16 231.227 27.152 231.227 25.784V15.488H238.067ZM264.669 9.8C266.949 9.8 268.929 10.184 270.609 10.952C272.289 11.696 273.585 12.776 274.497 14.192C275.409 15.584 275.865 17.228 275.865 19.124C275.865 21.02 275.409 22.664 274.497 24.056C273.585 25.448 272.289 26.528 270.609 27.296C268.929 28.04 266.949 28.412 264.669 28.412H260.277V35H253.149V9.8H264.669ZM264.237 22.796C265.701 22.796 266.805 22.484 267.549 21.86C268.293 21.212 268.665 20.3 268.665 19.124C268.665 17.948 268.293 17.036 267.549 16.388C266.805 15.74 265.701 15.416 264.237 15.416H260.277V22.796H264.237ZM285.708 17.828C286.404 16.94 287.304 16.28 288.408 15.848C289.536 15.392 290.82 15.164 292.26 15.164V21.32C291.636 21.248 291.12 21.212 290.712 21.212C289.248 21.212 288.096 21.608 287.256 22.4C286.44 23.192 286.032 24.404 286.032 26.036V35H279.192V15.488H285.708V17.828ZM304.699 35.324C302.611 35.324 300.727 34.892 299.047 34.028C297.367 33.164 296.047 31.964 295.087 30.428C294.151 28.892 293.683 27.152 293.683 25.208C293.683 23.288 294.151 21.56 295.087 20.024C296.047 18.488 297.355 17.3 299.011 16.46C300.691 15.596 302.587 15.164 304.699 15.164C306.811 15.164 308.707 15.596 310.387 16.46C312.067 17.3 313.375 18.488 314.311 20.024C315.247 21.536 315.715 23.264 315.715 25.208C315.715 27.152 315.247 28.892 314.311 30.428C313.375 31.964 312.067 33.164 310.387 34.028C308.707 34.892 306.811 35.324 304.699 35.324ZM304.699 29.888C305.899 29.888 306.883 29.48 307.651 28.664C308.419 27.824 308.803 26.672 308.803 25.208C308.803 23.768 308.419 22.64 307.651 21.824C306.883 21.008 305.899 20.6 304.699 20.6C303.499 20.6 302.515 21.008 301.747 21.824C300.979 22.64 300.595 23.768 300.595 25.208C300.595 26.672 300.979 27.824 301.747 28.664C302.515 29.48 303.499 29.888 304.699 29.888ZM339.62 8.288V35H333.104V33.056C331.832 34.568 329.924 35.324 327.38 35.324C325.604 35.324 323.984 34.916 322.52 34.1C321.056 33.26 319.892 32.072 319.028 30.536C318.188 29 317.768 27.224 317.768 25.208C317.768 23.192 318.188 21.428 319.028 19.916C319.892 18.38 321.056 17.204 322.52 16.388C323.984 15.572 325.604 15.164 327.38 15.164C329.708 15.164 331.508 15.836 332.78 17.18V8.288H339.62ZM328.82 29.888C329.996 29.888 330.968 29.48 331.736 28.664C332.504 27.824 332.888 26.672 332.888 25.208C332.888 23.768 332.504 22.64 331.736 21.824C330.992 21.008 330.02 20.6 328.82 20.6C327.62 20.6 326.636 21.008 325.868 21.824C325.1 22.64 324.716 23.768 324.716 25.208C324.716 26.672 325.1 27.824 325.868 28.664C326.636 29.48 327.62 29.888 328.82 29.888ZM364.54 15.488V35H358.024V32.912C357.304 33.704 356.44 34.304 355.432 34.712C354.424 35.12 353.356 35.324 352.228 35.324C349.708 35.324 347.692 34.58 346.18 33.092C344.692 31.604 343.948 29.372 343.948 26.396V15.488H350.788V25.28C350.788 26.744 351.064 27.812 351.616 28.484C352.168 29.156 352.972 29.492 354.028 29.492C355.108 29.492 355.984 29.12 356.656 28.376C357.352 27.608 357.7 26.444 357.7 24.884V15.488H364.54ZM378.918 35.324C376.758 35.324 374.826 34.892 373.122 34.028C371.418 33.164 370.086 31.964 369.126 30.428C368.19 28.892 367.722 27.152 367.722 25.208C367.722 23.264 368.19 21.536 369.126 20.024C370.086 18.488 371.418 17.3 373.122 16.46C374.826 15.596 376.758 15.164 378.918 15.164C381.126 15.164 383.034 15.644 384.642 16.604C386.25 17.54 387.39 18.848 388.062 20.528L382.77 23.228C381.882 21.476 380.586 20.6 378.882 20.6C377.658 20.6 376.638 21.008 375.822 21.824C375.03 22.64 374.634 23.768 374.634 25.208C374.634 26.672 375.03 27.824 375.822 28.664C376.638 29.48 377.658 29.888 378.882 29.888C380.586 29.888 381.882 29.012 382.77 27.26L388.062 29.96C387.39 31.64 386.25 32.96 384.642 33.92C383.034 34.856 381.126 35.324 378.918 35.324ZM403.131 34.208C402.555 34.568 401.847 34.844 401.007 35.036C400.191 35.228 399.315 35.324 398.379 35.324C395.835 35.324 393.879 34.7 392.511 33.452C391.167 32.204 390.495 30.344 390.495 27.872V11.132H397.335V16.208H401.763V21.32H397.335V27.8C397.335 28.52 397.515 29.072 397.875 29.456C398.235 29.84 398.727 30.032 399.351 30.032C400.143 30.032 400.839 29.828 401.439 29.42L403.131 34.208Z" fill="white"/>
</g>
<path fill-rule="evenodd" clip-rule="evenodd" d="M13.5945 13.3689V14.0624H10.7799C9.94138 14.0624 9.22973 14.6774 9.10817 15.507L8.69816 18.3054C7.89749 23.7699 7.89749 29.322 8.69816 34.7865C9.05692 37.2351 11.0314 39.128 13.4929 39.3833L14.672 39.5056C19.8772 40.0454 25.1243 40.0454 30.3295 39.5056L31.5086 39.3833C33.9701 39.128 35.9446 37.2351 36.3034 34.7865C37.104 29.322 37.104 23.7699 36.3034 18.3054L35.8933 15.507C35.7718 14.6774 35.0601 14.0624 34.2216 14.0624H31.407V13.3689C31.407 9.30438 28.6552 5.75549 24.7188 4.74326C23.2638 4.36911 21.7378 4.36911 20.2827 4.74326C16.3463 5.75549 13.5945 9.30437 13.5945 13.3689ZM24.0184 7.46714C23.0228 7.21115 21.9787 7.21115 20.9832 7.46714C18.2898 8.15972 16.407 10.5879 16.407 13.3689V14.0624H28.5945V13.3689C28.5945 10.5879 26.7117 8.15972 24.0184 7.46714ZM16.407 16.8749C16.407 16.0983 15.7774 15.4687 15.0008 15.4687C14.2241 15.4687 13.5945 16.0983 13.5945 16.8749V20.6249C13.5945 21.4016 14.2241 22.0312 15.0008 22.0312C15.7774 22.0312 16.407 21.4016 16.407 20.6249V16.8749ZM31.407 16.8749C31.407 16.0983 30.7774 15.4687 30.0008 15.4687C29.2241 15.4687 28.5945 16.0983 28.5945 16.8749V20.6249C28.5945 21.4016 29.2241 22.0312 30.0008 22.0312C30.7774 22.0312 31.407 21.4016 31.407 20.6249V16.8749Z" fill="white"/>
<defs>
<filter id="filter0_d_1543_195" x="61.3047" y="8.28809" width="345.826" height="35.0359" filterUnits="userSpaceOnUse" color-interpolation-filters="sRGB">
<feFlood flood-opacity="0" result="BackgroundImageFix"/>
<feColorMatrix in="SourceAlpha" type="matrix" values="0 0 0 0 0 0 0 0 0 0 0 0 0 0 0 0 0 0 127 0" result="hardAlpha"/>
<feOffset dy="4"/>
<feGaussianBlur stdDeviation="2"/>
<feComposite in2="hardAlpha" operator="out"/>
<feColorMatrix type="matrix" values="0 0 0 0 0 0 0 0 0 0 0 0 0 0 0 0 0 0 0.25 0"/>
<feBlend mode="normal" in2="BackgroundImageFix" result="effect1_dropShadow_1543_195"/>
<feBlend mode="normal" in="SourceGraphic" in2="effect1_dropShadow_1543_195" result="shape"/>
</filter>
</defs>
</svg>
