<svg width="49" height="29" viewBox="0 0 49 29" fill="none" xmlns="http://www.w3.org/2000/svg">
<path fill-rule="evenodd" clip-rule="evenodd" d="M0.757727 16.5168C1.89942 23.3215 8.13182 28.3333 15.4521 28.3333H33.4214C40.7417 28.3333 46.9741 23.3215 48.1158 16.5168C48.3585 15.0701 48.3585 13.5966 48.1158 12.1499C46.9741 5.34514 40.7417 0.333344 33.4214 0.333344H15.4521C8.13183 0.333344 1.89942 5.34514 0.757727 12.1499C0.515002 13.5966 0.515002 15.0701 0.757727 16.5168ZM33.5915 21.8718C37.6765 21.8718 41.0934 18.9361 41.5196 15.1262C41.5783 14.6016 41.5783 14.0651 41.5196 13.5404C41.0934 9.73061 37.6765 6.79488 33.5915 6.79488C29.5066 6.79488 26.0897 9.73061 25.6635 13.5404C25.6048 14.0651 25.6048 14.6016 25.6635 15.1262C26.0897 18.9361 29.5066 21.8718 33.5915 21.8718Z" fill="white"/>
</svg>
